<svg width="24" height="24" viewBox="0 0 24 24" fill="none" xmlns="http://www.w3.org/2000/svg">
    <path d="M4.20785 11.6456L3.8543 11.9991L4.20785 12.3527L9.74785 17.8927C9.84259 17.9874 9.84259 18.1509 9.74785 18.2456L9.74176 18.2517L9.73588 18.258C9.70563 18.2904 9.64677 18.3191 9.57141 18.3191C9.50686 18.3191 9.44625 18.2969 9.39496 18.2456L3.32496 12.1756C3.23022 12.0808 3.23022 11.9174 3.32496 11.8227L9.39496 5.75269C9.4897 5.65796 9.65312 5.65796 9.74785 5.75269C9.84259 5.84743 9.84259 6.01085 9.74785 6.10559L4.20785 11.6456Z" fill="#540068" stroke="#540068"/>
    <path d="M20.5019 12.25H3.67188C3.53802 12.25 3.42188 12.1339 3.42188 12C3.42188 11.8661 3.53802 11.75 3.67188 11.75H20.5019C20.6357 11.75 20.7519 11.8661 20.7519 12C20.7519 12.1339 20.6357 12.25 20.5019 12.25Z" fill="#540068" stroke="#540068"/>
</svg>
