<svg width="32" height="32" viewBox="0 0 32 32" fill="none" xmlns="http://www.w3.org/2000/svg">
<path d="M29.799 19.4326C27.9012 27.047 20.1891 31.6966 12.5608 29.7977C4.94633 27.8941 0.304186 20.1819 2.20198 12.5675C4.09977 4.95313 11.8072 0.303508 19.417 2.20245C27.05 4.07813 31.6922 11.8135 29.799 19.4326Z" fill="#F7931A"/>
<path d="M22.734 14.1315C22.9896 12.2352 21.5488 11.2452 19.5735 10.5759L20.187 8.01033L18.6253 7.63385L18.0304 10.1437C17.6168 10.0461 17.1985 9.94846 16.7848 9.8648L17.3797 7.35499L15.7995 6.97852L15.186 9.5441C14.8513 9.46508 14.512 9.40466 14.1774 9.32565L12.0255 8.80975L11.6304 10.469C11.6304 10.469 12.797 10.7246 12.7552 10.7479C13.3873 10.9059 13.5081 11.3196 13.4849 11.6356L12.7924 14.5591C12.8342 14.5777 12.89 14.5777 12.9504 14.6195C12.89 14.6009 12.8528 14.6009 12.7924 14.5823L11.8442 18.6724C11.7652 18.8676 11.5653 19.1464 11.1331 19.0488C11.1517 19.0674 9.98509 18.77 9.98509 18.77L9.24609 20.5687L11.2818 21.0427C11.6583 21.1403 12.0348 21.2194 12.388 21.3216L11.7745 23.9104L13.3361 24.2869L13.9497 21.7213C14.3865 21.8375 14.8002 21.9398 15.1953 22.0374L14.5818 24.5844L16.1434 24.9608L16.7569 22.372C19.4247 22.8461 21.4186 22.6276 22.2274 20.1968C22.878 18.2587 22.1669 17.1525 20.7447 16.4228C21.7858 16.1858 22.5388 15.5119 22.734 14.1315ZM19.2202 19.165C18.7648 21.1032 15.4881 20.0946 14.4377 19.839L15.2464 16.3996C16.3154 16.6599 19.6943 17.1339 19.2202 19.165ZM19.6525 14.1315C19.2388 15.8883 16.5106 15.0424 15.6229 14.824L16.3758 11.7053C17.2449 11.9191 20.0894 12.2956 19.6525 14.1315Z" fill="white"/>
</svg>
