<svg width="16" height="16" viewBox="0 0 16 16" fill="none" xmlns="http://www.w3.org/2000/svg">
<path d="M4.50808 14.6663H11.4947C13.3347 14.6663 14.0681 13.5397 14.1547 12.1663L14.5014 6.65967C14.5947 5.21967 13.4481 3.99967 12.0014 3.99967C11.5947 3.99967 11.2214 3.76634 11.0347 3.40634L10.5547 2.43967C10.2481 1.83301 9.44808 1.33301 8.76808 1.33301H7.24141C6.55475 1.33301 5.75475 1.83301 5.44808 2.43967L4.96808 3.40634C4.78141 3.76634 4.40808 3.99967 4.00141 3.99967C2.55475 3.99967 1.40808 5.21967 1.50141 6.65967L1.84808 12.1663C1.92808 13.5397 2.66808 14.6663 4.50808 14.6663Z" stroke="#FDF1EC" stroke-width="0.875" stroke-linecap="round" stroke-linejoin="round"/>
<path d="M7 5.33301H9" stroke="#FDF1EC" stroke-width="0.875" stroke-linecap="round" stroke-linejoin="round"/>
<path d="M7.9987 12.0003C9.19203 12.0003 10.1654 11.027 10.1654 9.83366C10.1654 8.64033 9.19203 7.66699 7.9987 7.66699C6.80536 7.66699 5.83203 8.64033 5.83203 9.83366C5.83203 11.027 6.80536 12.0003 7.9987 12.0003Z" stroke="#FDF1EC" stroke-width="0.875" stroke-linecap="round" stroke-linejoin="round"/>
</svg>
