<svg width="20" height="20" viewBox="0 0 20 20" fill="none" xmlns="http://www.w3.org/2000/svg">
<g clip-path="url(#clip0_1961_63156)">
<path d="M3.33341 13.3333V3.33334H1.66675V1.66667H4.16675C4.38776 1.66667 4.59972 1.75447 4.756 1.91075C4.91228 2.06703 5.00008 2.27899 5.00008 2.50001V12.5H15.3651L17.0317 5.83334H6.66675V4.16667H18.1001C18.2268 4.16668 18.3518 4.19556 18.4656 4.25112C18.5794 4.30668 18.6791 4.38746 18.757 4.48733C18.835 4.58719 18.8891 4.7035 18.9153 4.82743C18.9416 4.95136 18.9392 5.07963 18.9084 5.20251L16.8251 13.5358C16.7799 13.716 16.6759 13.876 16.5294 13.9903C16.383 14.1046 16.2025 14.1667 16.0167 14.1667H4.16675C3.94573 14.1667 3.73377 14.0789 3.57749 13.9226C3.42121 13.7663 3.33341 13.5544 3.33341 13.3333ZM5.00008 19.1667C4.55805 19.1667 4.13413 18.9911 3.82157 18.6785C3.50901 18.366 3.33341 17.942 3.33341 17.5C3.33341 17.058 3.50901 16.6341 3.82157 16.3215C4.13413 16.0089 4.55805 15.8333 5.00008 15.8333C5.44211 15.8333 5.86603 16.0089 6.17859 16.3215C6.49115 16.6341 6.66675 17.058 6.66675 17.5C6.66675 17.942 6.49115 18.366 6.17859 18.6785C5.86603 18.9911 5.44211 19.1667 5.00008 19.1667ZM15.0001 19.1667C14.5581 19.1667 14.1341 18.9911 13.8216 18.6785C13.509 18.366 13.3334 17.942 13.3334 17.5C13.3334 17.058 13.509 16.6341 13.8216 16.3215C14.1341 16.0089 14.5581 15.8333 15.0001 15.8333C15.4421 15.8333 15.866 16.0089 16.1786 16.3215C16.4912 16.6341 16.6667 17.058 16.6667 17.5C16.6667 17.942 16.4912 18.366 16.1786 18.6785C15.866 18.9911 15.4421 19.1667 15.0001 19.1667Z" fill="#121212"/>
</g>
<defs>
<clipPath id="clip0_1961_63156">
<rect width="20" height="20" fill="white"/>
</clipPath>
</defs>
</svg>
