<svg width="20" height="20" viewBox="0 0 20 20" fill="none" xmlns="http://www.w3.org/2000/svg">
<g clip-path="url(#clip0_1961_64165)">
<path d="M3.33317 13.3333V3.33334H1.6665V1.66667H4.1665C4.38752 1.66667 4.59948 1.75447 4.75576 1.91075C4.91204 2.06703 4.99984 2.27899 4.99984 2.50001V12.5H15.3648L17.0315 5.83334H6.6665V4.16667H18.0998C18.2265 4.16668 18.3515 4.19556 18.4653 4.25112C18.5792 4.30668 18.6789 4.38746 18.7568 4.48733C18.8347 4.58719 18.8889 4.7035 18.9151 4.82743C18.9413 4.95136 18.939 5.07963 18.9082 5.20251L16.8248 13.5358C16.7797 13.716 16.6756 13.876 16.5292 13.9903C16.3827 14.1046 16.2023 14.1667 16.0165 14.1667H4.1665C3.94549 14.1667 3.73353 14.0789 3.57725 13.9226C3.42097 13.7663 3.33317 13.5544 3.33317 13.3333ZM4.99984 19.1667C4.55781 19.1667 4.13389 18.9911 3.82133 18.6785C3.50877 18.366 3.33317 17.942 3.33317 17.5C3.33317 17.058 3.50877 16.6341 3.82133 16.3215C4.13389 16.0089 4.55781 15.8333 4.99984 15.8333C5.44186 15.8333 5.86579 16.0089 6.17835 16.3215C6.49091 16.6341 6.6665 17.058 6.6665 17.5C6.6665 17.942 6.49091 18.366 6.17835 18.6785C5.86579 18.9911 5.44186 19.1667 4.99984 19.1667ZM14.9998 19.1667C14.5578 19.1667 14.1339 18.9911 13.8213 18.6785C13.5088 18.366 13.3332 17.942 13.3332 17.5C13.3332 17.058 13.5088 16.6341 13.8213 16.3215C14.1339 16.0089 14.5578 15.8333 14.9998 15.8333C15.4419 15.8333 15.8658 16.0089 16.1783 16.3215C16.4909 16.6341 16.6665 17.058 16.6665 17.5C16.6665 17.942 16.4909 18.366 16.1783 18.6785C15.8658 18.9911 15.4419 19.1667 14.9998 19.1667Z" fill="white"/>
</g>
<defs>
<clipPath id="clip0_1961_64165">
<rect width="20" height="20" fill="white"/>
</clipPath>
</defs>
</svg>
