<svg width="64" height="64" viewBox="0 0 64 64" fill="none" xmlns="http://www.w3.org/2000/svg">
<path d="M43.3346 60.0003C45.912 60.0003 48.0013 57.911 48.0013 55.3337C48.0013 52.7563 45.912 50.667 43.3346 50.667C40.7573 50.667 38.668 52.7563 38.668 55.3337C38.668 57.911 40.7573 60.0003 43.3346 60.0003Z" fill="#E77644"/>
<path d="M21.9987 60.0003C24.576 60.0003 26.6654 57.911 26.6654 55.3337C26.6654 52.7563 24.576 50.667 21.9987 50.667C19.4214 50.667 17.332 52.7563 17.332 55.3337C17.332 57.911 19.4214 60.0003 21.9987 60.0003Z" fill="#E77644"/>
<path d="M12.9054 10.5063L12.372 17.0397C12.2654 18.293 13.252 19.333 14.5054 19.333H55.332C56.452 19.333 57.3854 18.4797 57.4654 17.3597C57.812 12.6397 54.212 8.79967 49.492 8.79967H16.7187C16.452 7.62634 15.9187 6.50634 15.092 5.57301C13.7587 4.15967 11.892 3.33301 9.97203 3.33301H5.33203C4.2387 3.33301 3.33203 4.23967 3.33203 5.33301C3.33203 6.42634 4.2387 7.33301 5.33203 7.33301H9.97203C10.7987 7.33301 11.572 7.67967 12.132 8.26634C12.692 8.87967 12.9587 9.67967 12.9054 10.5063Z" fill="#E77644"/>
<path d="M54.6948 23.333H13.7881C12.6681 23.333 11.7614 24.1863 11.6548 25.2797L10.6948 36.8797C10.3214 41.4397 13.8948 45.333 18.4548 45.333H48.1081C52.1081 45.333 55.6281 42.053 55.9214 38.053L56.8014 25.5997C56.9081 24.373 55.9481 23.333 54.6948 23.333Z" fill="#E77644"/>
</svg>
