<svg width="24" height="24" viewBox="0 0 24 24" fill="none" xmlns="http://www.w3.org/2000/svg">
<path d="M12 22.25C6.34614 22.25 1.75 17.6539 1.75 12C1.75 6.34614 6.34614 1.75 12 1.75C17.6539 1.75 22.25 6.34614 22.25 12C22.25 17.6539 17.6539 22.25 12 22.25ZM12 2.25C6.62386 2.25 2.25 6.62386 2.25 12C2.25 17.3761 6.62386 21.75 12 21.75C17.3761 21.75 21.75 17.3761 21.75 12C21.75 6.62386 17.3761 2.25 12 2.25Z" fill="#1D1D1D" stroke="#1D1D1D"/>
<path d="M14.5 12.25H8.5C8.36614 12.25 8.25 12.1339 8.25 12C8.25 11.8661 8.36614 11.75 8.5 11.75H14.5C14.6339 11.75 14.75 11.8661 14.75 12C14.75 12.1339 14.6339 12.25 14.5 12.25Z" fill="#1D1D1D" stroke="#1D1D1D"/>
<path d="M14.7935 12.3535L15.147 11.9999L14.7935 11.6464L12.3235 9.17639C12.2288 9.08165 12.2288 8.91823 12.3235 8.82349C12.4182 8.72876 12.5816 8.72876 12.6764 8.82349L15.6764 11.8235C15.7711 11.9182 15.7711 12.0816 15.6764 12.1764L12.6764 15.1764C12.6251 15.2277 12.5645 15.2499 12.4999 15.2499C12.4354 15.2499 12.3748 15.2277 12.3235 15.1764C12.2288 15.0816 12.2288 14.9182 12.3235 14.8235L14.7935 12.3535Z" fill="#1D1D1D" stroke="#1D1D1D"/>
</svg>
