<svg width="302" height="244" viewBox="0 0 302 244" fill="none" xmlns="http://www.w3.org/2000/svg">
<path d="M44.6643 82.6172C48.8295 86.3008 61.8571 95.0964 70.094 90.6436C71.8219 89.7095 75.7717 83.1506 73.9302 76.4502C73.0899 73.2707 72.1326 65.9344 75.0263 62.0258C77.3281 59.8157 79.1257 58.6757 90.7006 62.0258C95.2312 63.6544 106.178 66.9115 113.719 66.9115C117.19 66.485 123.935 63.4683 123.145 54.8137C122.926 52.0218 120.734 44.0419 113.719 34.4567C112.002 30.773 109.203 21.4747 111.746 13.7507C113.317 9.83457 119.331 2.00231 130.818 2.00231C132.608 1.96354 137.877 2.39782 144.629 4.44515C148.758 6.42268 158.966 11.448 166.77 15.7287C169.584 17.1634 177.227 20.0328 185.295 20.0328C188.364 19.645 195.269 18.4973 198.338 17.0083C200.713 15.7675 208.137 12.9369 218.835 11.5409C221.612 11.2695 227.56 12.4017 229.139 19.1021C229.723 21.9714 230.542 29.1061 229.139 34.6897C228.335 37.5203 227.736 44.2982 231.769 48.7651C233.267 50.4715 238.302 53.8843 246.457 53.8843C253.399 53.8068 269.717 54.6986 279.45 58.8863C285.369 60.7475 297.733 68.5646 299.838 84.9433C300.203 88.3167 300.188 95.715 297.207 98.3207C294.503 100.492 287.934 104.393 283.286 102.625C280.217 101.81 273.158 102.392 269.475 111.233C268.891 112.706 267.634 116.072 267.283 117.747C267.027 119.414 266.911 124.215 268.489 130.078C269.147 132.171 270.265 136.731 269.475 138.22C269.073 139.035 267.919 140.733 266.516 141.012C264.36 141.439 258.953 142.873 255.884 147.177C254.824 148.884 253.341 155.39 255.884 167.767C257.528 174.281 260.093 190.334 257.199 202.432C256.103 206.271 252.902 215.368 248.869 221.044C246.055 225.038 238.478 233.491 230.673 235.352C227.86 235.856 221.181 236.562 216.972 235.352C213.026 234.073 203.271 228.001 195.817 213.948C192.931 209.567 185.075 202.525 176.745 209.412C167.282 217.361 144.892 234.631 131.037 240.122C124.205 242.72 107.164 244.635 93.6601 231.514C89.8237 226.822 84.8474 214.879 95.6331 204.642C101.333 200.765 112.294 191.172 110.54 183.82C109.956 180.64 104.402 174.886 86.8642 177.306C66.769 180.447 23.2024 183.634 9.69835 171.257C3.88899 164.006 -4.24411 147.666 9.69835 140.314C19.1979 135.584 37.8464 123.703 36.4435 114.025C34.1783 101.074 32.651 76.6613 44.6643 82.6172Z" fill="#EEE6F0" stroke="#2A2A2A" stroke-width="4"/>
</svg>
