<svg width="32" height="32" viewBox="0 0 32 32" fill="none" xmlns="http://www.w3.org/2000/svg">
<path fill-rule="evenodd" clip-rule="evenodd" d="M16 0C7.16344 0 0 7.16344 0 16C0 24.8366 7.16344 32 16 32C24.8366 32 32 24.8366 32 16C32 7.16344 24.8366 0 16 0ZM6 12C5.44772 12 5 12.4477 5 13C5 13.5523 5.44772 14 6 14H11C11.5523 14 12 13.5523 12 13C12 12.4477 11.5523 12 11 12H6ZM20 13C20 12.4477 20.4477 12 21 12H26C26.5523 12 27 12.4477 27 13C27 13.5523 26.5523 14 26 14H21C20.4477 14 20 13.5523 20 13ZM16 21C14.8954 21 14 21.8954 14 23C14 24.1046 14.8954 25 16 25C17.1046 25 18 24.1046 18 23C18 21.8954 17.1046 21 16 21Z" fill="white"/>
</svg>
