<svg width="32" height="32" viewBox="0 0 32 32" fill="none" xmlns="http://www.w3.org/2000/svg">
<path d="M29.8107 19.4311C27.913 27.0455 20.2009 31.6951 12.5725 29.7962C4.95805 27.8926 0.315904 20.1805 2.2137 12.5661C4.11149 4.95166 11.8189 0.302043 19.4287 2.20099C27.0617 4.07666 31.7039 11.8121 29.8107 19.4311Z" fill="#ECEFF0"/>
<path d="M16.1756 19.4483C16.1204 19.4671 16.0889 19.419 16.0513 19.3969C14.2095 18.3099 12.3696 17.222 10.5318 16.1335C10.514 16.1245 10.4955 16.1169 10.4766 16.1109V16.0865L10.5092 16.0678C10.5555 16.0556 10.601 16.0408 10.6456 16.0236L14.986 14.0487C15.3728 13.8724 15.7596 13.6989 16.1464 13.5243H16.174C16.174 13.5796 16.174 13.6288 16.174 13.6813C16.1755 15.6038 16.176 17.5261 16.1756 19.4483Z" fill="#343535"/>
<path d="M16.1784 13.5257H16.1508C16.1508 13.4704 16.1563 13.4152 16.1563 13.3571C16.1563 11.1978 16.1563 9.03817 16.1563 6.87841C16.1499 6.82294 16.1537 6.76678 16.1673 6.71264H16.1789C16.406 7.04805 16.6039 7.40168 16.8127 7.74814C18.4675 10.4929 20.1213 13.2372 21.7741 15.9812C21.7902 16.0083 21.8029 16.0365 21.8172 16.0663C21.7704 16.0563 21.7245 16.0429 21.6797 16.026C21.3763 15.889 21.0718 15.7497 20.7713 15.6099C20.3005 15.3944 19.8295 15.1793 19.3584 14.9645L17.0885 13.9362C16.7862 13.797 16.4823 13.6616 16.1784 13.5257Z" fill="#2F3030"/>
<path d="M16.1692 6.70979C16.1555 6.76392 16.1518 6.82009 16.1581 6.87556C16.1581 9.03495 16.1581 11.1945 16.1581 13.3543C16.1581 13.4095 16.1548 13.4648 16.1526 13.5228C15.7658 13.6974 15.379 13.8709 14.9922 14.0472L10.6519 16.022C10.6072 16.0393 10.5617 16.0541 10.5154 16.0662C10.6408 15.8054 10.8038 15.5689 10.9525 15.3192C12.6746 12.4566 14.398 9.59451 16.1227 6.733C16.1341 6.71714 16.1465 6.70201 16.1598 6.68769L16.1692 6.70979Z" fill="#828384"/>
<path d="M16.1784 13.5257C16.4823 13.6616 16.7863 13.797 17.0897 13.9341L19.3596 14.9624C19.8311 15.1768 20.302 15.3919 20.7725 15.6078C21.0753 15.7465 21.3803 15.8868 21.6809 16.0238C21.7256 16.0407 21.7716 16.0542 21.8184 16.0642C21.8737 16.1332 21.7919 16.136 21.7671 16.1509C21.2957 16.4327 20.8222 16.7107 20.3497 16.9903C18.9938 17.7926 17.6382 18.5947 16.2829 19.3966C16.2487 19.4165 16.2116 19.4312 16.1756 19.4483C16.1756 17.5265 16.1757 15.6048 16.1757 13.6827C16.1763 13.6302 16.1778 13.5782 16.1784 13.5257Z" fill="#131313"/>
<path d="M16.1562 20.54L19.7064 18.4474C20.3842 18.0474 21.0617 17.647 21.7387 17.2462L21.8001 17.2125C21.8061 17.2677 21.768 17.297 21.7448 17.3291C20.1976 19.5102 18.6505 21.6906 17.1033 23.8702C16.8105 24.2836 16.5182 24.6991 16.2225 25.1091C16.2071 25.1306 16.1833 25.2317 16.1358 25.1245C16.1734 25.0925 16.1568 25.0494 16.1568 25.014C16.1572 23.5221 16.157 22.0308 16.1562 20.54Z" fill="#2F3030"/>
<path d="M16.1559 20.5403C16.1559 22.0311 16.1559 23.5215 16.1559 25.0116C16.1559 25.0497 16.1725 25.0928 16.1349 25.1221C16.0559 25.0745 16.0217 24.9894 15.9692 24.9193C14.1752 22.3922 12.3821 19.8648 10.59 17.3371C10.5674 17.305 10.5464 17.2708 10.5231 17.2354C10.5696 17.2083 10.5944 17.2454 10.6215 17.2614C12.4357 18.3326 14.2496 19.4048 16.0631 20.4778C16.0968 20.4988 16.1255 20.5204 16.1559 20.5403Z" fill="#828384"/>
<path d="M16.1696 6.70976L16.1563 6.68931C16.1806 6.67384 16.1773 6.6965 16.1812 6.7081L16.1696 6.70976Z" fill="#393939"/>
</svg>
