<svg width="23" height="24" viewBox="0 0 23 24" fill="none" xmlns="http://www.w3.org/2000/svg">
<path d="M14.932 12.0002C14.932 13.8977 13.3986 15.431 11.5011 15.431C9.60365 15.431 8.07031 13.8977 8.07031 12.0002C8.07031 10.1027 9.60365 8.56934 11.5011 8.56934C13.3986 8.56934 14.932 10.1027 14.932 12.0002Z" stroke="#1D1D1D" stroke-width="2.15625" stroke-linecap="round" stroke-linejoin="round"/>
<path d="M11.4984 19.9254C14.8813 19.9254 18.0342 17.932 20.2288 14.482C21.0913 13.1308 21.0913 10.8595 20.2288 9.50827C18.0342 6.05827 14.8813 4.06494 11.4984 4.06494C8.11547 4.06494 4.96255 6.05827 2.76797 9.50827C1.90547 10.8595 1.90547 13.1308 2.76797 14.482C4.96255 17.932 8.11547 19.9254 11.4984 19.9254Z" stroke="#1D1D1D" stroke-width="2.15625" stroke-linecap="round" stroke-linejoin="round"/>
</svg>
