<svg width="32" height="32" viewBox="0 0 32 32" fill="none" xmlns="http://www.w3.org/2000/svg">
<path opacity="0.1" fill-rule="evenodd" clip-rule="evenodd" d="M0 16C0 7.16344 7.16344 0 16 0C24.8366 0 32 7.16344 32 16C32 24.8366 24.8366 32 16 32C7.16344 32 0 24.8366 0 16Z" fill="white"/>
<g clip-path="url(#clip0_1961_63403)">
<path d="M16.9226 23.7368V15.9949H19.5344L19.9226 12.9637H16.9226V11.033C16.9226 10.1583 17.1663 9.55942 18.4216 9.55942H20.0123V6.85694C19.2384 6.774 18.4604 6.73395 17.682 6.73698C15.3734 6.73698 13.7884 8.14631 13.7884 10.7335V12.9581H11.1936V15.9893H13.7941V23.7368H16.9226Z" fill="white"/>
</g>
<defs>
<clipPath id="clip0_1961_63403">
<rect width="10" height="18" fill="white" transform="translate(11 6.61182)"/>
</clipPath>
</defs>
</svg>
