<svg width="32" height="32" viewBox="0 0 32 32" fill="none" xmlns="http://www.w3.org/2000/svg">
<g clip-path="url(#clip0_4910_15709)">
<path d="M28.9851 16.2434C28.9851 15.1781 28.8967 14.4008 28.7052 13.5947H16.2578V18.4025H23.5642C23.4169 19.5974 22.6215 21.3967 20.8538 22.6058L20.829 22.7668L24.7646 25.7462L25.0373 25.7727C27.5415 23.5127 28.9851 20.1875 28.9851 16.2434Z" fill="#4285F4"/>
<path d="M16.2576 28.9106C19.8371 28.9106 22.8421 27.759 25.037 25.7726L20.8535 22.6056C19.734 23.3686 18.2314 23.9012 16.2576 23.9012C12.7517 23.9012 9.77611 21.6412 8.7154 18.5176L8.55992 18.5305L4.46758 21.6254L4.41406 21.7708C6.59418 26.0028 11.0723 28.9106 16.2576 28.9106Z" fill="#34A853"/>
<path d="M8.71545 18.5175C8.43557 17.7114 8.2736 16.8477 8.2736 15.9552C8.2736 15.0627 8.43557 14.199 8.70072 13.393L8.69331 13.2213L4.54968 10.0767L4.41411 10.1397C3.51558 11.8959 3 13.868 3 15.9552C3 18.0425 3.51558 20.0145 4.41411 21.7707L8.71545 18.5175Z" fill="#FBBC05"/>
<path d="M16.2576 8.00937C18.747 8.00937 20.4263 9.06018 21.3838 9.93833L25.1254 6.36839C22.8275 4.28115 19.8371 3 16.2576 3C11.0723 3 6.59418 5.90773 4.41406 10.1398L8.70068 13.3931C9.77611 10.2694 12.7517 8.00937 16.2576 8.00937Z" fill="#EB4335"/>
</g>
<defs>
<clipPath id="clip0_4910_15709">
<rect width="26" height="26" fill="white" transform="translate(3 3)"/>
</clipPath>
</defs>
</svg>
