<svg width="29" height="24" viewBox="0 0 29 24" fill="none" xmlns="http://www.w3.org/2000/svg">
<path d="M4.14707 8.17406C4.55194 8.53212 5.81825 9.38707 6.61889 8.95425C6.78685 8.86346 7.17077 8.22591 6.99178 7.57462C6.9101 7.26556 6.81705 6.55246 7.09832 6.17254C7.32207 5.9577 7.4968 5.84689 8.6219 6.17254C9.06228 6.33084 10.1263 6.64744 10.8593 6.64744C11.1967 6.60598 11.8523 6.31275 11.7756 5.4715C11.7543 5.20013 11.5412 4.42446 10.8593 3.49275C10.6924 3.13469 10.4204 2.23088 10.6675 1.48009C10.8203 1.09943 11.4048 0.338115 12.5214 0.338115C12.6954 0.334346 13.2076 0.376559 13.8639 0.575565C14.2652 0.767786 15.2575 1.25625 16.0161 1.67235C16.2895 1.81181 17.0325 2.09072 17.8166 2.09072C18.115 2.05303 18.7862 1.94146 19.0845 1.79673C19.3154 1.67612 20.037 1.40098 21.0769 1.26529C21.3468 1.2389 21.925 1.34896 22.0784 2.00025C22.1352 2.27916 22.2148 2.97266 22.0784 3.5154C22.0003 3.79054 21.942 4.44937 22.3341 4.88356C22.4797 5.04943 22.9691 5.38116 23.7618 5.38116C24.4366 5.37363 26.0227 5.46031 26.9688 5.86737C27.5441 6.04828 28.7459 6.80812 28.9505 8.40016C28.986 8.72807 28.9846 9.4472 28.6948 9.70048C28.432 9.91155 27.7934 10.2907 27.3417 10.1188C27.0433 10.0397 26.3572 10.0962 25.9992 10.9556C25.9424 11.0988 25.8202 11.4259 25.7861 11.5888C25.7613 11.7508 25.7499 12.2174 25.9033 12.7873C25.9673 12.9909 26.0759 13.4341 25.9992 13.5788C25.9602 13.658 25.8479 13.8231 25.7115 13.8502C25.502 13.8917 24.9764 14.0311 24.6781 14.4495C24.5751 14.6153 24.4309 15.2478 24.6781 16.4508C24.8379 17.084 25.0872 18.6444 24.8059 19.8204C24.6994 20.1935 24.3883 21.0777 23.9962 21.6295C23.7227 22.0177 22.9862 22.8394 22.2276 23.0203C21.9541 23.0693 21.3049 23.1379 20.8958 23.0203C20.5122 22.8959 19.564 22.3057 18.8395 20.9398C18.5589 20.5139 17.7953 19.8294 16.9856 20.4988C16.0658 21.2714 13.8894 22.9502 12.5427 23.4839C11.8786 23.7364 10.2222 23.9226 8.90957 22.6471C8.53667 22.1911 8.05296 21.0302 9.10135 20.0352C9.65538 19.6583 10.7208 18.7258 10.5503 18.0112C10.4935 17.7022 9.9537 17.1428 8.249 17.378C6.29569 17.6833 2.06092 17.9931 0.748297 16.79C0.183615 16.0852 -0.606941 14.497 0.748297 13.7824C1.67168 13.3225 3.48435 12.1677 3.34799 11.227C3.1278 9.96812 2.97935 7.59514 4.14707 8.17406Z" fill="#540068"/>
</svg>
