<svg width="32" height="32" viewBox="0 0 32 32" fill="none" xmlns="http://www.w3.org/2000/svg">
<path opacity="0.1" fill-rule="evenodd" clip-rule="evenodd" d="M0 16C0 7.16344 7.16344 0 16 0C24.8366 0 32 7.16344 32 16C32 24.8366 24.8366 32 16 32C7.16344 32 0 24.8366 0 16Z" fill="white"/>
<g clip-path="url(#clip0_1961_63407)">
<path d="M16.3634 13.141C14.8025 13.141 13.5288 14.4148 13.5288 15.9756C13.5288 17.5364 14.8025 18.8101 16.3634 18.8101C17.9242 18.8101 19.1979 17.5364 19.1979 15.9756C19.1979 14.4148 17.9242 13.141 16.3634 13.141ZM24.8648 15.9756C24.8648 14.8018 24.8755 13.6386 24.8096 12.467C24.7436 11.106 24.4332 9.89823 23.438 8.90306C22.4407 7.90576 21.235 7.59743 19.8741 7.53151C18.7003 7.46559 17.5371 7.47622 16.3655 7.47622C15.1917 7.47622 14.0285 7.46559 12.8569 7.53151C11.4959 7.59743 10.2881 7.90788 9.29295 8.90306C8.29565 9.90036 7.98732 11.106 7.9214 12.467C7.85548 13.6408 7.86611 14.8039 7.86611 15.9756C7.86611 17.1473 7.85548 18.3125 7.9214 19.4842C7.98732 20.8451 8.29778 22.0529 9.29295 23.0481C10.2902 24.0454 11.4959 24.3537 12.8569 24.4197C14.0307 24.4856 15.1938 24.475 16.3655 24.475C17.5393 24.475 18.7024 24.4856 19.8741 24.4197C21.235 24.3537 22.4428 24.0433 23.438 23.0481C24.4353 22.0508 24.7436 20.8451 24.8096 19.4842C24.8776 18.3125 24.8648 17.1494 24.8648 15.9756ZM16.3634 20.3369C13.9498 20.3369 12.002 18.3891 12.002 15.9756C12.002 13.5621 13.9498 11.6143 16.3634 11.6143C18.7769 11.6143 20.7247 13.5621 20.7247 15.9756C20.7247 18.3891 18.7769 20.3369 16.3634 20.3369ZM20.9033 12.4542C20.3398 12.4542 19.8847 11.9991 19.8847 11.4356C19.8847 10.8721 20.3398 10.4171 20.9033 10.4171C21.4668 10.4171 21.9219 10.8721 21.9219 11.4356C21.922 11.5695 21.8958 11.702 21.8447 11.8256C21.7935 11.9493 21.7185 12.0616 21.6239 12.1563C21.5293 12.2509 21.4169 12.3259 21.2933 12.377C21.1696 12.4281 21.0371 12.4544 20.9033 12.4542Z" fill="white"/>
</g>
<defs>
<clipPath id="clip0_1961_63407">
<rect width="18" height="18" fill="white" transform="translate(7 6.61182)"/>
</clipPath>
</defs>
</svg>
