<svg width="24" height="24" viewBox="0 0 24 24" fill="none" xmlns="http://www.w3.org/2000/svg">
<path d="M17.6451 12.636C17.6216 10.1093 19.7865 8.88002 19.8855 8.82279C18.6594 7.09573 16.7591 6.85976 16.0913 6.84094C14.4952 6.67866 12.947 7.76366 12.1339 7.76366C11.3046 7.76366 10.0526 6.85662 8.70319 6.88328C6.96673 6.90915 5.34225 7.88047 4.4513 9.38881C2.6126 12.4643 3.98392 16.9838 5.74553 19.4697C6.62674 20.6872 7.65645 22.0466 9.00423 21.9988C10.3228 21.9462 10.8153 21.1866 12.4066 21.1866C13.9832 21.1866 14.4457 21.9988 15.8202 21.9682C17.2354 21.9462 18.1263 20.7452 18.9767 19.5168C19.995 18.1213 20.404 16.747 20.4202 16.6765C20.387 16.6655 17.6719 15.6644 17.6451 12.636Z" fill="white"/>
<path d="M15.0486 5.20561C15.7578 4.34874 16.243 3.18299 16.1083 2C15.0818 2.0439 13.7982 2.68596 13.0589 3.52402C12.4049 4.2625 11.8207 5.47293 11.9716 6.61124C13.1247 6.69434 14.3085 6.04914 15.0486 5.20561Z" fill="white"/>
</svg>
