<svg width="34" height="34" viewBox="0 0 34 34" fill="none" xmlns="http://www.w3.org/2000/svg">
<mask id="path-1-outside-1_1961_63800" maskUnits="userSpaceOnUse" x="0" y="0" width="34" height="34" fill="black">
<rect fill="white" width="34" height="34"/>
<path fill-rule="evenodd" clip-rule="evenodd" d="M17 1C8.16344 1 1 8.16344 1 17C1 25.8366 8.16344 33 17 33C25.8366 33 33 25.8366 33 17C33 8.16344 25.8366 1 17 1ZM11.5 9C10.1193 9 9 10.1193 9 11.5V13.5C9 14.8807 10.1193 16 11.5 16C12.8807 16 14 14.8807 14 13.5V11.5C14 10.1193 12.8807 9 11.5 9ZM20 11.5C20 10.1193 21.1193 9 22.5 9C23.8807 9 25 10.1193 25 11.5V13.5C25 14.8807 23.8807 16 22.5 16C21.1193 16 20 14.8807 20 13.5V11.5ZM9.68571 20C9.307 20 9 20.307 9 20.6857C9 24.7253 12.2747 28 16.3143 28H17.6857C21.7253 28 25 24.7253 25 20.6857C25 20.307 24.693 20 24.3143 20H9.68571Z"/>
</mask>
<path fill-rule="evenodd" clip-rule="evenodd" d="M17 1C8.16344 1 1 8.16344 1 17C1 25.8366 8.16344 33 17 33C25.8366 33 33 25.8366 33 17C33 8.16344 25.8366 1 17 1ZM11.5 9C10.1193 9 9 10.1193 9 11.5V13.5C9 14.8807 10.1193 16 11.5 16C12.8807 16 14 14.8807 14 13.5V11.5C14 10.1193 12.8807 9 11.5 9ZM20 11.5C20 10.1193 21.1193 9 22.5 9C23.8807 9 25 10.1193 25 11.5V13.5C25 14.8807 23.8807 16 22.5 16C21.1193 16 20 14.8807 20 13.5V11.5ZM9.68571 20C9.307 20 9 20.307 9 20.6857C9 24.7253 12.2747 28 16.3143 28H17.6857C21.7253 28 25 24.7253 25 20.6857C25 20.307 24.693 20 24.3143 20H9.68571Z" fill="white"/>
<path d="M2 17C2 8.71573 8.71573 2 17 2V0C7.61116 0 0 7.61116 0 17H2ZM17 32C8.71573 32 2 25.2843 2 17H0C0 26.3888 7.61116 34 17 34V32ZM32 17C32 25.2843 25.2843 32 17 32V34C26.3888 34 34 26.3888 34 17H32ZM17 2C25.2843 2 32 8.71573 32 17H34C34 7.61116 26.3888 0 17 0V2ZM10 11.5C10 10.6716 10.6716 10 11.5 10V8C9.567 8 8 9.567 8 11.5H10ZM10 13.5V11.5H8V13.5H10ZM11.5 15C10.6716 15 10 14.3284 10 13.5H8C8 15.433 9.567 17 11.5 17V15ZM13 13.5C13 14.3284 12.3284 15 11.5 15V17C13.433 17 15 15.433 15 13.5H13ZM13 11.5V13.5H15V11.5H13ZM11.5 10C12.3284 10 13 10.6716 13 11.5H15C15 9.567 13.433 8 11.5 8V10ZM22.5 8C20.567 8 19 9.567 19 11.5H21C21 10.6716 21.6716 10 22.5 10V8ZM26 11.5C26 9.567 24.433 8 22.5 8V10C23.3284 10 24 10.6716 24 11.5H26ZM26 13.5V11.5H24V13.5H26ZM22.5 17C24.433 17 26 15.433 26 13.5H24C24 14.3284 23.3284 15 22.5 15V17ZM19 13.5C19 15.433 20.567 17 22.5 17V15C21.6716 15 21 14.3284 21 13.5H19ZM19 11.5V13.5H21V11.5H19ZM10 20.6857C10 20.8593 9.85929 21 9.68571 21V19C8.75472 19 8 19.7547 8 20.6857H10ZM16.3143 27C12.827 27 10 24.173 10 20.6857H8C8 25.2776 11.7224 29 16.3143 29V27ZM17.6857 27H16.3143V29H17.6857V27ZM24 20.6857C24 24.173 21.173 27 17.6857 27V29C22.2776 29 26 25.2776 26 20.6857H24ZM24.3143 21C24.1407 21 24 20.8593 24 20.6857H26C26 19.7547 25.2453 19 24.3143 19V21ZM9.68571 21H24.3143V19H9.68571V21Z" fill="black" mask="url(#path-1-outside-1_1961_63800)"/>
</svg>
