<?xml version="1.0" encoding="UTF-8"?>
<!DOCTYPE svg PUBLIC "-//W3C//DTD SVG 1.1//EN" "http://www.w3.org/Graphics/SVG/1.1/DTD/svg11.dtd">
<svg xmlns="http://www.w3.org/2000/svg" version="1.1" width="128px" height="128px" style="shape-rendering:geometricPrecision; text-rendering:geometricPrecision; image-rendering:optimizeQuality; fill-rule:evenodd; clip-rule:evenodd" xmlns:xlink="http://www.w3.org/1999/xlink">
<g><path style="opacity:0.296" fill="#fefffe" d="M 43.5,-0.5 C 56.8333,-0.5 70.1667,-0.5 83.5,-0.5C 83.5,0.833333 83.5,2.16667 83.5,3.5C 87.5,3.5 91.5,3.5 95.5,3.5C 95.5,4.83333 95.5,6.16667 95.5,7.5C 96.8333,7.5 98.1667,7.5 99.5,7.5C 99.5,8.83333 99.5,10.1667 99.5,11.5C 102.167,11.5 104.833,11.5 107.5,11.5C 107.5,12.8333 107.5,14.1667 107.5,15.5C 108.833,15.5 110.167,15.5 111.5,15.5C 111.5,16.8333 111.5,18.1667 111.5,19.5C 112.833,19.5 114.167,19.5 115.5,19.5C 115.5,22.1667 115.5,24.8333 115.5,27.5C 116.833,27.5 118.167,27.5 119.5,27.5C 119.5,28.8333 119.5,30.1667 119.5,31.5C 120.833,31.5 122.167,31.5 123.5,31.5C 123.5,35.5 123.5,39.5 123.5,43.5C 124.833,43.5 126.167,43.5 127.5,43.5C 127.5,56.8333 127.5,70.1667 127.5,83.5C 126.167,83.5 124.833,83.5 123.5,83.5C 123.5,87.5 123.5,91.5 123.5,95.5C 122.167,95.5 120.833,95.5 119.5,95.5C 119.5,96.8333 119.5,98.1667 119.5,99.5C 118.167,99.5 116.833,99.5 115.5,99.5C 115.5,102.167 115.5,104.833 115.5,107.5C 114.167,107.5 112.833,107.5 111.5,107.5C 111.5,108.833 111.5,110.167 111.5,111.5C 110.167,111.5 108.833,111.5 107.5,111.5C 107.5,112.833 107.5,114.167 107.5,115.5C 104.833,115.5 102.167,115.5 99.5,115.5C 99.5,116.833 99.5,118.167 99.5,119.5C 98.1667,119.5 96.8333,119.5 95.5,119.5C 95.5,120.833 95.5,122.167 95.5,123.5C 91.5,123.5 87.5,123.5 83.5,123.5C 83.5,124.833 83.5,126.167 83.5,127.5C 70.1667,127.5 56.8333,127.5 43.5,127.5C 43.5,126.167 43.5,124.833 43.5,123.5C 39.5,123.5 35.5,123.5 31.5,123.5C 31.5,122.167 31.5,120.833 31.5,119.5C 30.1667,119.5 28.8333,119.5 27.5,119.5C 27.5,118.167 27.5,116.833 27.5,115.5C 24.8333,115.5 22.1667,115.5 19.5,115.5C 19.5,114.167 19.5,112.833 19.5,111.5C 18.1667,111.5 16.8333,111.5 15.5,111.5C 15.5,110.167 15.5,108.833 15.5,107.5C 14.1667,107.5 12.8333,107.5 11.5,107.5C 11.5,104.833 11.5,102.167 11.5,99.5C 10.1667,99.5 8.83333,99.5 7.5,99.5C 7.5,98.1667 7.5,96.8333 7.5,95.5C 6.16667,95.5 4.83333,95.5 3.5,95.5C 3.5,91.5 3.5,87.5 3.5,83.5C 2.16667,83.5 0.833333,83.5 -0.5,83.5C -0.5,70.1667 -0.5,56.8333 -0.5,43.5C 0.833333,43.5 2.16667,43.5 3.5,43.5C 3.5,39.5 3.5,35.5 3.5,31.5C 4.83333,31.5 6.16667,31.5 7.5,31.5C 7.5,28.8333 7.5,26.1667 7.5,23.5C 8.83333,23.5 10.1667,23.5 11.5,23.5C 11.5,22.1667 11.5,20.8333 11.5,19.5C 12.8333,19.5 14.1667,19.5 15.5,19.5C 15.5,18.1667 15.5,16.8333 15.5,15.5C 16.8333,15.5 18.1667,15.5 19.5,15.5C 19.5,14.1667 19.5,12.8333 19.5,11.5C 22.1667,11.5 24.8333,11.5 27.5,11.5C 27.5,10.1667 27.5,8.83333 27.5,7.5C 28.8333,7.5 30.1667,7.5 31.5,7.5C 31.5,6.16667 31.5,4.83333 31.5,3.5C 35.5,3.5 39.5,3.5 43.5,3.5C 43.5,2.16667 43.5,0.833333 43.5,-0.5 Z"/></g>
</svg>
