<svg width="500" height="220" viewBox="0 0 500 220" fill="none" xmlns="http://www.w3.org/2000/svg">
<path d="M21.077 157.805L24.3171 164.025C26.4772 168.082 31.6101 171.057 37.2777 171.057C48.0781 171.057 54.5691 161.862 54.5691 151.051C54.5691 142.937 51.8636 136.996 47.2761 131.58C44.8487 128.872 41.8759 126.442 39.1704 124.012C35.9303 121.582 32.4121 118.874 28.9046 116.166C15.1314 105.076 0 91.557 0 63.437C0 41.2685 19.1735 18.8218 47.2654 18.8218C60.504 18.8218 79.4102 25.5761 84.2758 39.3739L85.3558 42.082L82.9284 43.9767C78.0628 48.0336 72.9299 52.0905 67.5297 56.1474L62.6641 59.6584L59.424 54.788C57.5312 51.8122 55.1038 50.4635 52.131 50.4635C43.4906 50.4635 38.8924 56.415 38.8924 65.064C38.8924 68.0398 39.4377 70.7373 40.5178 73.1778C41.5978 75.6077 44.0253 78.0482 46.7308 80.7457C49.7036 83.1756 52.3983 85.8838 55.1038 87.7784C59.1566 91.2894 63.2095 94.2651 66.717 97.7868C70.7698 101.298 74.8227 104.82 78.0628 108.598C85.0885 116.166 90.4887 124.826 92.9161 135.637C93.7288 139.694 93.9962 144.286 93.9962 148.611C93.9962 173.755 76.17 204.305 40.5178 204.305C23.7717 204.305 7.02564 193.493 1.89274 179.428L0.812719 176.998L21.077 157.805Z" fill="#E9E9E9"/>
<path d="M104.712 59.2046L146.31 60.0181L143.337 210.894H101.74L104.712 59.2046Z" fill="#E9E9E9"/>
<path d="M164.447 9.09668H201.992V16.9429C208.75 13.4319 216.311 11.5372 224.416 11.5372C243.322 11.5372 254.936 24.2432 261.694 37.495C268.442 51.2821 271.147 67.2421 271.147 78.321C271.147 106.173 257.908 140.234 220.631 147.813C217.391 148.626 214.15 148.894 210.91 148.894C207.403 148.894 203.617 148.348 199.832 147.267L199.019 197.02H157.421L164.447 9.09668ZM201.725 81.8319C201.457 87.7835 200.645 93.7243 200.645 99.9435C200.645 104 201.457 108.593 203.617 111.836C205.51 115.347 208.205 116.974 211.456 116.974C213.616 116.974 215.509 116.16 218.214 114.812C224.16 111.022 227.934 104.268 230.373 95.3407C232.533 86.9593 232.8 77.2291 232.8 70.1964C232.8 59.6528 226.587 48.8308 217.947 48.8308C214.161 48.8308 211.188 50.7254 208.494 54.504C205.788 58.2933 203.906 63.1531 203.093 67.21C202.548 69.3722 202.281 71.5345 202.013 73.9643C201.992 76.4263 201.992 79.1345 201.725 81.8319Z" fill="#E9E9E9"/>
<path d="M282 49.1255H316.85V55.6122C322.796 52.9041 329.276 51.2877 336.302 51.2877C353.315 51.2877 363.849 62.6449 370.061 74.8156C376.007 87.254 378.434 101.587 378.434 111.049C378.434 136.74 366.554 166.476 332.784 173.509C329.811 174.322 327.116 174.59 324.143 174.59C320.903 174.59 317.663 174.322 315.225 173.241L314.412 217.589H275.787L282 49.1255ZM329.811 143.494C340.89 136.74 342.772 119.966 342.772 106.179C342.772 101.855 341.959 96.1706 339.799 92.1137C337.639 87.7892 334.666 85.8945 330.346 85.8945C324.4 85.8945 319.813 91.3002 317.385 102.925C315.492 113.469 315.76 125.639 315.76 130.777C315.76 138.891 319.545 144.843 325.48 144.843C326.838 144.843 328.464 144.575 329.811 143.494Z" fill="#E9E9E9"/>
<path d="M362.892 31.4274C363.341 22.7142 363.79 14.0116 364.24 5.33049C336.864 -13.9585 309.499 26.7818 282.124 7.49277C282.124 15.6922 282.124 23.8916 282.124 32.1018C309.05 51.8618 335.977 13.5728 362.892 31.4274Z" fill="#F6C644"/>
<path d="M414.356 150.781L417.061 155.919C421.114 163.219 426.782 168.357 434.62 168.357C437.325 168.357 440.565 166.73 444.073 162.952C447.046 159.441 449.473 155.105 450.831 151.594C452.991 146.724 453.804 141.586 454.617 135.913C454.884 134.018 455.162 132.402 455.162 130.507C448.949 134.018 441.924 136.18 434.096 136.18C392.765 136.18 382.232 88.8676 382.232 65.6073C382.232 52.0879 384.938 37.7549 390.338 25.049L391.685 22.0732L424.097 20.1786L422.472 26.1301C419.499 36.6738 418.152 47.4957 418.152 58.307C418.152 65.0614 418.964 76.151 422.472 85.3459C425.979 95.0761 431.39 100.482 438.951 100.482C444.896 100.482 449.217 97.5059 452.724 92.1003C456.232 86.427 457.857 79.3943 458.124 73.9887C458.67 67.7696 458.392 61.5504 458.67 55.5988C458.937 43.9741 459.482 32.3493 459.75 20.7245V16.4L500 15.5864V20.1786C500 43.7064 499.455 67.2236 498.92 90.7515C498.375 106.979 497.84 123.464 495.947 139.959C493.52 161.592 484.601 186.19 459.75 198.629C452.724 202.14 444.351 204.58 435.443 204.58C411.671 204.58 393.311 189.712 386.018 171.59L384.67 168.079L414.356 150.781Z" fill="#E9E9E9"/>
<path d="M211.577 81.0506V81.5349C208.081 81.9744 205.302 84.7158 204.803 88.1926H204.196C203.693 84.7158 200.915 81.9773 197.421 81.5349V81.0506C201.034 80.5932 203.885 77.6814 204.24 74.0371H204.764C205.114 77.6814 207.964 80.5932 211.577 81.0506Z" fill="#F86E33"/>
</svg>
