<svg width="92" height="40" viewBox="0 0 92 40" fill="none" xmlns="http://www.w3.org/2000/svg">
<path d="M3.87816 29.0064L4.47434 30.1496C4.8718 30.8953 5.81625 31.4423 6.85909 31.4423C8.84637 31.4423 10.0407 29.7522 10.0407 27.7649C10.0407 26.2734 9.54291 25.1814 8.6988 24.1858C8.25216 23.688 7.70516 23.2413 7.20736 22.7947C6.61117 22.348 5.96383 21.8502 5.31845 21.3524C2.78417 19.314 0 16.8289 0 11.66C0 7.58506 3.52793 3.45898 8.69684 3.45898C11.1327 3.45898 14.6115 4.70054 15.5067 7.23679L15.7055 7.7346L15.2588 8.08287C14.3636 8.82859 13.4191 9.57432 12.4255 10.32L11.5302 10.9654L10.934 10.0702C10.5857 9.52316 10.1391 9.27524 9.5921 9.27524C8.00227 9.27524 7.1562 10.3692 7.1562 11.9591C7.1562 12.5061 7.25655 13.0019 7.45527 13.4505C7.654 13.8972 8.10066 14.3458 8.59846 14.8416C9.14546 15.2883 9.64129 15.7861 10.1391 16.1343C10.8848 16.7797 11.6305 17.3267 12.2759 17.974C13.0216 18.6194 13.7674 19.2668 14.3636 19.9613C15.6563 21.3524 16.6499 22.9442 17.0966 24.9315C17.2461 25.6772 17.2953 26.5213 17.2953 27.3163C17.2953 31.9382 14.0153 37.5537 7.45527 37.5537C4.374 37.5537 1.29272 35.5665 0.348265 32.981L0.14954 32.5344L3.87816 29.0064Z" fill="#F4F4F4"/>
<path d="M19.2658 10.8828L26.9198 11.0324L26.3728 38.7658H18.7188L19.2658 10.8828Z" fill="#F4F4F4"/>
<path d="M30.2576 1.67188H37.1658V3.11414C38.4094 2.46876 39.8005 2.12049 41.2919 2.12049C44.7707 2.12049 46.9075 4.45604 48.151 6.89195C49.3926 9.42623 49.8904 12.3599 49.8904 14.3964C49.8904 19.5161 47.4545 25.7771 40.5954 27.1701C39.9992 27.3197 39.403 27.3689 38.8068 27.3689C38.1615 27.3689 37.4649 27.2685 36.7684 27.0698L36.6188 36.2153H28.9648L30.2576 1.67188ZM37.1167 15.0418C37.0675 16.1358 36.9179 17.2278 36.9179 18.371C36.9179 19.1167 37.0675 19.9608 37.4649 20.557C37.8132 21.2024 38.309 21.5015 38.9072 21.5015C39.3046 21.5015 39.6529 21.3519 40.1507 21.104C41.2447 20.4075 41.9393 19.1659 42.3879 17.5249C42.7853 15.9843 42.8345 14.1957 42.8345 12.903C42.8345 10.9649 41.6914 8.97565 40.1015 8.97565C39.405 8.97565 38.858 9.32392 38.3622 10.0185C37.8643 10.715 37.5181 11.6083 37.3685 12.354C37.2682 12.7515 37.219 13.149 37.1698 13.5956C37.1658 14.0481 37.1658 14.546 37.1167 15.0418Z" fill="#F4F4F4"/>
<path d="M51.8893 9.0293H58.3017V10.2217C59.3957 9.72386 60.5881 9.42675 61.8808 9.42675C65.0113 9.42675 66.9494 11.5144 68.0926 13.7516C69.1865 16.0379 69.6332 18.6726 69.6332 20.4119C69.6332 25.1342 67.4472 30.6002 61.2335 31.8929C60.6865 32.0425 60.1906 32.0917 59.6436 32.0917C59.0474 32.0917 58.4513 32.0425 58.0026 31.8437L57.8531 39.9956H50.7461L51.8893 9.0293ZM60.6865 26.3757C62.7249 25.1342 63.0712 22.0509 63.0712 19.5167C63.0712 18.7217 62.9217 17.6769 62.5242 16.9312C62.1267 16.1363 61.5798 15.788 60.7848 15.788C59.6909 15.788 58.8468 16.7817 58.4001 18.9185C58.0518 20.8566 58.101 23.0938 58.101 24.0382C58.101 25.5297 58.7976 26.6237 59.8896 26.6237C60.1395 26.6237 60.4385 26.5745 60.6865 26.3757Z" fill="#F4F4F4"/>
<path d="M66.7715 5.77687C66.8542 4.17523 66.9368 2.57556 67.0194 0.979831C61.9824 -2.5658 56.9472 4.92293 51.9102 1.37729C51.9102 2.88448 51.9102 4.39167 51.9102 5.90083C56.8646 9.53304 61.819 2.49489 66.7715 5.77687Z" fill="#540068"/>
<path d="M76.2427 27.7162L76.7405 28.6606C77.4863 30.0025 78.5291 30.947 79.9714 30.947C80.4692 30.947 81.0654 30.6479 81.7107 29.9533C82.2577 29.308 82.7044 28.5111 82.9543 27.8657C83.3517 26.9704 83.5013 26.026 83.6508 24.9832C83.7 24.6349 83.7511 24.3378 83.7511 23.9895C82.608 24.6349 81.3152 25.0323 79.8749 25.0323C72.2701 25.0323 70.332 16.3355 70.332 12.0599C70.332 9.57479 70.8298 6.94016 71.8235 4.6046L72.0714 4.05761L78.0352 3.70934L77.7362 4.80333C77.1892 6.74143 76.9412 8.73068 76.9412 10.718C76.9412 11.9595 77.0908 13.998 77.7362 15.6882C78.3815 17.4767 79.3771 18.4704 80.7682 18.4704C81.8622 18.4704 82.6572 17.9234 83.3025 16.9297C83.9479 15.8869 84.247 14.5942 84.2962 13.6005C84.3965 12.4573 84.3454 11.3142 84.3965 10.2202C84.4457 8.08334 84.5461 5.94652 84.5953 3.80969V3.01477L92.0013 2.86523V3.70934C92.0013 8.03415 91.901 12.357 91.8026 16.6818C91.7023 19.6647 91.6039 22.6948 91.2556 25.7269C90.809 29.7034 89.168 34.225 84.5953 36.5114C83.3025 37.1568 81.7619 37.6054 80.1229 37.6054C75.7489 37.6054 72.3705 34.8724 71.0286 31.5412L70.7807 30.8958L76.2427 27.7162Z" fill="#F4F4F4"/>
<path d="M26.2649 5.32262V5.56743C24.4976 5.78958 23.0931 7.17535 22.8406 8.93288H22.5337C22.2797 7.17535 20.8752 5.79109 19.1094 5.56743V5.32262C20.9357 5.09141 22.3765 3.6195 22.5564 1.77734H22.8209C22.9978 3.6195 24.4386 5.09141 26.2649 5.32262Z" fill="#E77644"/>
</svg>
