<svg width="116" height="120" viewBox="0 0 116 120" fill="none" xmlns="http://www.w3.org/2000/svg">
<path d="M48.6708 6.60413C52.2022 -1.57356 63.7978 -1.57356 67.3292 6.60413C69.7569 12.2263 76.5691 14.4397 81.8379 11.3183C89.5015 6.77806 98.8826 13.5938 96.9328 22.2854C95.5922 28.2608 99.8024 34.0556 105.9 34.6272C114.768 35.4586 118.352 46.4868 111.665 52.3723C107.069 56.4186 107.069 63.5814 111.665 67.6277C118.352 73.5132 114.768 84.5414 105.9 85.3728C99.8024 85.9444 95.5922 91.7392 96.9328 97.7146C98.8826 106.406 89.5015 113.222 81.8379 108.682C76.5691 105.56 69.7569 107.774 67.3292 113.396C63.7978 121.574 52.2021 121.574 48.6708 113.396C46.2431 107.774 39.4309 105.56 34.1621 108.682C26.4985 113.222 17.1174 106.406 19.0672 97.7146C20.4077 91.7392 16.1976 85.9444 10.1004 85.3728C1.2317 84.5414 -2.35157 73.5132 4.33464 67.6277C8.93139 63.5814 8.9314 56.4186 4.33464 52.3723C-2.35157 46.4868 1.2317 35.4586 10.1004 34.6272C16.1976 34.0556 20.4077 28.2608 19.0672 22.2854C17.1174 13.5938 26.4985 6.77805 34.1621 11.3183C39.4309 14.4397 46.2431 12.2263 48.6708 6.60413Z" fill="#DFF247"/>
</svg>
