<svg width="24" height="24" viewBox="0 0 24 24" fill="none" xmlns="http://www.w3.org/2000/svg">
<path d="M2.9109 2.85667C2.68527 3.08228 2.55469 3.43353 2.55469 3.88842V20.114C2.55469 20.5689 2.68527 20.9202 2.9109 21.1458L2.96659 21.1953L12.4854 12.1067V11.8921L2.96659 2.80347L2.9109 2.85667Z" fill="white"/>
<path d="M16.8061 15.1367L13.6367 12.1057V11.891L16.81 8.85998L16.881 8.89942L20.639 10.9418C21.7115 11.5214 21.7115 12.4752 20.639 13.0585L16.881 15.0973L16.8061 15.1367Z" fill="white"/>
<path d="M16.3071 15.6618L13.0628 12.5628L3.48828 21.7092C3.84449 22.0669 4.42538 22.11 5.08595 21.7523L16.3071 15.6618Z" fill="white"/>
<path d="M16.3071 8.33466L5.08595 2.2441C4.42538 1.89009 3.84449 1.93319 3.48828 2.29087L13.0628 11.4336L16.3071 8.33466Z" fill="white"/>
</svg>
