<svg width="20" height="20" viewBox="0 0 20 20" fill="none" xmlns="http://www.w3.org/2000/svg">
<path d="M17.3438 10C17.3438 10.1243 17.2944 10.2435 17.2065 10.3315C17.1185 10.4194 16.9993 10.4688 16.875 10.4688H10.4688V16.875C10.4688 16.9993 10.4194 17.1185 10.3315 17.2065C10.2435 17.2944 10.1243 17.3438 10 17.3438C9.87568 17.3438 9.75645 17.2944 9.66854 17.2065C9.58064 17.1185 9.53125 16.9993 9.53125 16.875V10.4688H3.125C3.00068 10.4688 2.88145 10.4194 2.79354 10.3315C2.70564 10.2435 2.65625 10.1243 2.65625 10C2.65625 9.87568 2.70564 9.75645 2.79354 9.66854C2.88145 9.58064 3.00068 9.53125 3.125 9.53125H9.53125V3.125C9.53125 3.00068 9.58064 2.88145 9.66854 2.79354C9.75645 2.70564 9.87568 2.65625 10 2.65625C10.1243 2.65625 10.2435 2.70564 10.3315 2.79354C10.4194 2.88145 10.4688 3.00068 10.4688 3.125V9.53125H16.875C16.9993 9.53125 17.1185 9.58064 17.2065 9.66854C17.2944 9.75645 17.3438 9.87568 17.3438 10Z" fill="#0B0A0A"/>
</svg>
