<svg width="64" height="64" viewBox="0 0 64 64" fill="none" xmlns="http://www.w3.org/2000/svg">
<path d="M31.9987 5.33301C25.012 5.33301 19.332 11.013 19.332 17.9997C19.332 24.853 24.692 30.3997 31.6787 30.6397C31.892 30.613 32.1054 30.613 32.2654 30.6397C32.3187 30.6397 32.3454 30.6397 32.3987 30.6397C32.4254 30.6397 32.4254 30.6397 32.452 30.6397C39.2787 30.3997 44.6387 24.853 44.6654 17.9997C44.6654 11.013 38.9854 5.33301 31.9987 5.33301Z" fill="#E77644"/>
<path d="M45.5466 37.7337C38.1066 32.7737 25.9732 32.7737 18.4799 37.7337C15.0932 40.0003 13.2266 43.067 13.2266 46.347C13.2266 49.627 15.0932 52.667 18.4532 54.907C22.1866 57.4137 27.0932 58.667 31.9999 58.667C36.9066 58.667 41.8132 57.4137 45.5466 54.907C48.9066 52.6403 50.7732 49.6003 50.7732 46.2937C50.7466 43.0137 48.9066 39.9737 45.5466 37.7337Z" fill="#E77644"/>
</svg>
