<svg width="40" height="40" viewBox="0 0 40 40" fill="none" xmlns="http://www.w3.org/2000/svg">
<path d="M20.2682 18.1163C20.1016 18.0997 19.9016 18.0997 19.7182 18.1163C15.7516 17.983 12.6016 14.733 12.6016 10.733C12.6016 6.64967 15.9016 3.33301 20.0016 3.33301C24.0849 3.33301 27.4016 6.64967 27.4016 10.733C27.3849 14.733 24.2349 17.983 20.2682 18.1163Z" stroke="#0B0A0A" stroke-width="1.5" stroke-linecap="round" stroke-linejoin="round"/>
<path d="M11.9352 24.267C7.90182 26.967 7.90182 31.367 11.9352 34.0503C16.5185 37.117 24.0352 37.117 28.6185 34.0503C32.6518 31.3503 32.6518 26.9503 28.6185 24.267C24.0518 21.217 16.5352 21.217 11.9352 24.267Z" stroke="#0B0A0A" stroke-width="1.5" stroke-linecap="round" stroke-linejoin="round"/>
</svg>
