<svg width="64" height="64" viewBox="0 0 64 64" fill="none" xmlns="http://www.w3.org/2000/svg">
<path d="M58.6654 31.9997C58.6654 17.3063 46.692 5.33301 31.9987 5.33301C17.3054 5.33301 5.33203 17.3063 5.33203 31.9997C5.33203 39.733 8.66536 46.693 13.9454 51.573C13.9454 51.5997 13.9454 51.5997 13.9187 51.6263C14.1854 51.893 14.5054 52.1063 14.772 52.3463C14.932 52.4797 15.0654 52.613 15.2254 52.7197C15.7054 53.1197 16.2387 53.493 16.7454 53.8663C16.932 53.9997 17.092 54.1063 17.2787 54.2397C17.7854 54.5863 18.3187 54.9063 18.8787 55.1997C19.0654 55.3063 19.2787 55.4397 19.4654 55.5463C19.9987 55.8397 20.5587 56.1063 21.1454 56.3463C21.3587 56.453 21.572 56.5597 21.7854 56.6397C22.372 56.8797 22.9587 57.093 23.5454 57.2797C23.7587 57.3597 23.972 57.4397 24.1854 57.493C24.8254 57.6797 25.4654 57.8397 26.1054 57.9997C26.292 58.053 26.4787 58.1063 26.692 58.133C27.4387 58.293 28.1854 58.3997 28.9587 58.4797C29.0654 58.4797 29.172 58.5063 29.2787 58.533C30.1854 58.613 31.092 58.6663 31.9987 58.6663C32.9054 58.6663 33.812 58.613 34.692 58.533C34.7987 58.533 34.9054 58.5063 35.012 58.4797C35.7854 58.3997 36.532 58.293 37.2787 58.133C37.4654 58.1063 37.652 58.0263 37.8654 57.9997C38.5054 57.8397 39.172 57.7063 39.7854 57.493C39.9987 57.413 40.212 57.333 40.4254 57.2797C41.012 57.0663 41.6254 56.8797 42.1854 56.6397C42.3987 56.5597 42.612 56.453 42.8254 56.3463C43.3854 56.1063 43.9454 55.8397 44.5054 55.5463C44.7187 55.4397 44.9054 55.3063 45.092 55.1997C45.6254 54.8797 46.1587 54.5863 46.692 54.2397C46.8787 54.133 47.0387 53.9997 47.2254 53.8663C47.7587 53.493 48.2654 53.1197 48.7454 52.7197C48.9054 52.5863 49.0387 52.453 49.1987 52.3463C49.492 52.1063 49.7854 51.8663 50.052 51.6263C50.052 51.5997 50.052 51.5997 50.0254 51.573C55.332 46.693 58.6654 39.733 58.6654 31.9997ZM45.172 45.253C37.9454 40.3997 26.1054 40.3997 18.8254 45.253C17.652 46.0263 16.692 46.933 15.892 47.9197C11.8387 43.813 9.33203 38.1863 9.33203 31.9997C9.33203 19.493 19.492 9.33301 31.9987 9.33301C44.5054 9.33301 54.6654 19.493 54.6654 31.9997C54.6654 38.1863 52.1587 43.813 48.1054 47.9197C47.332 46.933 46.3454 46.0263 45.172 45.253Z" fill="#669F2A"/>
<path d="M32 18.4805C26.48 18.4805 22 22.9605 22 28.4805C22 33.8938 26.24 38.2938 31.8667 38.4538C31.9467 38.4538 32.0533 38.4538 32.1067 38.4538C32.16 38.4538 32.24 38.4538 32.2933 38.4538C32.32 38.4538 32.3467 38.4538 32.3467 38.4538C37.7333 38.2671 41.9733 33.8938 42 28.4805C42 22.9605 37.52 18.4805 32 18.4805Z" fill="#669F2A"/>
</svg>
