<svg width="33" height="32" viewBox="0 0 33 32" fill="none" xmlns="http://www.w3.org/2000/svg">
<path d="M27.1667 15.9993V23.9993C27.1667 26.946 24.78 29.3327 21.8334 29.3327H11.1667C8.22004 29.3327 5.83337 26.946 5.83337 23.9993V15.9993C5.83337 15.266 6.43337 14.666 7.16671 14.666H9.79337C10.5267 14.666 11.1267 15.266 11.1267 15.9993V20.186C11.1267 21.1727 11.6734 22.0793 12.54 22.546C12.9267 22.7593 13.3534 22.866 13.7934 22.866C14.3 22.866 14.8067 22.7193 15.2467 22.426L16.5134 21.5993L17.6867 22.386C18.5 22.9327 19.54 22.9993 20.4067 22.5327C21.2867 22.066 21.8334 21.1727 21.8334 20.1727V15.9993C21.8334 15.266 22.4334 14.666 23.1667 14.666H25.8334C26.5667 14.666 27.1667 15.266 27.1667 15.9993Z" fill="#FF6B00"/>
<path d="M29.1667 9.33268V10.666C29.1667 12.1327 28.46 13.3327 26.5 13.3327H6.50004C4.46004 13.3327 3.83337 12.1327 3.83337 10.666V9.33268C3.83337 7.86602 4.46004 6.66602 6.50004 6.66602H26.5C28.46 6.66602 29.1667 7.86602 29.1667 9.33268Z" fill="#FF6B00"/>
<path d="M16.02 6.66659H8.66C8.20666 6.17325 8.22 5.41326 8.7 4.93326L10.5933 3.03992C11.0867 2.54659 11.9 2.54659 12.3933 3.03992L16.02 6.66659Z" fill="#FF6B00"/>
<path d="M24.3267 6.66659H16.9667L20.5933 3.03992C21.0867 2.54659 21.9 2.54659 22.3933 3.03992L24.2867 4.93326C24.7667 5.41326 24.78 6.17325 24.3267 6.66659Z" fill="#FF6B00"/>
<path d="M19.1267 14.666C19.86 14.666 20.46 15.266 20.46 15.9993V20.1727C20.46 21.2393 19.2734 21.8793 18.3934 21.2793L17.1934 20.4793C16.7534 20.186 16.18 20.186 15.7267 20.4793L14.4734 21.306C13.5934 21.8927 12.42 21.2527 12.42 20.1993V15.9993C12.42 15.266 13.02 14.666 13.7534 14.666H19.1267Z" fill="#FF6B00"/>
</svg>
