<svg width="48" height="54" viewBox="0 0 48 54" fill="none" xmlns="http://www.w3.org/2000/svg">
<path d="M22.1728 1.66406C23.2504 0.836521 24.7496 0.836521 25.8272 1.66406L34.172 8.07243C34.5196 8.33937 34.9008 8.55944 35.3058 8.727L45.028 12.7496C46.2834 13.2691 47.033 14.5674 46.8552 15.9144L45.4778 26.3454C45.4204 26.7799 45.4204 27.2201 45.4778 27.6546L46.8552 38.0856C47.033 39.4325 46.2834 40.7309 45.028 41.2504L35.3058 45.273C34.9008 45.4406 34.5196 45.6606 34.172 45.9276L25.8272 52.3359C24.7496 53.1635 23.2504 53.1635 22.1728 52.3359L13.828 45.9276C13.4804 45.6606 13.0992 45.4406 12.6942 45.273L2.97204 41.2504C1.71657 40.7309 0.966953 39.4326 1.14482 38.0856L2.52224 27.6546C2.57962 27.2201 2.57962 26.7799 2.52224 26.3454L1.14483 15.9144C0.966953 14.5675 1.71657 13.2691 2.97204 12.7496L12.6942 8.727C13.0992 8.55944 13.4804 8.33937 13.828 8.07243L22.1728 1.66406Z" fill="#540068" stroke="#0B0A0A" stroke-width="2"/>
</svg>
