<svg width="16" height="16" viewBox="0 0 16 16" fill="none" xmlns="http://www.w3.org/2000/svg">
<path d="M7.80783 0.666286C7.86343 0.473518 8.13657 0.473518 8.19217 0.666286L9.58669 5.50141C9.7123 5.93691 10.1151 6.23347 10.5683 6.22408L15.3666 6.12459C15.562 6.12054 15.6467 6.37036 15.489 6.48587L11.4984 9.40982C11.1488 9.66597 11.0039 10.1182 11.1397 10.5297L12.7342 15.3633C12.7965 15.552 12.5752 15.7062 12.4197 15.5824L8.62282 12.5598C8.25831 12.2696 7.7417 12.2696 7.37718 12.5598L3.58026 15.5824C3.42478 15.7062 3.20351 15.552 3.26576 15.3633L4.86028 10.5297C4.99605 10.1182 4.85125 9.66597 4.50165 9.40982L0.511011 6.48587C0.35335 6.37036 0.437953 6.12054 0.633363 6.12459L5.43174 6.22408C5.8849 6.23347 6.2877 5.93691 6.41331 5.50141L7.80783 0.666286Z" fill="#0B0A0A"/>
</svg>
