<svg width="14" height="15" viewBox="0 0 14 15" fill="none" xmlns="http://www.w3.org/2000/svg">
    <path d="M12.5595 12.1967L9.82133 9.45904C10.615 8.50622 11.0107 7.28411 10.9263 6.04694C10.8418 4.80977 10.2836 3.65279 9.36783 2.81668C8.45205 1.98057 7.24918 1.52971 6.00945 1.55789C4.76972 1.58606 3.58858 2.0911 2.71173 2.96795C1.83488 3.8448 1.32984 5.02595 1.30166 6.26568C1.27349 7.50541 1.72435 8.70828 2.56046 9.62406C3.39656 10.5398 4.55355 11.098 5.79072 11.1825C7.02789 11.2669 8.25 10.8712 9.20282 10.0776L11.9405 12.8158C11.9811 12.8564 12.0294 12.8887 12.0825 12.9107C12.1356 12.9326 12.1925 12.944 12.25 12.944C12.3075 12.944 12.3644 12.9326 12.4175 12.9107C12.4706 12.8887 12.5189 12.8564 12.5595 12.8158C12.6002 12.7751 12.6324 12.7269 12.6544 12.6737C12.6764 12.6206 12.6877 12.5637 12.6877 12.5062C12.6877 12.4487 12.6764 12.3918 12.6544 12.3387C12.6324 12.2856 12.6002 12.2373 12.5595 12.1967ZM2.1875 6.38123C2.1875 5.60246 2.41843 4.84119 2.85109 4.19367C3.28375 3.54615 3.8987 3.04147 4.61819 2.74345C5.33767 2.44543 6.12937 2.36746 6.89317 2.51939C7.65697 2.67132 8.35857 3.04633 8.90924 3.597C9.4599 4.14766 9.83492 4.84926 9.98685 5.61306C10.1388 6.37686 10.0608 7.16856 9.76278 7.88804C9.46476 8.60753 8.96008 9.22248 8.31256 9.65514C7.66504 10.0878 6.90377 10.3187 6.125 10.3187C5.08107 10.3176 4.08022 9.90236 3.34205 9.16418C2.60388 8.42601 2.18866 7.42516 2.1875 6.38123Z" fill="#FFFFFF"/>
</svg>
