<svg width="20" height="20" viewBox="0 0 20 20" fill="none" xmlns="http://www.w3.org/2000/svg">
<path d="M18.1632 16.8367L14.453 13.125C15.5654 11.6754 16.0848 9.85687 15.9057 8.03839C15.7267 6.21991 14.8626 4.53763 13.4888 3.3328C12.115 2.12798 10.3344 1.49082 8.5081 1.55059C6.68181 1.61036 4.94663 2.36258 3.65455 3.65466C2.36247 4.94673 1.61026 6.68191 1.55049 8.50821C1.49072 10.3345 2.12787 12.1151 3.3327 13.4889C4.53752 14.8627 6.21981 15.7268 8.03828 15.9059C9.85676 16.0849 11.6753 15.5655 13.1249 14.4531L16.8382 18.1672C16.9254 18.2544 17.0289 18.3236 17.1428 18.3708C17.2568 18.418 17.3789 18.4423 17.5022 18.4423C17.6256 18.4423 17.7477 18.418 17.8616 18.3708C17.9756 18.3236 18.0791 18.2544 18.1663 18.1672C18.2535 18.08 18.3227 17.9765 18.3699 17.8625C18.4171 17.7486 18.4414 17.6265 18.4414 17.5031C18.4414 17.3798 18.4171 17.2577 18.3699 17.1437C18.3227 17.0298 18.2535 16.9263 18.1663 16.8391L18.1632 16.8367ZM3.43739 8.75C3.43739 7.69929 3.74897 6.67217 4.33271 5.79853C4.91646 4.9249 5.74615 4.24398 6.71689 3.84189C7.68762 3.4398 8.75579 3.33459 9.78631 3.53958C10.8168 3.74456 11.7634 4.25053 12.5064 4.9935C13.2494 5.73646 13.7553 6.68306 13.9603 7.71358C14.1653 8.74411 14.0601 9.81227 13.658 10.783C13.2559 11.7537 12.575 12.5834 11.7014 13.1672C10.8277 13.7509 9.80061 14.0625 8.74989 14.0625C7.34137 14.0611 5.99096 13.5009 4.99499 12.5049C3.99901 11.5089 3.43884 10.1585 3.43739 8.75Z" fill="black"/>
</svg>
