<svg width="16" height="16" viewBox="0 0 16 16" fill="none" xmlns="http://www.w3.org/2000/svg">
<path d="M11.0017 10.1253C10.6677 10.1252 10.3374 10.1957 10.0326 10.3321C9.7278 10.4686 9.45527 10.668 9.23291 10.9172L6.17666 8.9528C6.30855 8.65257 6.37666 8.32822 6.37666 8.0003C6.37666 7.67237 6.30855 7.34802 6.17666 7.0478L9.23291 5.08342C9.63163 5.52818 10.1833 5.80636 10.778 5.86253C11.3727 5.91869 11.9667 5.74871 12.4416 5.38647C12.9166 5.02423 13.2376 4.49632 13.3407 3.90796C13.4438 3.3196 13.3214 2.714 12.9979 2.21185C12.6744 1.7097 12.1736 1.34789 11.5952 1.19851C11.0169 1.04914 10.4035 1.12317 9.8773 1.40587C9.3511 1.68856 8.95075 2.15914 8.75604 2.72384C8.56132 3.28853 8.58653 3.90586 8.82666 4.4528L5.77041 6.41717C5.44977 6.0586 5.02781 5.80585 4.56037 5.69235C4.09293 5.57886 3.60204 5.60998 3.15268 5.78159C2.70331 5.9532 2.31665 6.25722 2.04385 6.6534C1.77106 7.04959 1.625 7.51928 1.625 8.0003C1.625 8.48132 1.77106 8.951 2.04385 9.34719C2.31665 9.74338 2.70331 10.0474 3.15268 10.219C3.60204 10.3906 4.09293 10.4217 4.56037 10.3082C5.02781 10.1947 5.44977 9.94199 5.77041 9.58342L8.82666 11.5478C8.62149 12.0164 8.57312 12.5388 8.68875 13.0371C8.80438 13.5355 9.07783 13.9831 9.4684 14.3135C9.85897 14.6439 10.3458 14.8394 10.8564 14.8708C11.367 14.9022 11.8741 14.768 12.3023 14.4879C12.7304 14.2079 13.0567 13.7972 13.2325 13.3168C13.4084 12.8364 13.4245 12.312 13.2783 11.8218C13.1321 11.3315 12.8316 10.9016 12.4214 10.5959C12.0112 10.2902 11.5132 10.1252 11.0017 10.1253ZM11.0017 1.8753C11.3231 1.8753 11.6372 1.9706 11.9045 2.14916C12.1717 2.32772 12.38 2.58151 12.503 2.87844C12.626 3.17537 12.6581 3.5021 12.5954 3.81732C12.5327 4.13254 12.378 4.42208 12.1507 4.64935C11.9234 4.87661 11.6339 5.03137 11.3187 5.09407C11.0035 5.15677 10.6767 5.12459 10.3798 5.0016C10.0829 4.87861 9.82908 4.67033 9.65052 4.4031C9.47196 4.13587 9.37666 3.82169 9.37666 3.5003C9.37666 3.06932 9.54786 2.65599 9.85261 2.35125C10.1574 2.0465 10.5707 1.8753 11.0017 1.8753ZM4.00166 9.6253C3.68026 9.6253 3.36609 9.52999 3.09886 9.35143C2.83163 9.17288 2.62335 8.91909 2.50035 8.62216C2.37736 8.32523 2.34518 7.99849 2.40788 7.68327C2.47058 7.36806 2.62535 7.07851 2.85261 6.85125C3.07987 6.62399 3.36942 6.46922 3.68463 6.40652C3.99985 6.34382 4.32659 6.376 4.62352 6.49899C4.92045 6.62198 5.17424 6.83027 5.35279 7.0975C5.53135 7.36473 5.62666 7.6789 5.62666 8.0003C5.62666 8.43127 5.45545 8.8446 5.15071 9.14935C4.84596 9.45409 4.43263 9.6253 4.00166 9.6253ZM11.0017 14.1253C10.6803 14.1253 10.3661 14.03 10.0989 13.8514C9.83162 13.6729 9.62334 13.4191 9.50035 13.1222C9.37736 12.8252 9.34518 12.4985 9.40788 12.1833C9.47058 11.8681 9.62535 11.5785 9.85261 11.3512C10.0799 11.124 10.3694 10.9692 10.6846 10.9065C10.9999 10.8438 11.3266 10.876 11.6235 10.999C11.9204 11.122 12.1742 11.3303 12.3528 11.5975C12.5314 11.8647 12.6267 12.1789 12.6267 12.5003C12.6267 12.7137 12.5846 12.925 12.503 13.1222C12.4213 13.3193 12.3016 13.4985 12.1507 13.6493C11.9998 13.8002 11.8207 13.9199 11.6235 14.0016C11.4264 14.0833 11.2151 14.1253 11.0017 14.1253Z" fill="#1D1D1D"/>
</svg>
