<svg width="64" height="64" viewBox="0 0 64 64" fill="none" xmlns="http://www.w3.org/2000/svg">
<path d="M42.6654 23.333C41.572 23.333 40.6654 22.4263 40.6654 21.333V11.9997C40.6654 9.11967 38.8787 7.33301 35.9987 7.33301H27.9987C25.1187 7.33301 23.332 9.11967 23.332 11.9997V21.333C23.332 22.4263 22.4254 23.333 21.332 23.333C20.2387 23.333 19.332 22.4263 19.332 21.333V11.9997C19.332 6.90634 22.9054 3.33301 27.9987 3.33301H35.9987C41.092 3.33301 44.6654 6.90634 44.6654 11.9997V21.333C44.6654 22.4263 43.7587 23.333 42.6654 23.333Z" fill="#669F2A"/>
<path d="M21.3433 47.414C20.25 47.414 19.3433 46.5073 19.3433 45.414C19.3433 44.294 20.25 43.414 21.3433 43.414H52.7033C53.5033 43.414 54.1167 42.7207 54.0367 41.9207L52.2233 26.7473C51.5833 21.574 50.6767 17.334 41.61 17.334H22.41C13.3433 17.334 12.4367 21.574 11.8233 26.7473L9.42333 46.7473C8.65 53.3073 10.6767 58.6673 20.0367 58.6673H43.9833C52.41 58.6673 54.89 54.3207 54.7567 48.6673C54.73 47.9473 54.1433 47.414 53.4233 47.414H21.3433Z" fill="#669F2A"/>
</svg>
