<svg width="294" height="200" viewBox="0 0 294 200" fill="none" xmlns="http://www.w3.org/2000/svg">
<path d="M253.566 47.5044C252.696 46.4004 251.781 45.3178 250.822 44.2564C238.192 30.1524 217.165 20.4964 196.726 16.1244C187.732 14.2259 178.589 13.155 169.407 12.9244C109.247 11.2844 87.1423 48.9964 67.7501 58.7164C48.3578 68.4364 18.605 85.0484 22.3447 119.936C25.1789 146.464 45.0337 171.828 81.2976 183.368C85.4343 184.686 89.6342 185.787 93.8808 186.668C102.638 188.468 111.529 189.507 120.458 189.776C147.898 190.704 170.14 185.68 191.916 173.032C196.977 170.092 202.01 166.776 208.58 166.412C213.355 166.148 217.882 167.452 212.892 170.96C207.012 175.08 213.798 183.188 228.686 177.556C253.546 168.148 263.778 147.852 268.599 127.2C274.514 101.884 271.657 70.4004 253.566 47.5044Z" fill="#FEF3DA"/>
<path d="M261.94 190.069L259.427 173.113C259.427 173.113 258.906 167.953 256.962 164.385C255.017 160.817 255.002 158.033 253.724 155.917C252.446 153.801 243.743 148.909 241.407 147.453C239.071 145.997 239.204 142.561 238.169 141.369C237.134 140.177 236.095 138.989 236.484 136.341C236.872 133.693 235.445 132.773 235.057 131.317C234.669 129.861 236.233 125.101 237.26 123.117C238.287 121.133 237.26 119.149 237.26 119.149C237.26 119.149 235.057 113.461 235.445 110.153C235.833 106.845 237.26 102.881 239.075 101.557C240.89 100.233 243.743 98.3814 244.002 99.9574C244.261 101.533 244.908 102.869 243.481 104.721C242.054 106.573 241.913 106.321 241.799 108.289C241.685 110.257 242.583 113.581 242.583 113.581C242.583 113.581 244.543 117.153 249.714 119.401C254.884 121.649 263.434 118.077 263.826 115.829C264.218 113.581 264.61 103.529 265.002 101.029C265.394 98.5294 268.502 97.4574 269.541 101.293C270.58 105.129 270.964 110.153 270.325 112.933C269.686 115.713 268.51 120.473 269.149 123.249C269.788 126.025 271.223 131.185 270.325 135.681C269.768 138.516 269.422 141.39 269.29 144.277C269.29 144.277 273.629 157.405 274.778 162.697C275.927 167.989 279.313 176.189 283.088 185.441" fill="#D9804C"/>
<path d="M261.744 190.102L259.231 173.142C259.231 173.082 258.694 167.974 256.789 164.482C255.94 162.86 255.282 161.142 254.829 159.362C254.558 158.196 254.131 157.073 253.559 156.026C252.52 154.326 246.377 150.658 243.077 148.69C242.34 148.25 241.724 147.89 241.309 147.626C239.788 146.674 239.267 144.91 238.851 143.494C238.6 142.646 238.385 141.918 238.024 141.494C236.977 140.294 235.891 139.046 236.291 136.294C236.546 134.574 236.013 133.634 235.507 132.722C235.241 132.294 235.03 131.833 234.88 131.35C234.461 129.782 236.091 124.95 237.099 123.002C238.075 121.134 237.099 119.242 237.099 119.222C237.001 118.97 234.872 113.43 235.264 110.11C235.656 106.79 237.048 102.778 238.973 101.374C241.403 99.6062 242.951 98.8982 243.704 99.2142C243.842 99.2743 243.962 99.3715 244.05 99.4955C244.138 99.6194 244.192 99.7655 244.206 99.9182C244.249 100.182 244.304 100.442 244.355 100.694C244.629 101.994 244.892 103.222 243.649 104.834C243.379 105.186 243.155 105.462 242.967 105.69C242.183 106.65 242.105 106.75 242.003 108.298C241.885 110.134 242.689 113.194 242.767 113.498C242.932 113.782 244.931 117.098 249.792 119.21C253.155 120.67 258.294 119.61 261.422 117.882C262.716 117.166 263.547 116.382 263.653 115.79C263.849 114.654 264.045 111.446 264.241 108.342C264.429 105.334 264.633 102.222 264.817 100.978C265.025 99.6382 265.993 98.6182 267.102 98.5542C268.212 98.4902 269.266 99.4822 269.737 101.222C270.815 105.222 271.148 110.25 270.521 112.958L270.442 113.29C269.807 116.006 268.741 120.558 269.353 123.182C269.411 123.426 269.47 123.682 269.537 123.958C270.219 126.798 271.36 131.558 270.521 135.702C269.971 138.515 269.626 141.365 269.49 144.23C269.741 144.986 273.864 157.526 274.978 162.63C276.118 167.81 279.349 175.714 283.084 184.866L283.28 185.342L282.916 185.498L282.724 185.022C278.976 175.85 275.746 167.934 274.594 162.714C273.441 157.494 269.133 144.45 269.106 144.314V144.282V144.246C269.237 141.346 269.585 138.461 270.144 135.614C270.964 131.55 269.839 126.854 269.164 124.046C269.098 123.77 269.035 123.51 268.98 123.27C268.345 120.55 269.372 116.118 270.07 113.186L270.144 112.858C270.764 110.206 270.431 105.258 269.36 101.318C268.941 99.7742 268.106 98.8862 267.126 98.9462C266.146 99.0062 265.382 99.8782 265.205 101.034C265.013 102.258 264.813 105.358 264.633 108.358C264.437 111.474 264.241 114.694 264.037 115.85C263.912 116.586 263.045 117.43 261.607 118.226C258.318 120.046 253.151 121.094 249.639 119.57C244.453 117.322 242.497 113.81 242.414 113.662V113.622C242.375 113.482 241.497 110.258 241.63 108.262C241.74 106.59 241.866 106.434 242.681 105.43C242.865 105.202 243.073 104.93 243.355 104.582C244.484 103.114 244.253 102.03 243.99 100.77C243.935 100.51 243.88 100.246 243.833 99.9702C243.832 99.8848 243.806 99.8016 243.76 99.7307C243.713 99.6598 243.648 99.604 243.571 99.5702C243.23 99.4222 242.207 99.5062 239.216 101.686C237.401 103.006 236.033 107.03 235.688 110.142C235.296 113.362 237.467 118.982 237.491 119.038C237.802 119.681 237.963 120.389 237.963 121.106C237.963 121.823 237.802 122.531 237.491 123.174C236.413 125.242 234.951 129.91 235.303 131.23C235.448 131.678 235.645 132.107 235.891 132.506C236.417 133.43 237.009 134.482 236.734 136.338C236.362 138.89 237.338 140.014 238.373 141.202C238.792 141.682 239.016 142.45 239.278 143.342C239.698 144.766 240.176 146.378 241.568 147.246C241.983 147.506 242.595 147.87 243.328 148.31C246.891 150.434 252.853 153.994 253.947 155.778C254.536 156.857 254.978 158.013 255.26 159.214C255.691 160.975 256.325 162.678 257.15 164.286C259.09 167.854 259.631 173.042 259.635 173.086L262.148 190.034L261.744 190.102Z" fill="#263238"/>
<path d="M267.546 144.768C265.677 141.076 258.84 140.768 258.77 140.768V140.368C259.06 140.368 265.908 140.68 267.88 144.576L267.546 144.768Z" fill="#263238"/>
<path d="M251.129 140.311C251.129 140.311 252.697 140.975 253.481 143.751L251.129 140.311Z" fill="#D9804C"/>
<path d="M253.273 143.804C252.533 141.148 251.07 140.5 251.055 140.496L251.204 140.124C251.274 140.152 252.858 140.856 253.654 143.692L253.273 143.804Z" fill="#263238"/>
<path d="M253.202 154.861C253.202 154.861 252.943 156.061 257.612 155.661L253.202 154.861Z" fill="#D9804C"/>
<path d="M255.884 155.937C254.446 155.937 253.532 155.721 253.168 155.293C253.107 155.233 253.061 155.157 253.034 155.075C253.007 154.992 253.001 154.903 253.015 154.817L253.407 154.889C253.407 154.889 253.407 154.961 253.497 155.057C253.701 155.261 254.516 155.717 257.601 155.457L257.637 155.857C256.978 155.909 256.398 155.937 255.884 155.937Z" fill="#263238"/>
<path d="M243.432 99.9454C243.554 100.385 243.738 101.641 243.554 102.145C243.37 102.649 240.418 104.029 239.677 103.345C238.936 102.661 239.74 101.273 239.74 101.273C240.392 100.762 241.086 100.309 241.813 99.9174C242.821 99.3854 243.432 99.9454 243.432 99.9454Z" fill="#F51919"/>
<path d="M240.294 103.725C240.013 103.748 239.733 103.662 239.51 103.485C238.667 102.685 239.51 101.225 239.538 101.165L239.585 101.109C240.248 100.588 240.953 100.126 241.694 99.7291C242.827 99.1531 243.501 99.773 243.532 99.801L243.571 99.837V99.893C243.689 100.317 243.901 101.637 243.689 102.213C243.524 102.665 242.121 103.361 241.082 103.613C240.825 103.681 240.56 103.718 240.294 103.725ZM239.867 101.397C239.761 101.597 239.228 102.669 239.785 103.189C239.957 103.353 240.381 103.369 240.961 103.241C242.082 102.985 243.273 102.293 243.36 102.073C243.513 101.673 243.36 100.569 243.25 100.073C243.044 99.9487 242.807 99.8854 242.568 99.8904C242.328 99.8953 242.095 99.9683 241.894 100.101C241.187 100.475 240.511 100.909 239.875 101.397H239.867Z" fill="#263238"/>
<path d="M240.518 83.3411C240.4 83.341 240.284 83.314 240.178 83.2621C240.073 83.2102 239.979 83.1346 239.906 83.0411C239.424 82.4291 228.017 67.9171 223.807 57.8131C220.138 49.0131 216.864 41.5771 214.007 39.9891C213.734 39.8358 213.446 39.7111 213.148 39.6171C215.677 43.6171 218.021 48.2371 217.762 50.2651C217.637 51.2371 217.045 51.8371 216.194 51.8651C213.693 51.9771 210.004 47.4211 209.287 44.1291C208.503 40.5931 209.679 39.0811 210.463 38.4931L210.53 38.4411C209.993 37.6411 209.471 36.9211 208.962 36.2771C208.484 36.7443 207.869 37.037 207.212 37.1093C206.554 37.1817 205.892 37.0297 205.328 36.6771C202.251 34.9171 197.354 27.5291 194.724 23.5651L194.281 22.8931C194.201 22.8096 194.141 22.7093 194.103 22.5993C194.065 22.4892 194.051 22.3721 194.062 22.2561C194.074 22.14 194.11 22.0279 194.168 21.9275C194.226 21.8272 194.305 21.741 194.399 21.675C194.493 21.6091 194.6 21.5649 194.713 21.5456C194.826 21.5264 194.941 21.5325 195.051 21.5636C195.162 21.5946 195.264 21.6499 195.351 21.7255C195.438 21.801 195.508 21.8951 195.555 22.0011L195.998 22.6851C198.374 26.2851 203.317 33.7251 206.073 35.3011C206.36 35.4985 206.709 35.5815 207.053 35.5343C207.397 35.4871 207.712 35.3131 207.938 35.0451C207.735 34.8051 207.546 34.5931 207.366 34.4131C205.563 32.5731 204.187 29.9691 205.194 28.7691C205.634 28.2491 206.543 27.9091 208.381 29.2811C209.221 29.9068 209.825 30.8061 210.096 31.8303C210.366 32.8544 210.285 33.942 209.867 34.9131C210.522 35.7571 211.259 36.7771 212.011 37.8971C212.965 37.8497 213.912 38.0874 214.736 38.5811C217.789 40.2691 220.561 45.9251 225.249 57.1851C229.373 67.0851 241.012 81.8931 241.129 82.0411C241.259 82.2066 241.319 82.418 241.296 82.6287C241.274 82.8395 241.17 83.0324 241.008 83.1651C240.869 83.2789 240.696 83.3409 240.518 83.3411ZM211.365 39.7811C210.581 40.3811 210.377 41.8771 210.792 43.7811C211.349 46.3331 213.575 49.0571 215.304 50.0011C215.55 50.1722 215.841 50.2629 216.139 50.2611C216.165 50.1931 216.183 50.1218 216.19 50.0491C216.3 49.2051 215.512 46.7491 212.98 42.4011C212.462 41.5251 211.913 40.6331 211.365 39.7811ZM206.429 29.9651C206.515 30.5331 207.072 31.8491 208.476 33.2811L208.644 33.4611C208.732 32.9157 208.668 32.3561 208.46 31.8457C208.253 31.3352 207.909 30.8944 207.468 30.5731C207.152 30.3212 206.802 30.1164 206.429 29.9651Z" fill="#F51919"/>
<path d="M240.518 83.541C240.368 83.5443 240.22 83.5125 240.084 83.448C239.948 83.3835 239.828 83.288 239.734 83.169C239.252 82.553 227.825 68.013 223.607 57.889C219.954 49.113 216.696 41.725 213.878 40.165L213.599 40.021C215.022 42.329 218.233 47.853 217.911 50.293C217.774 51.365 217.127 52.033 216.147 52.077C213.513 52.205 209.781 47.585 209.044 44.181C208.26 40.665 209.393 39.073 210.193 38.413C209.738 37.745 209.299 37.133 208.884 36.581C208.373 37.0156 207.742 37.277 207.078 37.3286C206.415 37.3802 205.753 37.2195 205.183 36.869C202.047 35.089 197.151 27.669 194.513 23.697L194.066 23.025C193.994 22.9166 193.943 22.7947 193.918 22.6663C193.892 22.5378 193.892 22.4055 193.917 22.277C193.94 22.1475 193.988 22.0241 194.059 21.9141C194.129 21.8041 194.221 21.7098 194.329 21.637C194.544 21.4892 194.807 21.4332 195.062 21.481C195.189 21.5052 195.31 21.5552 195.417 21.628C195.525 21.7008 195.617 21.795 195.689 21.905L196.136 22.573C198.488 26.145 203.427 33.573 206.14 35.125C206.364 35.2832 206.634 35.3601 206.906 35.3434C207.178 35.3267 207.437 35.2174 207.641 35.033C207.484 34.853 207.335 34.693 207.198 34.553C205.285 32.605 203.925 29.945 205.018 28.641C205.512 28.053 206.512 27.657 208.472 29.121C209.338 29.7552 209.97 30.6676 210.267 31.712C210.564 32.7564 210.509 33.8723 210.111 34.881C210.738 35.681 211.432 36.657 212.129 37.681C213.072 37.6679 214 37.9168 214.815 38.401C217.919 40.117 220.695 45.801 225.399 57.105C229.534 67.029 241.133 81.761 241.251 81.905C241.332 82.007 241.393 82.1248 241.429 82.2513C241.464 82.3778 241.475 82.5104 241.459 82.641C241.446 82.7715 241.408 82.8981 241.346 83.0134C241.285 83.1288 241.202 83.2306 241.102 83.313C240.936 83.4505 240.731 83.5304 240.518 83.541ZM212.686 39.269L213.196 39.425C213.506 39.5275 213.805 39.6615 214.089 39.825C217.018 41.425 220.306 48.901 223.991 57.745C228.186 67.821 239.581 82.317 240.063 82.945C240.163 83.0665 240.304 83.144 240.459 83.1611C240.613 83.1783 240.768 83.1338 240.89 83.037C241.011 82.9367 241.088 82.7919 241.105 82.6339C241.122 82.4759 241.077 82.3175 240.981 82.193C240.863 82.045 229.221 67.265 225.073 57.293C220.401 46.093 217.653 40.445 214.65 38.785C213.858 38.3139 212.951 38.0848 212.035 38.125H211.922L211.855 38.029C211.114 36.929 210.377 35.901 209.719 35.057L209.644 34.965L209.691 34.853C210.094 33.9206 210.173 32.8755 209.914 31.8911C209.656 30.9067 209.075 30.0422 208.268 29.441C207.319 28.737 206.042 28.069 205.344 28.901C204.446 29.969 205.736 32.469 207.504 34.273C207.68 34.453 207.896 34.673 208.088 34.913L208.205 35.053L208.08 35.185C207.822 35.4831 207.467 35.6763 207.08 35.7292C206.693 35.782 206.301 35.6911 205.975 35.473C203.18 33.873 198.221 26.393 195.838 22.797L195.391 22.129C195.295 22.0223 195.165 21.9544 195.024 21.9379C194.883 21.9214 194.741 21.9574 194.625 22.0392C194.508 22.121 194.424 22.2431 194.388 22.3831C194.352 22.523 194.367 22.6715 194.431 22.801L194.873 23.469C197.484 27.425 202.365 34.801 205.407 36.521C205.934 36.8526 206.555 36.9957 207.171 36.9276C207.787 36.8595 208.363 36.5842 208.809 36.145L208.966 35.993L209.099 36.169C209.585 36.809 210.107 37.541 210.667 38.341L210.777 38.505L210.557 38.665C209.832 39.225 208.727 40.665 209.472 44.097C210.165 47.297 213.674 51.697 216.092 51.697H216.179C216.963 51.661 217.457 51.137 217.57 50.261C217.825 48.261 215.371 43.521 212.988 39.745L212.686 39.269ZM216.081 50.469C215.775 50.4408 215.48 50.3408 215.218 50.177C213.446 49.213 211.173 46.429 210.604 43.825C210.169 41.825 210.412 40.257 211.251 39.609L211.416 39.481L211.533 39.661C212.094 40.533 212.639 41.421 213.152 42.301C215.324 46.029 216.535 48.937 216.39 50.073C216.39 50.137 216.39 50.189 216.359 50.229L216.453 50.373L216.202 50.453C216.162 50.468 216.12 50.4774 216.077 50.481L216.081 50.469ZM211.33 40.069C210.749 40.701 210.62 42.041 210.989 43.733C211.533 46.233 213.709 48.897 215.403 49.821C215.586 49.9306 215.786 50.0089 215.994 50.053C215.994 50.053 215.994 50.029 215.994 50.017C216.096 49.245 215.32 46.817 212.811 42.501C212.341 41.709 211.839 40.893 211.326 40.085L211.33 40.069ZM208.786 33.881L208.503 33.601C208.445 33.541 208.39 33.481 208.335 33.429C206.853 31.917 206.32 30.561 206.238 29.997L206.191 29.669L206.496 29.781C206.882 29.9355 207.245 30.1442 207.574 30.401C208.046 30.7421 208.414 31.211 208.638 31.7546C208.861 32.2982 208.932 32.8948 208.84 33.477L208.786 33.881ZM206.731 30.309C207.126 31.3158 207.723 32.2273 208.484 32.985C208.487 32.5414 208.386 32.1036 208.188 31.7087C207.99 31.3138 207.702 30.9736 207.347 30.717C207.148 30.5749 206.941 30.444 206.728 30.325L206.731 30.309Z" fill="#263238"/>
<path d="M222.354 36.9487L220.395 37.7651L241.449 90.3842L243.409 89.5677L222.354 36.9487Z" fill="#D9804C"/>
<path d="M241.336 90.6615L241.266 90.4775L220.137 37.6775L222.457 36.7095L222.532 36.8935L243.661 89.6935L241.336 90.6615ZM220.65 37.8935L241.552 90.1415L243.147 89.4775L222.261 37.2255L220.65 37.8935Z" fill="#263238"/>
<path d="M254.436 139.658C253.91 139.633 253.404 139.441 252.989 139.11C252.574 138.779 252.27 138.325 252.119 137.81L238.336 95.786C233.875 82.186 230.104 70.714 230.104 70.666C229.653 69.286 237.631 66.162 241.911 64.706C244.793 63.701 247.73 62.8703 250.708 62.218C254.596 61.418 254.788 62.01 254.863 62.218V62.29L276.815 129.37C277.03 130.007 277.014 130.701 276.768 131.326C276.655 131.617 276.481 131.88 276.26 132.096C276.038 132.312 275.772 132.476 275.482 132.578L255.075 139.554C254.869 139.624 254.653 139.659 254.436 139.658ZM253.742 62.21C252.747 62.2499 251.757 62.3838 250.786 62.61C247.826 63.2587 244.906 64.0841 242.041 65.082C234.158 67.77 230.324 70.062 230.481 70.538C230.481 70.538 233.617 80.094 238.713 95.658L252.491 137.682C252.883 138.838 253.973 139.51 254.949 139.174L275.388 132.21C275.624 132.129 275.84 131.997 276.021 131.823C276.203 131.649 276.345 131.437 276.439 131.202C276.649 130.667 276.661 130.073 276.474 129.53L254.494 62.402V62.358C254.494 62.358 254.408 62.21 253.742 62.21Z" fill="#263238"/>
<path d="M273.773 124.151L259.779 81.8354L234.805 80.3994C239.434 94.5194 249.015 123.323 251.743 131.651C252.135 132.795 253.213 133.451 254.193 133.115L272.688 126.815C273.656 126.495 274.146 125.295 273.773 124.151Z" fill="#F51919"/>
<path d="M253.661 133.416C253.18 133.394 252.719 133.219 252.34 132.917C251.961 132.614 251.684 132.199 251.548 131.728C250.372 128.128 247.926 120.756 245.1 112.228C241.411 101.096 237.232 88.4763 234.61 80.4763L234.516 80.1963L259.921 81.6443L273.959 124.092C274.155 124.672 274.14 125.304 273.916 125.872C273.812 126.138 273.653 126.379 273.45 126.577C273.247 126.775 273.005 126.926 272.74 127.02L254.245 133.32C254.056 133.384 253.859 133.416 253.661 133.416ZM235.072 80.6163C237.699 88.6163 241.826 101.084 245.472 112.088C248.294 120.616 250.737 127.98 251.92 131.592C252.258 132.624 253.245 133.224 254.12 132.928L272.618 126.628C272.829 126.552 273.021 126.43 273.182 126.271C273.343 126.113 273.469 125.921 273.551 125.708C273.743 125.228 273.756 124.693 273.586 124.204L259.635 82.0323L235.072 80.6163Z" fill="#263238"/>
<path d="M244.201 101.745L243.828 101.869L254.523 135.313L254.896 135.189L244.201 101.745Z" fill="#263238"/>
<path d="M239.904 87.0292L239.531 87.1543L243.258 98.7084L243.631 98.5834L239.904 87.0292Z" fill="#263238"/>
<path d="M251.75 64.5921L250.633 64.9673L271.183 128.673L272.3 128.297L251.75 64.5921Z" fill="#D9804C"/>
<path d="M243.224 138.062C243.095 138.594 250.355 131.318 252.817 129.862C255.278 128.406 258.65 127.746 260.335 126.822C262.021 125.898 263.185 128.022 262.409 129.73C261.633 131.438 258.65 133.302 256.058 135.418C253.467 137.534 252.04 138.99 251.131 140.31C250.222 141.63 251.131 144.414 249.316 146.13" fill="#D9804C"/>
<path d="M249.448 146.277L249.182 145.985C250.201 145.017 250.319 143.665 250.424 142.469C250.499 141.601 250.57 140.781 250.969 140.197C251.938 138.789 253.419 137.313 255.936 135.261C256.63 134.693 257.347 134.149 258.045 133.617C259.915 132.201 261.679 130.861 262.232 129.645C262.624 128.765 262.49 127.677 261.906 127.117C261.709 126.93 261.456 126.817 261.188 126.795C260.919 126.773 260.652 126.844 260.428 126.997C259.478 127.454 258.495 127.838 257.488 128.145C255.905 128.617 254.373 129.249 252.914 130.033C251.491 130.877 248.398 133.733 246.136 135.817C243.345 138.393 243.325 138.377 243.129 138.261L243.004 138.185L243.039 138.001L243.431 138.097L243.239 138.049L243.368 137.921C243.346 137.901 243.319 137.888 243.291 137.882C243.262 137.875 243.232 137.876 243.204 137.885C243.404 137.797 244.67 136.633 245.889 135.505C248.163 133.409 251.275 130.541 252.733 129.677C254.215 128.879 255.771 128.234 257.379 127.753C258.364 127.455 259.326 127.081 260.256 126.633C260.551 126.436 260.903 126.347 261.255 126.38C261.606 126.412 261.936 126.565 262.192 126.813C262.545 127.213 262.771 127.712 262.841 128.245C262.911 128.778 262.821 129.32 262.584 129.801C261.992 131.109 260.185 132.477 258.272 133.929C257.578 134.453 256.861 135.001 256.171 135.561C253.69 137.589 252.228 139.041 251.283 140.413C250.942 140.909 250.891 141.677 250.805 142.493C250.703 143.773 250.577 145.201 249.448 146.277Z" fill="#263238"/>
<path d="M235.199 128.803C235.199 128.803 237.014 121.923 237.532 117.823C238.049 113.723 246.089 109.887 248.163 108.963C250.236 108.039 256.328 105.919 256.587 107.763C256.845 109.607 256.195 110.275 253.866 112.127C251.538 113.979 248.809 115.435 246.865 117.287C244.921 119.139 244.905 120.727 244.905 120.727" fill="#D9804C"/>
<path d="M235.376 128.857L234.984 128.753C234.984 128.685 236.799 121.841 237.313 117.801C237.838 113.649 245.67 109.849 248.058 108.781C249.386 108.185 254.678 106.153 256.29 107.069C256.415 107.136 256.523 107.232 256.605 107.349C256.687 107.467 256.74 107.602 256.76 107.745C257.038 109.745 256.258 110.473 253.961 112.297C252.985 113.073 251.931 113.785 250.915 114.473C249.531 115.352 248.22 116.344 246.995 117.441C245.149 119.201 245.114 120.721 245.114 120.737H244.722C244.722 120.669 244.745 119.041 246.729 117.137C247.977 116.025 249.312 115.018 250.719 114.125C251.731 113.441 252.773 112.737 253.742 111.969C256.137 110.065 256.631 109.497 256.391 107.789C256.383 107.704 256.353 107.623 256.305 107.553C256.257 107.483 256.192 107.427 256.117 107.389C254.886 106.689 250.304 108.189 248.238 109.121C246.572 109.861 238.234 113.777 237.724 117.825C237.215 121.873 235.396 128.801 235.376 128.857Z" fill="#263238"/>
<path d="M250.918 108.296C250.918 108.296 250.734 108.548 250.918 109.3C251.102 110.052 251.349 110.428 251.702 110.428C252.055 110.428 254.779 109.988 255.273 109.676C255.767 109.364 255.516 107.228 255.516 107.228" fill="#F51919"/>
<path d="M251.718 110.63C251.115 110.63 250.864 109.902 250.731 109.35C250.535 108.55 250.731 108.23 250.762 108.178L251.075 108.418L250.919 108.298L251.083 108.41C251.083 108.41 250.958 108.63 251.111 109.254C251.35 110.23 251.628 110.23 251.718 110.23C252.059 110.23 254.741 109.79 255.184 109.51C255.415 109.362 255.45 108.222 255.34 107.254L255.732 107.206C255.795 107.738 255.952 109.494 255.395 109.846C254.839 110.198 252.055 110.63 251.718 110.63Z" fill="#263238"/>
<path d="M237.262 133.961C237.262 133.961 239.465 126.025 240.374 124.441C241.284 122.857 248.41 119.281 250.743 118.621C253.075 117.961 259.037 117.297 260.723 117.021C262.409 116.745 263.965 117.681 262.797 119.797C261.628 121.913 255.929 123.633 253.463 124.561C250.997 125.489 250.872 125.881 249.316 126.809C248.286 127.447 247.33 128.201 246.466 129.057C246.466 129.057 246.074 132.761 246.337 134.481" fill="#D9804C"/>
<path d="M246.137 134.522C245.879 132.798 246.251 129.202 246.267 129.046V128.978L246.318 128.926C247.193 128.058 248.162 127.294 249.207 126.65C249.658 126.378 249.991 126.15 250.293 125.95C251.245 125.281 252.287 124.754 253.385 124.386C253.777 124.246 254.201 124.086 254.691 123.914C257.298 122.99 261.661 121.446 262.617 119.714C263.048 118.914 263.115 118.278 262.805 117.822C262.496 117.366 261.653 117.086 260.743 117.23C260.308 117.298 259.567 117.394 258.717 117.51C256.243 117.834 252.503 118.31 250.786 118.814C248.493 119.462 241.378 123.046 240.532 124.542C239.685 126.038 237.462 133.938 237.439 134.018L237.047 133.91C237.137 133.582 239.27 125.93 240.183 124.338C241.167 122.614 248.485 119.046 250.669 118.426C252.413 117.934 256.157 117.438 258.654 117.11C259.52 116.998 260.222 116.902 260.673 116.834C261.751 116.666 262.684 116.958 263.115 117.598C263.393 117.998 263.589 118.738 262.946 119.91C261.919 121.774 257.639 123.29 254.808 124.31L253.511 124.778C252.442 125.138 251.428 125.651 250.5 126.302C250.198 126.506 249.854 126.738 249.395 127.014C248.404 127.63 247.484 128.358 246.651 129.182C246.6 129.702 246.294 132.938 246.525 134.482L246.137 134.522Z" fill="#263238"/>
<path d="M257.688 117.526C257.598 117.558 257.516 117.607 257.445 117.672C257.375 117.737 257.318 117.815 257.278 117.903C257.238 117.991 257.215 118.086 257.211 118.182C257.208 118.279 257.223 118.375 257.257 118.466C257.316 118.815 257.487 119.133 257.744 119.372C258 119.611 258.326 119.757 258.672 119.786C259.456 119.91 262.302 119.346 262.302 119.346C262.302 119.346 261.749 118.09 262.055 117.274" fill="#F51919"/>
<path d="M258.961 120.001C258.853 120.004 258.746 119.997 258.639 119.981C258.257 119.943 257.897 119.78 257.615 119.515C257.332 119.25 257.141 118.898 257.071 118.513C257.031 118.398 257.014 118.276 257.021 118.154C257.028 118.032 257.058 117.912 257.111 117.802C257.163 117.692 257.237 117.594 257.327 117.514C257.417 117.433 257.522 117.372 257.636 117.333L257.753 117.733C257.679 117.757 257.322 117.901 257.452 118.433C257.504 118.745 257.657 119.029 257.886 119.241C258.116 119.453 258.409 119.58 258.718 119.601C259.29 119.693 261.136 119.381 262.046 119.201C261.893 118.781 261.634 117.881 261.885 117.201L262.254 117.345C261.979 118.073 262.489 119.249 262.493 119.261L262.595 119.493L262.352 119.541C261.233 119.772 260.1 119.926 258.961 120.001Z" fill="#263238"/>
<path d="M262.486 128.448C262.377 128.812 259.351 130.268 258.304 129.576C257.257 128.884 257.994 128.132 257.994 128.132C257.994 128.132 258.421 127.764 259.17 127.24C259.919 126.716 260.131 126.524 261.091 126.524C262.051 126.524 262.639 127.888 262.486 128.448Z" fill="#F51919"/>
<path d="M259.066 129.963C258.762 129.977 258.46 129.902 258.196 129.747C258.026 129.658 257.878 129.53 257.765 129.373C257.651 129.216 257.575 129.035 257.541 128.843C257.532 128.687 257.554 128.532 257.607 128.386C257.659 128.24 257.741 128.107 257.847 127.995C258.236 127.664 258.644 127.359 259.07 127.079L259.258 126.947C259.77 126.507 260.429 126.285 261.097 126.327C261.331 126.335 261.56 126.401 261.765 126.519C261.97 126.636 262.144 126.802 262.273 127.003C262.436 127.212 262.555 127.454 262.622 127.713C262.69 127.972 262.704 128.242 262.665 128.507C262.555 128.875 261.359 129.391 260.908 129.559C260.32 129.794 259.697 129.93 259.066 129.963ZM258.121 128.287C257.995 128.427 257.927 128.612 257.933 128.803C257.962 128.933 258.019 129.055 258.099 129.16C258.18 129.265 258.283 129.351 258.4 129.411C258.678 129.595 259.184 129.615 259.854 129.463C261.006 129.203 262.159 128.571 262.292 128.379C262.324 127.969 262.201 127.562 261.947 127.243C261.853 127.096 261.728 126.974 261.58 126.884C261.433 126.795 261.268 126.741 261.097 126.727C260.507 126.685 259.924 126.883 259.478 127.279L259.286 127.411C258.879 127.682 258.487 127.974 258.11 128.287H258.121Z" fill="#263238"/>
<path d="M221.405 102.443C223.294 99.3031 222.545 92.1551 222.545 92.1551L230.542 76.4871C230.542 76.4871 231.401 76.5871 232.663 75.5791C233.376 75.0071 235.709 68.6951 235.709 68.6951L232.392 66.1671L229.256 63.3911C229.256 63.3911 223.768 67.0751 223.302 67.8791C222.451 69.3911 222.879 70.1871 222.879 70.1871L209.551 81.4631C209.551 81.4631 202.546 82.2231 199.931 84.7671C197.316 87.3111 171.695 120.523 171.695 120.523C171.695 120.523 169.343 122.051 170.01 125.651C170.346 127.411 171.287 128.99 172.663 130.103L176.45 133.223L178.167 134.635L178.269 134.719L179.982 136.131L183.769 139.255C185.126 140.393 186.838 140.999 188.594 140.963C192.177 140.859 193.149 138.203 193.149 138.203C193.149 138.203 219.519 105.599 221.405 102.443Z" fill="#828282"/>
<path d="M188.375 141.169C186.641 141.153 184.966 140.532 183.627 139.409L172.522 130.261C171.108 129.118 170.141 127.496 169.798 125.689C169.167 122.225 171.26 120.581 171.538 120.377C172.824 118.717 197.234 87.1325 199.817 84.6205C202.4 82.1085 208.755 81.3565 209.488 81.2685L222.655 70.1245C222.557 69.8005 222.451 69.0045 223.141 67.7805C223.6 66.9805 228.59 63.6045 229.154 63.2245L229.28 63.1445L232.514 66.0165L235.936 68.6285L235.881 68.7685C235.642 69.4205 233.529 75.1685 232.776 75.7365C232.185 76.275 231.441 76.6083 230.652 76.6885L222.741 92.1965C222.812 92.9445 223.392 99.5045 221.565 102.553C219.703 105.653 194.611 136.681 193.294 138.309C193.157 138.629 192.02 141.065 188.571 141.165L188.375 141.169ZM229.252 63.6445C227.057 65.1205 223.796 67.4325 223.486 67.9805C222.702 69.3605 223.063 70.0845 223.067 70.0925L223.141 70.2365L223.02 70.3405L209.648 81.6565H209.59C209.519 81.6565 202.62 82.4565 200.084 84.9085C197.547 87.3605 172.087 120.317 171.828 120.649L171.781 120.693C171.691 120.753 169.562 122.201 170.182 125.617C170.512 127.328 171.429 128.864 172.769 129.949L183.874 139.101C185.197 140.211 186.866 140.801 188.578 140.765C191.993 140.665 192.949 138.161 192.957 138.137L192.992 138.077C193.255 137.753 219.39 105.441 221.252 102.341C223.078 99.2925 222.369 92.2485 222.365 92.1765V92.1165L222.392 92.0645L230.452 76.2725H230.585C230.585 76.2725 231.393 76.3445 232.545 75.4085C233.027 75.0085 234.54 71.2685 235.477 68.7525L232.279 66.3125L229.252 63.6445Z" fill="#263238"/>
<path d="M229.84 64.074L230.879 64.874L228.633 62.874L228.551 62.93L229.84 64.074Z" fill="#263238"/>
<path d="M220.857 101.809C222.734 98.6812 221.978 91.5492 221.978 91.5492L229.928 75.9492C229.928 75.9492 230.786 76.0492 232.044 75.0452C232.754 74.4772 235.071 68.1852 235.071 68.1852L233.111 66.7012C232.836 67.4452 230.782 72.9452 230.116 73.4772C228.861 74.4812 228.003 74.3772 228.003 74.3772L220.049 89.9772C220.049 89.9772 220.81 97.1092 218.932 100.241C217.054 103.373 190.751 135.881 190.751 135.881C190.751 135.881 189.783 138.525 186.204 138.625C184.497 138.65 182.834 138.069 181.5 136.981L183.315 138.477C184.67 139.618 186.38 140.228 188.137 140.197C191.716 140.097 192.68 137.449 192.68 137.449C192.68 137.449 218.979 104.941 220.857 101.809Z" fill="#263238"/>
<path d="M235.003 68.3093L234.023 67.4453L236.415 69.2573L236.379 69.3493L235.003 68.3093Z" fill="#F5C893"/>
<path d="M200.809 85.3596C203.404 82.8196 210.393 82.0436 210.393 82.0436L223.631 70.7676C223.631 70.7676 223.349 69.9356 224.023 68.4676C224.415 67.6356 229.938 63.9756 229.938 63.9756L231.781 65.5956C231.126 66.0316 226.293 69.2636 225.94 70.0356C225.246 71.5036 225.548 72.3396 225.548 72.3396L212.306 83.5996C212.306 83.5996 205.317 84.3716 202.726 86.9156C200.135 89.4596 174.663 122.652 174.663 122.652C174.663 122.652 172.334 124.184 173.008 127.772C173.349 129.485 174.264 131.024 175.596 132.124L173.773 130.636C172.393 129.528 171.444 127.956 171.095 126.2C170.421 122.6 172.746 121.084 172.746 121.084C172.746 121.084 198.218 87.9036 200.809 85.3596Z" fill="#FFFEFD"/>
<path d="M208.512 89.3778C207.947 90.0978 206.654 90.0018 205.627 89.1578C204.6 88.3138 204.231 87.0498 204.796 86.3298C205.36 85.6098 206.658 85.7098 207.681 86.5498C208.704 87.3898 209.08 88.6578 208.512 89.3778Z" fill="#FFFEFD"/>
<path d="M234.807 69.5726L228.852 64.6806C228.645 64.5105 228.473 64.3005 228.345 64.0624C228.218 63.8244 228.138 63.563 228.109 63.2933C228.081 63.0236 228.105 62.7508 228.18 62.4906C228.255 62.2303 228.379 61.9877 228.546 61.7766C228.713 61.5656 228.919 61.3903 229.153 61.2606C229.386 61.1309 229.642 61.0494 229.907 61.0208C230.171 60.9922 230.438 61.017 230.693 61.0939C230.948 61.1707 231.186 61.298 231.392 61.4686L237.327 66.3606C237.534 66.5307 237.706 66.7408 237.834 66.9788C237.961 67.2169 238.041 67.4782 238.07 67.748C238.098 68.0177 238.074 68.2904 237.999 68.5507C237.924 68.8109 237.8 69.0535 237.633 69.2646C237.296 69.684 236.81 69.9514 236.281 70.009C235.753 70.0666 235.223 69.9099 234.807 69.5726Z" fill="#828282"/>
<path d="M236.053 70.2326C235.547 70.2323 235.055 70.0543 234.662 69.7286L228.727 64.8366C228.5 64.6496 228.312 64.4188 228.172 64.1575C228.033 63.8962 227.945 63.6094 227.915 63.3136C227.884 63.0177 227.911 62.7186 227.993 62.4333C228.076 62.1479 228.212 61.882 228.396 61.6506C228.579 61.4192 228.805 61.2269 229.061 61.0847C229.317 60.9425 229.598 60.8531 229.888 60.8217C230.178 60.7903 230.471 60.8175 230.751 60.9018C231.031 60.986 231.291 61.1256 231.518 61.3126L237.453 66.2046C237.791 66.488 238.039 66.8669 238.166 67.2938C238.293 67.7206 238.294 68.1763 238.169 68.6037C238.043 69.031 237.796 69.411 237.46 69.6958C237.123 69.9806 236.712 70.1576 236.277 70.2046C236.214 70.2246 236.132 70.2326 236.053 70.2326ZM230.123 61.2006C229.745 61.2009 229.377 61.3206 229.069 61.543C228.761 61.7654 228.528 62.0797 228.402 62.4428C228.276 62.8058 228.264 63.1996 228.366 63.5703C228.468 63.9409 228.681 64.2701 228.974 64.5126L234.909 69.4046C235.096 69.5585 235.31 69.6733 235.541 69.7425C235.771 69.8118 236.013 69.834 236.251 69.808C236.49 69.782 236.722 69.7083 236.933 69.591C237.143 69.4737 237.33 69.3152 237.48 69.1246C237.631 68.9339 237.744 68.7148 237.812 68.4797C237.879 68.2446 237.901 67.9982 237.876 67.7546C237.85 67.5109 237.778 67.2748 237.663 67.0596C237.548 66.8444 237.393 66.6545 237.206 66.5006L231.279 61.6246C230.954 61.35 230.545 61.2001 230.123 61.2006Z" fill="#263238"/>
<path d="M231.791 64.2659C231.426 64.7299 230.591 64.6659 229.925 64.1219C229.258 63.5779 229.019 62.7579 229.388 62.2939C229.756 61.8299 230.587 61.8939 231.254 62.4379C231.92 62.9819 232.159 63.8019 231.791 64.2659Z" fill="#F5C893"/>
<path d="M234.052 66.3373C233.785 66.6773 234.213 67.4853 235.012 68.1413C235.812 68.7973 236.674 69.0493 236.941 68.7093C237.208 68.3693 236.78 67.5613 235.981 66.9093C235.181 66.2573 234.318 66.0013 234.052 66.3373Z" fill="#263238"/>
<path d="M224.093 89.1209L227.923 81.6249L226.656 80.5809C226.677 79.7106 226.502 78.847 226.143 78.057C225.785 77.267 225.253 76.5718 224.589 76.025C223.925 75.4783 223.147 75.0947 222.314 74.9039C221.482 74.7131 220.618 74.7203 219.789 74.9249L218.526 73.8809L212.148 79.2769L224.093 89.1209Z" fill="#F6C644"/>
<path d="M224.16 89.428L211.84 79.28L218.527 73.624L219.841 74.704C220.687 74.5106 221.565 74.5148 222.41 74.7161C223.254 74.9175 224.043 75.311 224.718 75.8671C225.392 76.4232 225.935 77.1276 226.306 77.9277C226.676 78.7279 226.865 79.6031 226.857 80.488L228.171 81.568L224.16 89.428ZM212.463 79.276L224.031 88.8L227.673 81.664L226.461 80.664V80.564C226.482 79.7242 226.313 78.8908 225.967 78.1284C225.622 77.3659 225.109 76.6948 224.469 76.1669C223.828 75.6391 223.077 75.2687 222.274 75.0844C221.471 74.9001 220.637 74.9068 219.837 75.104L219.743 75.128L218.527 74.128L212.463 79.276Z" fill="#263238"/>
<path d="M172.434 119.542L193.915 137.246C196.934 133.53 213.123 113.366 218.529 106.37L196.785 88.4658C191.234 95.3138 175.358 115.75 172.434 119.542Z" fill="#F6C644"/>
<path d="M193.94 137.521L193.791 137.397L172.156 119.573L172.278 119.417C175.484 115.253 191.117 95.1446 196.648 88.3366L196.77 88.1846L196.923 88.3086L218.8 106.337L218.683 106.489C213.304 113.469 197.232 133.469 194.061 137.369L193.94 137.521ZM172.705 119.521L193.873 136.977C197.291 132.765 212.818 113.437 218.24 106.413L196.817 88.7566C191.258 95.6006 176.139 115.057 172.705 119.509V119.521Z" fill="#263238"/>
<path d="M204.742 119.603C208.581 114.534 207.667 107.249 202.699 103.331C197.732 99.4133 190.592 100.347 186.753 105.416C182.913 110.485 183.828 117.77 188.795 121.687C193.763 125.605 200.902 124.672 204.742 119.603Z" fill="#F5C893"/>
<path d="M195.719 124.295C192.699 124.294 189.798 123.09 187.635 120.939C185.472 118.788 184.217 115.861 184.137 112.78C184.057 109.7 185.159 106.709 187.207 104.444C189.256 102.18 192.09 100.821 195.105 100.656C198.121 100.492 201.081 101.535 203.355 103.563C205.628 105.592 207.036 108.446 207.278 111.518C207.521 114.59 206.579 117.637 204.652 120.011C202.726 122.384 199.968 123.897 196.965 124.227C196.551 124.272 196.135 124.294 195.719 124.295ZM195.762 101.095C195.359 101.095 194.956 101.116 194.555 101.159C192.727 101.357 190.975 102.012 189.454 103.066C187.933 104.12 186.691 105.541 185.837 107.202C184.983 108.863 184.544 110.714 184.559 112.59C184.573 114.465 185.041 116.309 185.92 117.956C186.8 119.603 188.064 121.003 189.601 122.033C191.138 123.062 192.9 123.689 194.73 123.857C196.561 124.026 198.405 123.731 200.097 122.999C201.79 122.266 203.279 121.119 204.433 119.659C205.756 117.986 206.588 115.965 206.834 113.83C207.08 111.696 206.729 109.533 205.823 107.593C204.917 105.652 203.491 104.012 201.711 102.863C199.931 101.713 197.869 101.1 195.762 101.095Z" fill="#263238"/>
<path d="M193.205 193.232C192.452 184.26 190.39 160.06 189.814 156.664C189.109 152.488 186.709 148.312 184.718 145.144C182.727 141.976 180.202 139.236 178.932 134.628C177.662 130.02 175.259 122.228 175.259 122.228C175.259 122.228 172.86 116.32 173.848 113.296C174.836 110.272 178.223 110.848 178.223 110.848C178.223 110.848 177.376 107.392 178.932 105.648C180.488 103.904 184.154 104.208 184.154 104.208C184.154 104.208 183.166 101.616 184.295 99.4559C185.424 97.2959 188.528 97.0079 189.093 97.5839C189.657 98.1599 195.447 103.776 195.447 103.776C195.447 103.776 194.742 96.2879 194.742 94.4159C194.742 92.5439 193.613 92.1079 193.613 92.1079C193.613 92.1079 190.927 93.4079 190.927 90.1079C190.927 86.8079 195.608 86.7999 196.874 86.9479C198.14 87.0959 201.39 89.5399 202.362 90.5479C203.334 91.5559 205.612 98.3279 206.317 104.232C207.023 110.136 210.551 116.188 210.551 116.188L214.361 111.724C214.735 111.752 215.094 111.889 215.394 112.119C215.694 112.348 215.924 112.661 216.055 113.02C216.623 114.316 216.905 118.64 216.905 121.232C216.905 123.824 216.196 128.432 214.643 131.892C213.091 135.352 211.68 138.228 212.527 143.124C213.373 148.02 216.482 159.548 216.482 159.548L225.678 192.256" fill="#F5C893"/>
<path d="M193.013 193.247C192.182 183.371 190.187 160.047 189.622 156.699C188.94 152.655 186.686 148.643 184.569 145.247C184.075 144.447 183.554 143.703 183.001 142.907C181.386 140.575 179.716 138.163 178.756 134.679C177.502 130.127 175.114 122.375 175.091 122.299C174.997 122.071 172.68 116.299 173.679 113.243C174.538 110.619 177.133 110.575 177.991 110.631C177.823 109.759 177.439 107.055 178.803 105.539C180.167 104.023 182.966 103.987 183.899 104.019C183.672 103.267 183.197 101.199 184.146 99.3829C185.032 97.6909 186.91 97.2829 187.462 97.1989C188.285 97.0749 188.975 97.1749 189.258 97.4669C189.728 97.9469 193.93 102.027 195.224 103.287C195.063 101.531 194.569 96.0269 194.569 94.4389C194.569 92.9789 193.86 92.4749 193.632 92.3509C193.338 92.4749 192.362 92.8149 191.617 92.3509C191.045 91.9829 190.755 91.2389 190.755 90.1349C190.745 89.7272 190.823 89.3223 190.983 88.9486C191.143 88.5748 191.381 88.2411 191.68 87.9709C193.06 86.7069 195.702 86.6309 196.906 86.7709C198.281 86.9269 201.566 89.4509 202.527 90.4309C203.562 91.4869 205.816 98.2349 206.533 104.231C207.148 109.371 209.955 114.691 210.606 115.871L214.299 111.547H214.385C214.797 111.575 215.193 111.724 215.525 111.975C215.857 112.226 216.112 112.569 216.259 112.963C216.85 114.315 217.125 118.711 217.125 121.255C217.037 124.95 216.264 128.594 214.847 131.995L214.679 132.371C213.209 135.635 211.935 138.455 212.742 143.115C213.581 147.947 216.662 159.403 216.694 159.515L225.89 192.223L225.498 192.335L216.306 159.599C216.274 159.483 213.189 147.999 212.35 143.159C211.523 138.379 212.817 135.503 214.31 132.179L214.479 131.807C215.873 128.457 216.634 124.869 216.721 121.231C216.721 118.619 216.431 114.343 215.89 113.099C215.776 112.792 215.583 112.521 215.331 112.316C215.079 112.11 214.778 111.977 214.459 111.931L210.539 116.527L210.402 116.291C210.367 116.231 206.843 110.135 206.141 104.255C205.447 98.4389 203.221 91.6869 202.245 90.6909C201.178 89.6029 198.015 87.2789 196.855 87.1469C195.694 87.0149 193.217 87.0789 191.935 88.2469C191.678 88.4808 191.475 88.7693 191.34 89.0921C191.204 89.4148 191.14 89.764 191.151 90.1149C191.151 91.0709 191.382 91.7149 191.829 91.9909C192.519 92.4389 193.546 91.9549 193.554 91.9509L193.628 91.9149L193.707 91.9469C193.758 91.9469 194.965 92.4509 194.965 94.4389C194.965 96.2789 195.663 103.707 195.671 103.783L195.718 104.315L195.326 103.947C195.091 103.715 189.532 98.3189 188.971 97.7469C188.811 97.5869 188.262 97.4829 187.513 97.5949C187.004 97.6709 185.283 98.0429 184.483 99.5749C183.413 101.623 184.342 104.135 184.354 104.159L184.463 104.455L184.154 104.431C184.118 104.431 180.559 104.171 179.089 105.807C177.619 107.443 178.423 110.775 178.431 110.811L178.501 111.107L178.207 111.055C178.078 111.035 174.973 110.547 174.052 113.371C173.095 116.291 175.432 122.103 175.455 122.171C175.479 122.239 177.878 130.019 179.136 134.571C180.077 137.987 181.727 140.371 183.323 142.679C183.852 143.443 184.401 144.231 184.891 145.035C187.027 148.459 189.305 152.519 189.987 156.635C190.551 159.987 192.546 183.335 193.378 193.215L193.013 193.247Z" fill="#263238"/>
<path d="M184.318 104.118L184.02 104.377L187.971 109.129L188.269 108.87L184.318 104.118Z" fill="#263238"/>
<path d="M178.409 110.752L178.07 110.954L181.035 116.14L181.374 115.938L178.409 110.752Z" fill="#263238"/>
<path d="M194.345 115.881L194.035 115.637C195.207 114.001 195.836 112.027 195.831 110.001H196.223C196.239 112.117 195.58 114.181 194.345 115.881Z" fill="#263238"/>
<path d="M186.739 119.022L186.395 118.834C187.206 117.314 187.081 114.214 187.077 114.182H187.469C187.476 114.298 187.602 117.41 186.739 119.022Z" fill="#263238"/>
<path d="M179.966 123.768L179.617 123.592C180.148 122.385 180.475 121.095 180.585 119.776L180.977 119.804C180.866 121.175 180.524 122.516 179.966 123.768Z" fill="#263238"/>
<path d="M213.887 118.823C212.319 118.239 210.504 116.423 210.43 116.331L210.704 116.047C210.704 116.067 212.527 117.895 214.02 118.447L213.887 118.823Z" fill="#263238"/>
<path d="M198.743 90.7999L198.434 90.5519C198.626 90.2829 198.87 90.0569 199.151 89.8877C199.432 89.7184 199.744 89.6096 200.068 89.5679C201.323 89.4279 202.456 90.3679 202.503 90.3919L202.256 90.6999C202.256 90.6999 201.197 89.8399 200.107 89.9639C199.836 90.0019 199.576 90.0956 199.341 90.2393C199.107 90.383 198.903 90.5737 198.743 90.7999Z" fill="#263238"/>
<path opacity="0.18" d="M112.644 112.134C112.392 112.386 112.099 112.59 111.778 112.738C111.776 112.929 111.786 113.12 111.809 113.31L117.25 135.494C117.817 136.784 118.72 137.891 119.861 138.694C119.297 138.06 118.833 137.341 118.485 136.562L113.044 114.382C112.944 113.302 113.121 112.215 113.557 111.226L112.644 112.134Z" fill="black"/>
<path opacity="0.18" d="M133.977 140.079C133.989 140.1 133.997 140.123 134.001 140.147C134.475 142.031 128.046 145.223 119.642 147.275C115.655 148.247 111.375 149.075 107.282 148.875C106.448 148.849 105.622 148.704 104.828 148.443C105.185 149.311 107.055 149.675 108.435 149.739C112.531 149.927 116.812 149.099 120.798 148.139C129.203 146.087 135.631 142.895 135.157 141.011C135.055 140.607 134.644 140.295 133.977 140.079Z" fill="black"/>
<path d="M110.062 150.611C109.4 150.611 108.741 150.587 108.102 150.535C107.522 150.487 104.602 150.187 104.1 148.715C103.869 148.043 104.202 147.283 105.08 146.451C106.166 145.427 108.008 144.323 110.415 143.251C111.175 142.916 111.916 142.538 112.634 142.119C114.01 141.319 114.79 140.723 115.021 140.331C116.08 138.547 115.88 136.299 115.876 136.275L110.439 114.123C109.981 113.043 109.23 112.118 108.275 111.459C106.762 110.415 87.0285 91.7827 83.085 88.0587L82.25 87.2587L83.2966 87.7187C85.8917 88.8547 95.037 87.8227 105.037 85.2627C115.037 82.7027 123.594 79.2027 125.343 76.9467L126.048 76.0347L125.68 77.1347C123.249 84.4107 115.26 108.267 114.433 109.871C113.89 110.918 113.657 112.103 113.763 113.283L119.169 135.467C119.169 135.467 120.035 137.543 121.787 138.603C122.14 138.819 122.963 138.951 124.323 139.003C125.227 139.037 126.132 139.007 127.032 138.915C132.297 138.387 135.656 139.023 136.048 140.611C136.632 143.011 130.043 146.679 121.042 148.947C117.746 149.791 113.916 150.611 110.062 150.611ZM83.9552 88.3667C89.0042 93.1347 107.052 110.155 108.475 111.139C109.509 111.845 110.316 112.847 110.795 114.019L116.244 136.219C116.361 137.722 116.046 139.227 115.339 140.551C115.064 141.015 114.284 141.607 112.81 142.475C112.079 142.905 111.324 143.29 110.548 143.631C108.196 144.671 106.382 145.751 105.327 146.743C104.57 147.459 104.276 148.079 104.449 148.583C104.755 149.479 106.511 150.007 108.114 150.135C112.571 150.487 117.13 149.539 120.968 148.567C130.341 146.203 136.146 142.599 135.687 140.715C135.366 139.379 131.987 138.831 127.083 139.319C126.164 139.417 125.239 139.448 124.316 139.411C122.881 139.347 122.014 139.199 121.599 138.947C120.371 138.127 119.402 136.963 118.808 135.595L113.359 113.383C113.232 112.113 113.478 110.834 114.065 109.707C114.849 108.163 122.798 84.4787 125.017 77.8507C122.344 80.1627 114.488 83.2747 105.111 85.6747C95.7348 88.0747 87.393 89.1147 83.9552 88.3667Z" fill="#263238"/>
<path d="M86.784 88.6024C84.5261 88.6024 82.5191 88.3024 82.2643 87.2704C81.9115 85.8304 85.2199 83.9984 88.058 82.7184C91.978 80.9464 97.3406 79.1544 103.142 77.6704C113.887 74.9184 125.372 73.5704 125.988 76.0704C126.341 77.5104 123.032 79.3384 120.19 80.6224C116.27 82.3944 110.912 84.1864 105.11 85.6704C99.3084 87.1544 93.742 88.1544 89.4771 88.4704C88.5911 88.5544 87.6739 88.6024 86.784 88.6024ZM121.496 75.1344C117.576 75.1344 111.112 76.0424 103.236 78.0584C97.4582 79.5344 92.1231 81.3224 88.2187 83.0864C84.5104 84.7584 82.425 86.2864 82.6445 87.1704C82.864 88.0544 85.3885 88.4024 89.4496 88.0904C93.7067 87.7624 99.2496 86.7664 105.016 85.2904C110.782 83.8144 116.125 82.0264 120.033 80.2624C123.742 78.5904 125.827 77.0624 125.608 76.1784C125.439 75.4944 123.973 75.1344 121.496 75.1344Z" fill="#263238"/>
<path d="M109.239 109.95C109.716 110.288 110.297 110.439 110.874 110.374C112.105 110.178 112.775 109.046 112.948 108.718L112.995 108.626C113.661 107.382 121.227 85.6343 121.227 85.6343L94.4727 96.7023C99.4863 101.298 108.067 109.134 108.886 109.682C109.009 109.764 109.127 109.854 109.239 109.95Z" fill="#DA37F5"/>
<path d="M110.589 110.599C110.07 110.582 109.566 110.417 109.135 110.123C109.029 110.035 108.915 109.947 108.794 109.863C107.963 109.311 99.3857 101.463 94.3524 96.8708L94.1211 96.6548L121.592 85.2988L121.447 85.6988C121.138 86.5868 113.854 107.475 113.188 108.719L113.145 108.807C112.957 109.171 112.243 110.359 110.922 110.571C110.812 110.589 110.701 110.598 110.589 110.599ZM109.354 109.799C109.789 110.107 110.317 110.248 110.844 110.199C111.981 110.019 112.612 108.963 112.776 108.647L112.823 108.551C113.423 107.431 119.852 89.0388 120.91 86.0068L94.8306 96.8068C99.8835 101.403 108.194 108.983 108.978 109.515C109.114 109.599 109.245 109.691 109.37 109.791L109.354 109.799Z" fill="#263238"/>
<path d="M107.961 107.581L107.688 107.868L109.629 109.801L109.903 109.515L107.961 107.581Z" fill="#263238"/>
<path d="M91.68 91.3592L91.4062 91.6455L106.665 106.84L106.939 106.554L91.68 91.3592Z" fill="#263238"/>
<path d="M117.451 81.5576L111.441 102.586L113.503 103.198L119.991 80.4976C119.207 80.8456 118.36 81.1976 117.451 81.5576Z" fill="#CCCCCC"/>
<path d="M113.637 103.447L111.199 102.723L117.291 81.4071L117.381 81.3751C118.287 81.0191 119.137 80.6631 119.913 80.3151L120.305 80.1431L113.637 103.447ZM111.677 102.451L113.363 102.951L119.678 80.8511C119.031 81.1351 118.338 81.4231 117.604 81.7111L111.677 102.451Z" fill="#263238"/>
<path d="M106.547 86.196L111.561 107.6C111.568 107.648 111.594 107.692 111.632 107.721C111.671 107.749 111.719 107.761 111.766 107.754C111.814 107.747 111.856 107.72 111.884 107.681C111.913 107.642 111.925 107.592 111.917 107.544L109.702 85.104L106.547 86.196Z" fill="white"/>
<path d="M127.629 66.2275C126.096 65.9856 124.529 66.3208 123.22 67.1708C121.911 68.0209 120.949 69.3276 120.515 70.8475L119.339 75.0195L117.469 81.5595C118.378 81.2035 119.225 80.8475 120.009 80.4995L121.577 74.9435L122.573 71.4635C122.863 70.4545 123.504 69.5876 124.374 69.024C125.244 68.4604 126.285 68.2385 127.304 68.3995L140.075 70.3995L140.401 68.2355L127.629 66.2275Z" fill="#CCCCCC"/>
<path d="M117.152 81.8902L120.343 70.7982C120.792 69.2319 121.783 67.8854 123.133 67.009C124.482 66.1327 126.097 65.7863 127.678 66.0342L140.641 68.0702L140.249 70.6302L127.282 68.5942C126.31 68.4416 125.316 68.6549 124.487 69.1944C123.657 69.7338 123.049 70.5626 122.774 71.5262L120.163 80.6502L120.081 80.6862C119.297 81.0382 118.446 81.3942 117.533 81.7542L117.152 81.8902ZM126.654 66.3502C125.313 66.3506 124.007 66.7948 122.934 67.6162C121.86 68.4376 121.076 69.592 120.7 70.9062L117.752 81.2262C118.485 80.9302 119.183 80.6382 119.826 80.3502L122.386 71.4062C122.691 70.3521 123.36 69.4468 124.27 68.8584C125.18 68.2699 126.268 68.0382 127.333 68.2062L139.908 70.1822L140.175 68.4142L127.595 66.4382C127.284 66.3849 126.97 66.3555 126.654 66.3502Z" fill="#263238"/>
<path d="M112.705 148.126H112.505C109.667 148.094 108.255 147.726 108.056 146.926C107.879 146.242 108.659 145.418 110.517 144.326L111.235 143.926C113.085 142.866 115.884 141.262 116.386 139.782C116.938 138.182 116.386 136.018 115.994 134.45L115.935 134.214C115.543 132.662 110.639 112.666 110.592 112.462V112.382L111.376 111.01L118.087 138.138C118.23 138.629 118.252 139.148 118.149 139.65C118.046 140.151 117.823 140.619 117.499 141.01C116.709 141.82 115.855 142.564 114.947 143.234C113.81 144.13 112.524 145.15 112.379 145.578C112.357 145.631 112.351 145.689 112.362 145.746C112.374 145.802 112.401 145.854 112.442 145.894C112.869 146.394 114.743 146.694 118.6 145.858C120.975 145.386 123.322 144.784 125.633 144.054L127.405 143.43L125.797 144.414C125.723 144.45 119.651 148.126 112.705 148.126ZM110.98 112.446C111.321 113.838 115.919 132.61 116.303 134.114L116.362 134.35C116.778 135.95 117.35 138.182 116.754 139.914C116.201 141.514 113.328 143.182 111.423 144.274L110.709 144.674C108.569 145.934 108.357 146.566 108.428 146.826C108.499 147.086 109.149 147.678 112.505 147.714C117.162 147.766 121.419 146.114 123.747 145.018C122.571 145.334 120.909 145.758 118.651 146.238C115.241 146.97 112.799 146.934 112.121 146.146C112.035 146.052 111.977 145.936 111.952 145.81C111.927 145.684 111.936 145.554 111.979 145.434C112.152 144.93 113.112 144.142 114.676 142.906C115.563 142.252 116.398 141.528 117.173 140.742C117.452 140.399 117.644 139.992 117.733 139.556C117.822 139.121 117.805 138.669 117.683 138.242L111.199 112.03L110.98 112.446Z" fill="#263238"/>
<path d="M101.626 191.223C101.987 186.023 101.316 164.023 102.716 159.439C105.628 149.879 117.353 139.439 118.886 136.787C120.419 134.135 119.838 132.711 119.838 132.711C120.284 130.176 120.443 127.598 120.313 125.027C120.078 120.935 121.265 117.187 121.849 114.035C122.188 112.059 122.045 110.029 121.434 108.123C121.434 108.123 121.991 107.415 122.473 103.235C122.837 100.075 124.578 96.8868 125.24 93.8068C125.683 91.7588 126.714 88.1068 126.647 86.6508C126.581 85.1948 125.813 86.9228 125.813 86.9228C125.813 86.9228 122.986 87.9868 121.775 89.9988C120.564 92.0108 117.396 95.7388 114.072 105.295C110.748 114.851 106.024 120.707 103.825 122.495C101.626 124.283 99.772 123.423 99.5446 118.523C99.3172 113.623 99.0977 107.511 97.4396 103.083C95.7814 98.6548 93.0962 97.2508 91.2812 96.0988C89.4663 94.9468 89.7132 98.6308 90.0033 100.819C90.2934 103.007 91.1793 106.619 91.5478 109.051C91.9163 111.483 92.371 114.159 92.3004 116.871C92.2299 119.583 91.0186 126.163 89.7211 129.143C88.4236 132.123 86.099 138.131 85.8873 155.407C85.7658 165.007 77.9258 187.859 75.6953 193.471" fill="#986666"/>
<path d="M75.8763 193.558L75.5156 193.406C77.6403 188.102 85.5861 165.122 85.7076 155.406C85.9311 137.406 88.4712 131.558 89.5571 129.066C90.8585 126.078 92.058 119.466 92.1207 116.866C92.1835 114.366 91.7954 111.834 91.4504 109.602L91.372 109.086C91.1956 107.934 90.9016 106.494 90.6155 105.106C90.3058 103.582 89.9843 102.006 89.8315 100.85C89.561 98.8501 89.4395 96.3741 90.2783 95.8101C90.5802 95.6061 90.9604 95.6501 91.4073 95.9341L91.8189 96.1901C93.6143 97.3141 96.0799 98.8502 97.6401 103.014C99.2434 107.282 99.5139 113.158 99.7295 117.878L99.7569 118.518C99.9059 121.718 100.717 122.738 101.368 123.038C102.152 123.406 103.085 122.862 103.72 122.342C105.774 120.662 110.545 114.922 113.912 105.218C116.656 97.3141 119.255 93.4341 120.815 91.1141C121.133 90.6421 121.407 90.2341 121.619 89.8821C122.752 88.0021 125.202 86.9461 125.676 86.7581C125.974 86.1141 126.256 85.8101 126.507 85.8621C126.758 85.9141 126.836 86.3021 126.852 86.6301C126.903 87.7381 126.358 89.9901 125.876 91.9781C125.711 92.6621 125.554 93.3061 125.441 93.8421C125.106 95.2213 124.681 96.5762 124.171 97.8981C123.536 99.6581 122.881 101.474 122.677 103.25C122.285 106.714 121.827 107.826 121.658 108.138C122.257 110.051 122.391 112.084 122.05 114.062C121.909 114.814 121.736 115.594 121.552 116.414C120.984 118.994 120.333 121.918 120.513 125.006C120.64 127.576 120.484 130.152 120.047 132.686C120.145 132.998 120.466 134.442 119.059 136.878C118.62 137.642 117.417 138.962 115.758 140.794C111.729 145.23 104.99 152.654 102.909 159.49C101.987 162.514 101.972 173.09 101.96 181.618C101.96 185.838 101.96 189.478 101.827 191.218L101.435 191.19C101.556 189.458 101.56 185.822 101.568 181.61C101.568 173.07 101.595 162.446 102.532 159.362C104.641 152.442 111.419 144.962 115.468 140.514C117.036 138.77 118.302 137.394 118.722 136.666C120.176 134.15 119.667 132.782 119.663 132.77L119.639 132.714V132.654C120.079 130.137 120.237 127.576 120.11 125.022C119.929 121.874 120.584 118.922 121.16 116.318C121.34 115.518 121.513 114.718 121.65 113.982C121.985 112.042 121.85 110.049 121.258 108.174L121.223 108.07L121.289 107.982C121.309 107.954 121.826 107.182 122.289 103.182C122.497 101.362 123.163 99.5221 123.802 97.7421C124.307 96.4389 124.726 95.1025 125.057 93.7421C125.174 93.2061 125.331 92.5421 125.496 91.8701C125.946 90.0061 126.507 87.6861 126.46 86.6381C126.458 86.5196 126.444 86.4015 126.417 86.2861C126.246 86.4988 126.105 86.7343 125.997 86.9861L125.966 87.0621L125.888 87.0901C125.86 87.0901 123.112 88.1541 121.968 90.0821C121.752 90.4381 121.474 90.8501 121.152 91.3301C119.604 93.6341 117.017 97.4861 114.296 105.33C110.905 115.122 106.064 120.93 103.987 122.634C102.952 123.478 101.999 123.738 101.243 123.386C100.149 122.882 99.5295 121.242 99.4041 118.518L99.3727 117.878C99.1571 113.186 98.8867 107.346 97.3108 103.138C95.7938 99.0981 93.3908 97.6061 91.6464 96.5141L91.2348 96.2541C90.9291 96.0581 90.6899 96.0142 90.5253 96.1262C90.0079 96.4662 89.9059 98.2061 90.2548 100.778C90.4077 101.918 90.7291 103.486 91.0388 105.002C91.325 106.398 91.619 107.842 91.7954 109.002L91.8777 109.522C92.2227 111.77 92.6147 114.322 92.5519 116.858C92.4892 119.53 91.2975 126.13 89.953 129.21C88.8789 131.678 86.3583 137.458 86.1388 155.394C85.9781 165.198 78.0087 188.238 75.8763 193.558Z" fill="#263238"/>
<path d="M121.434 108.122C121.434 108.122 118.18 116.182 118.062 119.982L121.434 108.122Z" fill="#986666"/>
<path d="M118.259 120H117.867C117.985 116.204 121.121 108.4 121.254 108.068L121.619 108.22C121.583 108.28 118.385 116.268 118.259 120Z" fill="#263238"/>
<path d="M90.0186 100.828C90.0186 100.828 91.0378 106.14 91.6728 106.068C92.3439 105.899 92.9329 105.489 93.3317 104.913C93.7306 104.337 93.9126 103.634 93.8445 102.932C93.7073 100.828 92.0726 97.7322 91.2965 96.1082C90.5203 94.4842 89.117 95.8842 90.0186 100.828Z" fill="#FFC300"/>
<path d="M91.6697 106.271C91.0033 106.271 90.3016 103.343 89.8273 100.871C89.1922 97.3746 89.6666 95.5506 90.4231 95.2986C90.6074 95.2346 91.0738 95.1826 91.4737 96.0226C91.5678 96.2226 91.6775 96.4466 91.7951 96.6826C92.6418 98.4186 93.9198 101.035 94.0413 102.923C94.1148 103.677 93.9166 104.433 93.4837 105.049C93.0509 105.665 92.413 106.099 91.6893 106.271H91.6697ZM90.2154 100.799C90.6544 103.107 91.3443 105.707 91.6854 105.879C92.2959 105.703 92.8266 105.314 93.1848 104.779C93.543 104.245 93.706 103.599 93.6454 102.955C93.5278 101.147 92.2734 98.5546 91.4384 96.8666L91.117 96.2026C90.9366 95.8226 90.725 95.6226 90.5407 95.6786C90.1605 95.8066 89.5646 97.2306 90.2154 100.799Z" fill="#0B0A0A"/>
<path d="M125.735 86.8421C125.735 86.8421 124.167 89.7781 124.505 90.8741C124.842 91.9701 126.21 94.3901 126.762 88.6101C126.919 86.9461 126.911 85.9781 126.629 85.8101C126.347 85.6421 125.735 86.8421 125.735 86.8421Z" fill="#FFC300"/>
<path d="M125.57 92.5223C124.825 92.5223 124.339 91.0023 124.316 90.9223C123.955 89.7823 125.39 87.0543 125.562 86.7343C125.684 86.4863 126.115 85.6903 126.472 85.5863C126.515 85.5731 126.56 85.5692 126.604 85.5747C126.649 85.5802 126.692 85.595 126.73 85.6183C127.036 85.8103 127.169 86.3623 126.954 88.6183C126.632 92.0063 126.044 92.4623 125.629 92.5063L125.57 92.5223ZM126.55 85.9983C126.283 86.2677 126.066 86.5832 125.907 86.9303C125.48 87.7303 124.429 89.9743 124.688 90.8063C124.892 91.4463 125.311 92.1543 125.59 92.1103C125.739 92.1103 126.26 91.7903 126.566 88.5863C126.758 86.5863 126.636 86.1063 126.55 85.9983Z" fill="#263238"/>
<path d="M35.1457 183.021L50.2848 149.821C50.2848 149.821 54.9888 146.653 57.819 145.397C60.6493 144.141 67.5641 137.045 67.5641 137.045L74.6789 127.445C74.6789 127.445 78.548 124.645 79.5476 123.953C80.5472 123.261 81.7271 120.849 81.8525 118.501C81.978 116.153 79.1085 114.965 79.1085 114.965C79.1085 114.965 79.6534 114.529 80.4923 113.733C81.1266 113.165 81.5979 112.432 81.8561 111.612C82.1143 110.792 82.1497 109.916 81.9584 109.077C81.5193 106.621 78.5088 105.877 78.5088 105.877C78.5088 105.877 80.4374 105.165 80.8177 103.689C81.1979 102.213 80.7942 99.8849 79.379 98.6729C77.9639 97.4609 75.5139 99.1489 75.5139 99.1489C75.5139 99.1489 76.2313 98.3889 76.7369 97.8289C77.2426 97.2689 79.8024 95.9609 77.8894 93.9449C75.9765 91.9289 71.7507 93.4649 66.8115 96.7089C61.8723 99.9529 46.8195 107.441 43.8129 111.873C40.8062 116.305 39.6224 123.317 37.9564 126.797C36.2904 130.277 33.2524 134.057 33.2524 134.057C33.2524 134.057 14.2678 164.229 12.935 166.533C11.6022 168.837 9.1875 172.473 9.1875 172.473" fill="#FFD4A7"/>
<path d="M35.3227 183.108L34.9699 182.936L50.1286 149.668L50.1756 149.636C50.2226 149.608 54.9188 146.436 57.7412 145.196C60.5636 143.956 67.357 136.956 67.4236 136.884L74.5658 127.252C74.5658 127.252 78.4388 124.452 79.4345 123.756C80.4302 123.06 81.5356 120.744 81.6571 118.46C81.7747 116.276 79.0621 115.132 79.0346 115.12L78.7171 114.992L78.9837 114.776C78.9837 114.776 79.5325 114.34 80.3557 113.576C80.9644 113.029 81.4166 112.324 81.6644 111.536C81.9121 110.748 81.9462 109.906 81.763 109.1C81.3514 106.8 78.4898 106.076 78.4584 106.068L77.8234 105.912L78.4388 105.688C78.4584 105.688 80.2773 104.992 80.6222 103.636C80.9907 102.204 80.5713 99.956 79.2502 98.836C77.9292 97.716 75.6438 99.304 75.6203 99.32L74.0876 100.352L75.3734 98.992C75.3734 98.992 76.0868 98.236 76.5925 97.676C76.7287 97.5404 76.8741 97.4148 77.0276 97.3C77.549 96.9 78.3408 96.252 78.3918 95.468C78.3885 95.2013 78.3294 94.9385 78.2186 94.6971C78.1077 94.4556 77.9476 94.2411 77.7489 94.068C76.0986 92.328 72.351 93.292 66.9179 96.868C65.5067 97.796 63.2998 99.052 60.74 100.508C54.5621 104.024 46.0949 108.844 43.9742 111.98C42.12 114.724 40.9636 118.468 39.9444 121.772C39.4542 123.52 38.8505 125.233 38.1373 126.9C36.4791 130.376 33.4333 134.164 33.3902 134.204C33.2138 134.484 14.4252 164.368 13.1002 166.644C11.7753 168.92 9.37232 172.556 9.34488 172.592L9.02344 172.368C9.04696 172.332 11.4421 168.712 12.7631 166.44C14.0842 164.168 32.8845 134.268 33.0766 133.968C33.1197 133.912 36.1498 130.156 37.7806 126.728C38.485 125.078 39.0821 123.382 39.5681 121.652C40.5951 118.32 41.7594 114.544 43.6488 111.752C45.8205 108.552 53.9858 103.892 60.5479 100.152C63.0998 98.7 65.3029 97.448 66.7023 96.528C72.3942 92.792 76.2044 91.868 78.0272 93.796C78.2643 94.009 78.4541 94.2712 78.5839 94.565C78.7137 94.8589 78.7805 95.1776 78.7798 95.5C78.7132 96.46 77.843 97.156 77.2667 97.616C77.1289 97.7189 76.9979 97.8312 76.8747 97.952L76.4827 98.396C77.3647 98.024 78.6152 97.736 79.5129 98.508C80.9711 99.756 81.4219 102.14 81.0142 103.708C80.7359 104.796 79.6971 105.484 79.0542 105.808C79.9637 106.144 81.7982 107.052 82.1432 109.008C82.3415 109.88 82.3044 110.791 82.0359 111.643C81.7674 112.495 81.2775 113.257 80.6183 113.848C80.1048 114.332 79.7089 114.68 79.4698 114.884C80.2263 115.284 82.155 116.448 82.0452 118.484C81.9158 120.92 80.7046 123.348 79.654 124.084C78.7054 124.756 75.146 127.32 74.8128 127.556L67.7176 137.156C67.4158 137.464 60.7361 144.312 57.8941 145.556C55.252 146.724 50.9282 149.6 50.4461 149.932L35.3227 183.108Z" fill="#263238"/>
<path d="M31.3596 64.8845C32.6364 64.5082 33.9961 64.545 35.2516 64.9898C36.5071 65.4345 37.5966 66.2654 38.3703 67.368C39.144 68.4706 39.5638 69.7908 39.5719 71.1469C39.58 72.503 39.176 73.8283 38.4156 74.9405L54.5935 93.9045L52.5982 94.9045L36.7535 76.6165C36.1992 76.9976 35.5911 77.2903 34.9503 77.4845C33.3312 77.9109 31.613 77.6771 30.1599 76.8328C28.7068 75.9885 27.6329 74.6 27.166 72.9616C26.6991 71.3231 26.8758 69.5636 27.6586 68.0558C28.4415 66.548 29.7689 65.4105 31.3596 64.8845Z" fill="#BFBFBF"/>
<path d="M52.5516 95.1538L52.4536 95.0378L36.7187 76.8778C36.187 77.2246 35.6104 77.4939 35.0056 77.6778C33.3234 78.1641 31.5211 77.9524 29.9911 77.089C28.461 76.2256 27.3273 74.7804 26.8367 73.068C26.346 71.3556 26.5383 69.5147 27.3715 67.9463C28.2048 66.3778 29.6116 65.2088 31.2856 64.6938C32.5899 64.3041 33.9802 64.3331 35.2678 64.777C36.5554 65.2209 37.6781 66.0582 38.4835 67.1753C39.289 68.2924 39.7382 69.6352 39.7703 71.0217C39.8024 72.4082 39.4158 73.7712 38.663 74.9258L54.9114 93.9698L52.5516 95.1538ZM36.7853 76.3538L52.6456 94.6578L54.2803 93.8378L38.1652 74.9538L38.2553 74.8258C39.0956 73.5955 39.4825 72.1015 39.3476 70.6082C39.2126 69.1149 38.5646 67.7183 37.518 66.6655C36.4714 65.6126 35.0937 64.9713 33.6285 64.8549C32.1632 64.7385 30.7048 65.1546 29.5112 66.0294C28.3175 66.9043 27.4655 68.1817 27.1057 69.6357C26.7459 71.0898 26.9015 72.6268 27.5451 73.975C28.1886 75.3232 29.2786 76.3959 30.6224 77.0032C31.9662 77.6105 33.4771 77.7135 34.888 77.2938C35.5095 77.1048 36.099 76.8202 36.6364 76.4498L36.7853 76.3538Z" fill="#263238"/>
<path d="M72.2986 92.4225C78.3077 90.6283 81.7536 84.2031 79.9953 78.0714C78.237 71.9397 71.9403 68.4234 65.9312 70.2176C59.9221 72.0118 56.4762 78.437 58.2345 84.5688C59.9928 90.7005 66.2895 94.2167 72.2986 92.4225Z" fill="#E77644"/>
<path d="M69.1191 93.0859C66.2443 93.09 63.4715 91.9995 61.3431 90.0277C59.2147 88.0559 57.8838 85.3447 57.6108 82.4245C57.3378 79.5044 58.1424 76.5854 59.8671 74.2385C61.5918 71.8917 64.1125 70.2859 66.9362 69.7353C69.7598 69.1847 72.6832 69.7289 75.1344 71.2615C77.5856 72.794 79.3883 75.2047 80.1897 78.0218C80.9912 80.8389 80.7337 83.8598 79.4678 86.4934C78.2018 89.1271 76.0185 91.1841 73.3448 92.2619C71.9997 92.8058 70.5659 93.0854 69.1191 93.0859ZM69.1191 69.9459C66.7379 69.9492 64.4204 70.731 62.5065 72.1765C60.5926 73.6221 59.1829 75.6553 58.4842 77.9781C57.7855 80.3009 57.8345 82.7911 58.624 85.0834C59.4136 87.3757 60.9021 89.3495 62.8714 90.7155C64.8407 92.0814 67.187 92.7676 69.5664 92.6733C71.9458 92.5791 74.233 91.7094 76.0926 90.1919C77.9522 88.6743 79.2864 86.5887 79.8994 84.2408C80.5125 81.893 80.3723 79.4065 79.4992 77.1459C78.6864 75.0124 77.2573 73.1814 75.4014 71.8956C73.5455 70.6097 71.3505 69.9298 69.1073 69.9459H69.1191Z" fill="#263238"/>
<path d="M65.3496 71.1976C64.596 71.5075 63.8825 71.9106 63.225 72.3976C63.1068 72.4786 63.0073 72.585 62.9337 72.7093C62.86 72.8337 62.8139 72.973 62.7986 73.1174C62.7833 73.2619 62.7992 73.408 62.8451 73.5455C62.8909 73.6831 62.9658 73.8087 63.0643 73.9136L67.6115 79.5976C68.811 81.1976 69.5088 80.9256 69.2932 78.9216L68.8228 71.6016C68.8245 71.4561 68.7951 71.3119 68.7366 71.1791C68.6781 71.0464 68.5919 70.9283 68.484 70.8331C68.3761 70.7378 68.2491 70.6678 68.112 70.6278C67.9748 70.5878 67.8308 70.5789 67.6899 70.6016C66.889 70.7029 66.1032 70.903 65.3496 71.1976Z" fill="#FFD4A7"/>
<path d="M68.8569 80.8226C68.4649 80.8226 68.0102 80.4466 67.4535 79.7026L62.9103 74.0266C62.7961 73.9007 62.7098 73.7513 62.6571 73.5885C62.6043 73.4256 62.5864 73.2531 62.6045 73.0826C62.6224 72.9088 62.6772 72.7411 62.7653 72.5911C62.8533 72.4412 62.9723 72.3127 63.1141 72.2146C64.461 71.2407 66.0206 70.6173 67.6574 70.3986C67.8265 70.3712 67.9995 70.3819 68.1642 70.4298C68.3288 70.4777 68.4813 70.5617 68.6108 70.676C68.7404 70.7903 68.8439 70.9321 68.9142 71.0914C68.9844 71.2508 69.0197 71.4239 69.0176 71.5986L69.488 78.9026C69.6017 79.9866 69.4606 80.6266 69.0568 80.7906C68.9931 80.8154 68.925 80.8263 68.8569 80.8226ZM67.8416 70.7746C67.8012 70.7707 67.7605 70.7707 67.7201 70.7746C66.935 70.8808 66.1652 71.0822 65.4269 71.3746C64.6925 71.6759 63.9952 72.0639 63.3493 72.5306C63.2544 72.596 63.1747 72.6818 63.1158 72.782C63.0568 72.8822 63.0201 72.9944 63.0083 73.1106C62.9968 73.2253 63.0098 73.3412 63.0464 73.4502C63.0829 73.5593 63.1421 73.6591 63.2199 73.7426L67.775 79.4386C68.3826 80.2386 68.7746 80.4586 68.9275 80.3946C69.0803 80.3306 69.2175 79.9066 69.1117 78.9106L68.6256 71.5986C68.6288 71.4916 68.6108 71.3849 68.5728 71.2851C68.5348 71.1853 68.4776 71.0942 68.4045 71.0174C68.3314 70.9405 68.2439 70.8794 68.1472 70.8377C68.0505 70.796 67.9466 70.7746 67.8416 70.7746Z" fill="#263238"/>
<path d="M58.9734 78.1008C58.7366 78.8897 58.5944 79.7049 58.55 80.5288C58.5386 80.6737 58.5584 80.8194 58.6078 80.9558C58.6573 81.0922 58.7353 81.2159 58.8365 81.3183C58.9376 81.4207 59.0594 81.4994 59.1934 81.5489C59.3274 81.5984 59.4704 81.6174 59.6123 81.6048L66.8016 81.5208C68.7812 81.5648 69.0007 80.8368 67.3308 79.7568L61.4508 75.5688C61.3404 75.4771 61.2118 75.411 61.0739 75.3752C60.936 75.3393 60.7921 75.3346 60.6522 75.3612C60.5123 75.3879 60.3798 75.4453 60.2639 75.5295C60.1479 75.6137 60.0513 75.7226 59.9808 75.8488C59.5551 76.5541 59.2167 77.3105 58.9734 78.1008Z" fill="#FFD4A7"/>
<path d="M59.5118 81.8092C59.3491 81.8097 59.1881 81.7758 59.0389 81.7096C58.8897 81.6433 58.7557 81.5463 58.6451 81.4244C58.5346 81.3026 58.45 81.1588 58.3968 81.0019C58.3436 80.8451 58.3228 80.6786 58.3358 80.5132C58.3833 79.6747 58.5281 78.8449 58.767 78.0412C59.0098 77.2387 59.3467 76.4691 59.7705 75.7492C59.855 75.597 59.9711 75.4656 60.1105 75.364C60.25 75.2624 60.4096 75.1932 60.578 75.1612C60.7458 75.1299 60.9183 75.1362 61.0835 75.1797C61.2486 75.2232 61.4025 75.3029 61.5345 75.4132L67.4145 79.5932C68.32 80.1772 68.7199 80.6932 68.5905 81.1172C68.4612 81.5412 67.8496 81.7452 66.7638 81.7212L59.5784 81.8052L59.5118 81.8092ZM60.8093 75.5412C60.7624 75.5372 60.7152 75.5372 60.6682 75.5412C60.5547 75.5631 60.4474 75.6103 60.3539 75.6794C60.2604 75.7486 60.183 75.8379 60.1272 75.9412C59.7184 76.6318 59.3933 77.3705 59.159 78.1412V78.1612C58.934 78.9339 58.8024 79.7318 58.767 80.5372C58.7581 80.6533 58.7742 80.7701 58.8142 80.8792C58.8541 80.9884 58.9169 81.0874 58.9983 81.1692C59.0787 81.2502 59.1753 81.3125 59.2816 81.3518C59.3878 81.3912 59.5011 81.4067 59.6137 81.3972L66.8187 81.3132C67.8144 81.3372 68.222 81.1532 68.2691 80.9932C68.3161 80.8332 68.077 80.4532 67.2499 79.9172L61.3385 75.7252C61.1903 75.5995 61.0019 75.534 60.8093 75.5412Z" fill="#263238"/>
<path d="M60.2769 87.4898C60.734 88.1714 61.2711 88.7933 61.8763 89.3418C61.9799 89.4417 62.1037 89.5173 62.239 89.5632C62.3742 89.609 62.5177 89.6241 62.6593 89.6073C62.8009 89.5906 62.9372 89.5423 63.0586 89.4661C63.18 89.3898 63.2835 89.2873 63.3619 89.1658L67.7798 83.3778C69.0499 81.8218 68.6265 81.1938 66.7606 81.8538L59.8692 83.9498C59.7301 83.9807 59.5993 84.0422 59.4858 84.1299C59.3723 84.2176 59.279 84.3295 59.2122 84.4578C59.1454 84.5861 59.1068 84.7277 59.0991 84.8728C59.0914 85.0179 59.1147 85.1629 59.1676 85.2978C59.45 86.0712 59.8225 86.8071 60.2769 87.4898Z" fill="#FFD4A7"/>
<path d="M62.5463 89.815C62.2479 89.815 61.9606 89.6991 61.7427 89.491C60.5103 88.3701 59.5678 86.9564 58.9987 85.375C58.935 85.2129 58.9066 85.0386 58.9157 84.8642C58.9248 84.6898 58.9711 84.5195 59.0514 84.3652C59.1316 84.211 59.2439 84.0764 59.3804 83.971C59.5169 83.8656 59.6742 83.7919 59.8415 83.755L66.7172 81.663C67.7286 81.307 68.3715 81.307 68.6184 81.663C68.8654 82.019 68.6184 82.647 67.9442 83.499L63.5028 89.291C63.4084 89.4325 63.2854 89.5518 63.142 89.6408C62.9987 89.7298 62.8384 89.7865 62.6718 89.807L62.5463 89.815ZM67.9442 81.815C67.5598 81.8381 67.1814 81.9232 66.8231 82.067L59.9278 84.163C59.8143 84.1849 59.707 84.2321 59.6135 84.3013C59.5199 84.3704 59.4426 84.4598 59.3868 84.563C59.3329 84.6662 59.3017 84.7802 59.2957 84.897C59.2896 85.0138 59.3086 85.1305 59.3515 85.239C59.6272 85.9951 59.9904 86.7148 60.4335 87.383C60.8826 88.0493 61.4091 88.6578 62.0015 89.195C62.0854 89.2746 62.1854 89.3345 62.2944 89.3704C62.4034 89.4064 62.5189 89.4175 62.6326 89.403C62.7447 89.3887 62.8526 89.3499 62.9486 89.2891C63.0447 89.2284 63.1268 89.1471 63.1892 89.051L67.6188 83.251C68.2539 82.471 68.3715 82.051 68.2774 81.895C68.2421 81.839 68.1323 81.795 67.9442 81.795V81.815Z" fill="#263238"/>
<path d="M68.2913 92.3024C69.098 92.3634 69.909 92.3231 70.7061 92.1824C70.8464 92.1605 70.9803 92.1077 71.0987 92.0277C71.217 91.9477 71.3169 91.8425 71.3915 91.7192C71.466 91.596 71.5135 91.4577 71.5305 91.3139C71.5475 91.1701 71.5337 91.0242 71.4901 90.8864L69.8084 83.7544C69.4164 81.7544 68.6637 81.7144 68.0052 83.6184L65.3161 90.4184C65.253 90.5487 65.2186 90.6914 65.2151 90.8366C65.2117 90.9819 65.2392 91.1261 65.296 91.2594C65.3527 91.3926 65.4371 91.5116 65.5435 91.6082C65.6499 91.7047 65.7756 91.7765 65.9119 91.8184C66.6827 92.0782 67.4818 92.2407 68.2913 92.3024Z" fill="#FFD4A7"/>
<path d="M68.8848 92.5303C68.6806 92.5339 68.4763 92.5245 68.2733 92.5023C67.4502 92.4336 66.6382 92.2644 65.8546 91.9983C65.6912 91.9478 65.5405 91.8616 65.413 91.7456C65.2856 91.6297 65.1844 91.4868 65.1165 91.327C65.0486 91.1671 65.0156 90.994 65.0199 90.8198C65.0242 90.6457 65.0655 90.4745 65.1412 90.3183L67.8264 83.5183C68.1831 82.4863 68.5829 81.9743 69.0024 82.0063C69.4218 82.0383 69.7668 82.6023 69.9863 83.6903L71.6641 90.8143C71.7139 90.9796 71.7281 91.154 71.7058 91.3254C71.6834 91.4969 71.625 91.6614 71.5345 91.8076C71.4441 91.9539 71.3237 92.0785 71.1816 92.1728C71.0396 92.2672 70.8792 92.3291 70.7115 92.3543C70.1075 92.457 69.497 92.5158 68.8848 92.5303ZM68.9867 82.4303C68.8181 82.4303 68.5163 82.7543 68.2027 83.6823L65.5097 90.4823C65.4477 90.5897 65.4112 90.7103 65.4031 90.8346C65.3949 90.9589 65.4153 91.0835 65.4626 91.1983C65.5076 91.3059 65.5751 91.4021 65.6604 91.4802C65.7458 91.5583 65.8468 91.6164 65.9565 91.6503C66.7091 91.9006 67.4881 92.059 68.2772 92.1223H68.2968C69.0828 92.1738 69.8721 92.1322 70.6488 91.9983C70.7608 91.9811 70.8679 91.9394 70.9626 91.8759C71.0573 91.8124 71.1374 91.7288 71.1974 91.6307C71.2574 91.5326 71.2958 91.4224 71.3101 91.3077C71.3243 91.193 71.314 91.0765 71.2799 90.9663L69.5982 83.8143C69.3944 82.8223 69.1317 82.4543 68.9671 82.4463L68.9867 82.4303Z" fill="#263238"/>
<path d="M76.9672 88.9084C77.5164 88.3025 77.9915 87.6309 78.3823 86.9084C78.4542 86.7827 78.4983 86.6425 78.5116 86.4976C78.5249 86.3527 78.507 86.2066 78.4592 86.0695C78.4115 85.9324 78.3349 85.8075 78.235 85.7037C78.135 85.5999 78.0141 85.5196 77.8806 85.4684L71.3695 82.3604C69.6015 81.4444 69.0959 82.0044 70.1425 83.7164L73.6705 90.1164C73.7303 90.2483 73.8177 90.3653 73.9265 90.4591C74.0353 90.5529 74.163 90.6213 74.3004 90.6594C74.4379 90.6975 74.5819 90.7045 74.7223 90.6798C74.8627 90.6551 74.996 90.5993 75.1131 90.5164C75.793 90.0595 76.4157 89.5195 76.9672 88.9084Z" fill="#FFD4A7"/>
<path d="M74.5653 90.883C74.4606 90.8824 74.3565 90.8676 74.2556 90.839C74.091 90.7934 73.9381 90.7118 73.8074 90.5999C73.6768 90.4881 73.5716 90.3485 73.4991 90.191L69.9711 83.815C69.4027 82.887 69.2615 82.251 69.5555 81.923C69.8495 81.595 70.4885 81.683 71.4607 82.187L77.9639 85.291C78.1212 85.3518 78.2634 85.447 78.3806 85.5701C78.4977 85.6931 78.587 85.8409 78.6421 86.003C78.6999 86.1675 78.7218 86.343 78.7063 86.5171C78.6907 86.6913 78.638 86.8598 78.5519 87.011C78.1555 87.7469 77.6723 88.4306 77.1133 89.047C76.5514 89.6555 75.9196 90.1928 75.2317 90.647C75.0385 90.7934 74.8059 90.8757 74.5653 90.883ZM70.0612 82.127C70.0229 82.1223 69.9841 82.1255 69.947 82.1365C69.91 82.1475 69.8755 82.166 69.8456 82.191C69.7319 82.315 69.7868 82.763 70.3082 83.611L73.8362 90.011C73.8832 90.1195 73.9534 90.2161 74.0415 90.2936C74.1296 90.3711 74.2336 90.4276 74.3458 90.459C74.456 90.4891 74.5713 90.4944 74.6837 90.4743C74.7961 90.4543 74.9028 90.4095 74.9965 90.343C75.6666 89.9054 76.2825 89.387 76.8311 88.799C77.3669 88.2049 77.8302 87.5467 78.2109 86.839C78.2686 86.739 78.3043 86.6275 78.3156 86.512C78.3268 86.3966 78.3133 86.28 78.2761 86.1704C78.2388 86.0608 78.1786 85.9608 78.0996 85.8774C78.0207 85.7939 77.9249 85.7289 77.8189 85.687L71.2921 82.575C70.9183 82.3367 70.4984 82.1839 70.0612 82.127Z" fill="#263238"/>
<path d="M79.7835 79.8738C79.6623 79.0577 79.4437 78.2598 79.1328 77.4978C79.0815 77.362 79.0018 77.2393 78.8993 77.1382C78.7967 77.0371 78.6738 76.9601 78.539 76.9125C78.4043 76.8649 78.261 76.8478 78.1191 76.8626C77.9773 76.8773 77.8403 76.9234 77.7177 76.9978L71.2771 80.2578C69.4739 81.0938 69.5837 81.8578 71.5476 82.0818L78.6467 83.2418C78.7851 83.2752 78.9289 83.2775 79.0682 83.2485C79.2075 83.2196 79.339 83.16 79.4535 83.074C79.568 82.988 79.6628 82.8776 79.7313 82.7505C79.7998 82.6233 79.8403 82.4825 79.8502 82.3378C79.9276 81.5168 79.9052 80.6892 79.7835 79.8738Z" fill="#FFD4A7"/>
<path d="M78.878 83.4698C78.7844 83.4693 78.6911 83.4585 78.5997 83.4378L71.5162 82.2778C70.45 82.1538 69.8738 81.8778 69.8071 81.4298C69.7405 80.9818 70.1991 80.5338 71.1948 80.0738L77.6158 76.8178C77.7611 76.7322 77.9227 76.6794 78.0897 76.6629C78.2567 76.6463 78.4252 76.6664 78.584 76.7218C78.746 76.779 78.8938 76.8716 79.0171 76.9932C79.1403 77.1149 79.236 77.2625 79.2974 77.4258C79.6125 78.1959 79.8362 79.0016 79.9638 79.8258C80.0829 80.6575 80.1053 81.5007 80.0305 82.3378C80.0096 82.6413 79.8766 82.9253 79.6582 83.1325C79.4399 83.3397 79.1526 83.4545 78.8545 83.4538L78.878 83.4698ZM78.2194 77.0698C78.0812 77.0701 77.9457 77.1088 77.8274 77.1818L71.3712 80.4458C70.4657 80.8698 70.1756 81.2138 70.1952 81.3778C70.2148 81.5418 70.5872 81.7778 71.575 81.8938L78.682 83.0578C78.7945 83.0869 78.9119 83.0902 79.0258 83.0673C79.1397 83.0445 79.2472 82.9962 79.3406 82.9258C79.4321 82.8571 79.5079 82.769 79.5627 82.6674C79.6175 82.5659 79.6501 82.4534 79.6581 82.3378C79.7323 81.5382 79.7112 80.7323 79.5954 79.9378C79.4712 79.1401 79.2554 78.36 78.9525 77.6138C78.9111 77.5049 78.8468 77.4066 78.7642 77.3257C78.6816 77.2449 78.5826 77.1834 78.4742 77.1458C78.3956 77.1001 78.3091 77.0702 78.2194 77.0578V77.0698Z" fill="#263238"/>
<path d="M74.6133 71.997C73.9114 71.5874 73.1639 71.2651 72.3868 71.037C72.2522 70.9931 72.1099 70.9796 71.9697 70.9973C71.8295 71.015 71.6947 71.0636 71.5747 71.1397C71.4547 71.2157 71.3523 71.3175 71.2745 71.4379C71.1968 71.5583 71.1456 71.6945 71.1245 71.837L69.6036 79.009C69.1214 80.973 69.7682 81.353 71.1716 79.929L76.491 74.993C76.6031 74.9032 76.6947 74.7896 76.7595 74.66C76.8243 74.5305 76.8608 74.3882 76.8664 74.2429C76.872 74.0976 76.8466 73.9527 76.7919 73.8184C76.7373 73.6841 76.6547 73.5635 76.5498 73.465C75.9649 72.8975 75.3147 72.4046 74.6133 71.997Z" fill="#FFD4A7"/>
<path d="M69.8628 80.9942C69.7655 80.9956 69.6694 80.9708 69.5845 80.9222C69.1925 80.7022 69.1494 80.0462 69.412 78.9702L70.9526 71.8062C70.9753 71.6363 71.0345 71.4736 71.126 71.3298C71.2175 71.186 71.339 71.0645 71.4818 70.9742C71.6261 70.8797 71.789 70.8185 71.959 70.795C72.129 70.7715 72.3019 70.7863 72.4657 70.8382C74.0538 71.302 75.5061 72.1563 76.6954 73.3262C76.8216 73.444 76.9212 73.5885 76.9871 73.7496C77.053 73.9107 77.0836 74.0845 77.0769 74.2589C77.0702 74.4333 77.0262 74.6042 76.9482 74.7595C76.8701 74.9148 76.7597 75.0509 76.6248 75.1582L71.3211 80.0862C70.7095 80.6902 70.2235 80.9942 69.8628 80.9942ZM72.0933 71.1982C71.9435 71.1974 71.7966 71.2404 71.6699 71.3222C71.5747 71.3846 71.4939 71.4674 71.433 71.5647C71.3721 71.6621 71.3326 71.7718 71.3171 71.8862L69.7962 79.0862C69.5531 80.0702 69.6355 80.5142 69.7962 80.5982C69.9569 80.6822 70.3528 80.5262 71.0467 79.8222L76.37 74.8782C76.4625 74.8076 76.5386 74.7171 76.5928 74.6131C76.6471 74.509 76.6781 74.394 76.6837 74.2763C76.6893 74.1586 76.6694 74.0411 76.6253 73.9322C76.5813 73.8232 76.5142 73.7256 76.4288 73.6462C75.8583 73.0867 75.2239 72.5992 74.5394 72.1942C73.8521 71.7945 73.1204 71.4803 72.3599 71.2582C72.2749 71.223 72.1848 71.2028 72.0933 71.1982Z" fill="#263238"/>
<path d="M62.9522 135.335L60.2082 132.535C59.1048 131.405 58.0904 130.188 57.1742 128.895C56.7194 128.251 56.2373 127.615 55.7277 126.943C53.4894 123.999 50.7179 120.359 48.4365 113.199C44.7242 101.599 45.4416 87.4352 45.4651 86.9912C45.4651 85.7312 56.3392 83.3032 57.5897 83.0272C60.855 82.3112 63.9479 81.7472 66.3038 81.4272C70.1219 80.9352 70.2238 81.3472 70.2552 81.5672C70.314 81.6992 77.5033 98.6472 77.9306 105.911C78.6793 118.655 74.5711 128.015 74.528 128.107L72.6307 133.391L62.9522 135.335ZM45.865 87.0032V87.0232C45.865 87.1632 45.081 101.423 48.8167 113.091C51.0786 120.167 53.7128 123.631 56.0334 126.691C56.547 127.367 57.0291 128.003 57.4878 128.651C58.3917 129.93 59.3931 131.133 60.4826 132.251L63.0894 134.919L72.3446 133.087L74.1674 127.999C74.2144 127.895 78.2834 118.619 77.5386 105.979C77.1152 98.7792 69.9573 81.8992 69.8828 81.7312C69.4281 81.4232 64.9828 81.8432 57.672 83.4512C50.3612 85.0592 46.1511 86.5272 45.865 87.0032Z" fill="#263238"/>
<path d="M71.0659 86.4272C73.0847 91.5232 76.6715 101.159 76.9459 106.111C77.6632 118.267 73.7471 127.035 73.7471 127.035L71.646 133.263L63.8374 134.975L60.4779 131.127C59.438 130.066 58.4837 128.921 57.6242 127.703C55.2722 124.347 52.0186 121.159 49.3922 112.923C47.7536 107.803 47.0402 102.195 46.7227 97.6112L71.0659 86.4272Z" fill="#E77644"/>
<path d="M63.7832 135.198L60.3453 131.262C59.3025 130.195 58.3444 129.044 57.4798 127.822C57.0486 127.214 56.5939 126.622 56.1078 125.978C54.0028 123.206 51.3764 119.754 49.2125 112.99C47.8288 108.658 46.9272 103.49 46.5352 97.6301V97.4901L46.6606 97.4341L71.1763 86.1621L71.2547 86.3541C73.3362 91.6061 76.876 101.154 77.166 106.102C77.8795 118.17 73.9869 127.034 73.9477 127.122L71.8192 133.438L63.7832 135.198ZM46.9272 97.7381C47.3192 103.51 48.2129 108.598 49.5771 112.866C51.7213 119.562 54.2144 122.842 56.4096 125.734C56.8957 126.37 57.3544 126.974 57.7895 127.59C58.6444 128.798 59.5921 129.935 60.6236 130.99L63.9164 134.758L71.5016 133.094L73.5675 126.974C73.6145 126.87 77.464 118.09 76.7623 106.126C76.4761 101.294 73.0344 91.9621 70.9528 86.6981L46.9272 97.7381Z" fill="#263238"/>
<path d="M65.0074 94.7065C66.0893 99.3105 66.5284 103.151 65.9952 103.283C65.4621 103.415 64.145 99.7865 63.067 95.1825C61.989 90.5785 61.5421 86.7385 62.0792 86.6065C62.6162 86.4745 63.9255 90.1025 65.0074 94.7065Z" fill="white"/>
<path d="M57.0469 123.318C59.2968 126.802 61.8725 130.054 64.7379 133.03L57.0469 123.318Z" fill="#E77644"/>
<path d="M64.6013 133.175C61.7265 130.187 59.1417 126.923 56.8828 123.427L57.2317 123.199C59.474 126.671 62.0405 129.913 64.8953 132.879L64.6013 133.175Z" fill="#263238"/>
<path d="M47.5352 87.9346C47.5352 87.9346 49.1032 104.515 52.5998 114.455C53.457 116.846 54.5387 119.147 55.8299 121.327" fill="#E77644"/>
<path d="M55.662 121.429C54.3657 119.238 53.2788 116.925 52.4162 114.521C48.9706 104.669 47.3594 88.1211 47.3438 87.9531L47.7358 87.9131C47.7358 88.0771 49.3626 104.581 52.7886 114.385C53.6416 116.765 54.718 119.056 56.003 121.225L55.662 121.429Z" fill="#263238"/>
<path d="M60.2896 158.901C62.2496 158.013 65.1112 155.901 66.1343 153.769C67.4539 150.806 67.751 147.475 66.9771 144.317C66.0637 140.525 64.1782 138.633 64.1782 138.633L62.6102 135.009L67.816 134.273L72.6885 132.985L72.5944 136.945C72.5944 136.945 71.5596 139.425 72.1319 143.289C72.5986 146.506 74.1184 149.466 76.4439 151.689C78.1883 153.261 81.6183 154.089 83.7664 154.157C85.9146 154.225 86.4124 154.377 86.4124 154.377L86.4752 155.133L72.4925 158.065L58.1453 160.865L57.9219 160.141C57.9219 160.141 58.3296 159.789 60.2896 158.901Z" fill="white"/>
<path d="M58.0167 161.086L57.7031 160.066L57.805 159.978C57.805 159.978 58.2519 159.606 60.2158 158.718C62.2817 157.782 64.9943 155.702 65.9626 153.682C67.2731 150.764 67.565 147.476 66.7897 144.366C65.9038 140.678 64.0457 138.794 64.0457 138.766L64.0026 138.702L62.3287 134.85L67.7932 134.078L72.8892 132.726L72.7716 137.022C72.7716 137.046 71.7642 139.506 72.3247 143.258C72.7719 146.434 74.2699 149.358 76.5701 151.546C78.2204 153.038 81.5093 153.906 83.7672 153.966C85.9154 154.026 86.4446 154.186 86.4681 154.194L86.5935 154.234L86.6837 155.302L72.5207 158.27L58.0167 161.086ZM58.1618 160.214L58.2872 160.614L72.4658 157.866L86.276 154.97L86.2368 154.538C85.419 154.416 84.5937 154.354 83.7672 154.354C81.4426 154.29 78.0401 153.386 76.3192 151.834C73.9501 149.584 72.4064 146.574 71.9445 143.306C71.3996 139.638 72.2738 137.226 72.407 136.906L72.4933 133.25L67.8716 134.474L62.8971 135.178L64.3436 138.522C64.5906 138.782 66.3036 140.674 67.1699 144.274C67.9644 147.48 67.6616 150.867 66.3114 153.874C65.304 155.978 62.4973 158.134 60.3726 159.098C59.6097 159.416 58.8696 159.789 58.1578 160.214H58.1618Z" fill="#263238"/>
<path d="M63.262 137.217L73.1359 135.097C73.7016 134.976 74.0637 134.41 73.9447 133.832L73.9398 133.809C73.8209 133.232 73.2658 132.862 72.7002 132.984L62.8262 135.103C62.2605 135.225 61.8984 135.791 62.0174 136.368L62.0223 136.392C62.1413 136.969 62.6963 137.338 63.262 137.217Z" fill="#828282"/>
<path d="M63.0491 137.439C62.7393 137.438 62.4407 137.321 62.2107 137.109C61.9808 136.897 61.8358 136.606 61.8036 136.292C61.7715 135.977 61.8545 135.662 62.0367 135.406C62.2189 135.151 62.4873 134.973 62.7903 134.907L72.6648 132.787C72.9863 132.727 73.318 132.797 73.5894 132.983C73.8607 133.169 74.0503 133.456 74.1177 133.782C74.1852 134.108 74.1251 134.449 73.9504 134.73C73.7757 135.012 73.5001 135.213 73.1823 135.291L63.3039 137.411C63.2203 137.43 63.1348 137.44 63.0491 137.439ZM72.9118 133.159C72.8538 133.159 72.796 133.166 72.7393 133.179L62.8609 135.299C62.6463 135.356 62.4615 135.495 62.3449 135.688C62.2283 135.88 62.1889 136.111 62.2348 136.333C62.2807 136.554 62.4085 136.749 62.5915 136.877C62.7745 137.005 62.9988 137.055 63.2176 137.019L73.0921 134.899C73.3123 134.852 73.5052 134.718 73.6286 134.526C73.752 134.334 73.7959 134.1 73.7507 133.875C73.7128 133.675 73.6087 133.495 73.4559 133.365C73.3031 133.234 73.111 133.162 72.9118 133.159Z" fill="#263238"/>
<path d="M64.715 139.647L72.8742 137.896C73.4399 137.774 73.802 137.208 73.683 136.631L73.6781 136.607C73.5591 136.03 73.0041 135.66 72.4384 135.782L64.2792 137.533C63.7135 137.655 63.3514 138.221 63.4704 138.798L63.4753 138.822C63.5943 139.399 64.1493 139.769 64.715 139.647Z" fill="#828282"/>
<path d="M64.5015 139.865C64.2766 139.862 64.0565 139.798 63.8642 139.679C63.6718 139.56 63.5142 139.391 63.4077 139.189C63.3013 138.987 63.2498 138.759 63.2588 138.53C63.2678 138.301 63.3368 138.078 63.4588 137.885C63.547 137.745 63.6618 137.624 63.7965 137.53C63.9311 137.436 64.0829 137.37 64.2428 137.337L72.4042 135.597C72.7265 135.528 73.0623 135.593 73.3379 135.777C73.6135 135.961 73.8064 136.248 73.8742 136.577C73.9099 136.743 73.913 136.915 73.8834 137.083C73.8538 137.25 73.7921 137.41 73.7017 137.553C73.613 137.693 73.498 137.813 73.3635 137.907C73.2289 138.001 73.0774 138.067 72.9177 138.101L64.7563 139.853C64.6719 139.865 64.5866 139.869 64.5015 139.865ZM72.659 135.957C72.5996 135.956 72.5403 135.963 72.4826 135.977L64.3212 137.729C64.2124 137.751 64.1091 137.796 64.0176 137.86C63.926 137.924 63.8479 138.006 63.788 138.101C63.7263 138.196 63.6837 138.303 63.6628 138.415C63.642 138.527 63.6432 138.642 63.6665 138.753C63.6872 138.867 63.7298 138.976 63.7921 139.073C63.8543 139.17 63.9349 139.253 64.0291 139.318C64.1232 139.382 64.2291 139.427 64.3405 139.45C64.4519 139.473 64.5666 139.472 64.6779 139.449L72.8393 137.697C73.0591 137.648 73.251 137.513 73.3736 137.32C73.4961 137.128 73.5394 136.894 73.494 136.669C73.4568 136.47 73.3534 136.291 73.2012 136.161C73.0489 136.031 72.8574 135.959 72.659 135.957Z" fill="#263238"/>
<path d="M48.4825 113.732C47.5887 111.552 47.5613 107.332 47.577 106.932C47.5927 106.532 48.3923 105.832 49.6467 103.688C50.9011 101.544 51.007 98.1278 50.223 96.2318C49.047 93.4318 48.1454 93.0318 47.5495 93.7478C46.9537 94.4638 45.7542 96.3238 43.9588 98.9038C42.1635 101.484 41.4108 101.396 40.1995 104.616C38.9883 107.836 39.8977 108.652 37.6868 118.772C36.8401 122.648 35.6562 129.972 35.6562 129.972L35.8601 132.088" fill="#FFD4A7"/>
<path d="M35.6726 132.082L35.4609 129.938V129.914C35.4609 129.838 36.6369 122.55 37.4915 118.714C38.2542 115.42 38.8107 112.08 39.1575 108.714C39.3339 107.062 39.4397 106.066 40.0121 104.542C40.482 103.118 41.2498 101.816 42.2621 100.726C42.811 100.11 43.3241 99.4626 43.7988 98.786C44.4848 97.798 45.0806 96.9219 45.5941 96.1699C46.4252 94.9699 47.0249 94.07 47.3973 93.618C47.4906 93.4826 47.6186 93.3759 47.7672 93.3096C47.9158 93.2433 48.0794 93.2199 48.2401 93.242C48.9222 93.346 49.6317 94.298 50.4001 96.15C51.1684 98.002 51.1253 101.542 49.8121 103.79C49.3426 104.592 48.8296 105.366 48.2754 106.11C48.0593 106.353 47.8868 106.634 47.7658 106.938C47.7658 107.482 47.8089 111.59 48.6596 113.67L48.2989 113.826C47.3346 111.466 47.3738 106.966 47.3777 106.922C47.3777 106.658 47.5894 106.378 47.9618 105.87C48.5068 105.137 49.0119 104.375 49.4749 103.586C50.7254 101.442 50.7764 98.09 50.0355 96.306C49.1182 94.09 48.4675 93.682 48.1813 93.634C48.0872 93.6256 47.9926 93.6435 47.9077 93.6858C47.8228 93.7281 47.7507 93.7931 47.6992 93.874C47.3385 94.314 46.7427 95.186 45.9156 96.398C45.4021 97.15 44.8023 98.0299 44.1163 99.0139C43.6326 99.7051 43.109 100.366 42.5483 100.994C41.5655 102.046 40.8226 103.307 40.3727 104.686C39.8972 105.993 39.617 107.366 39.5417 108.758C39.1924 112.137 38.6373 115.49 37.8796 118.798C37.0681 122.51 35.9196 129.466 35.8529 129.95L36.0568 132.042L35.6726 132.082Z" fill="#263238"/>
<path d="M54.3014 124.999C54.3014 124.999 56.179 132.359 50.7969 136.199L54.3014 124.999Z" fill="#FFD4A7"/>
<path d="M50.907 136.374L50.6836 136.046C55.8933 132.314 54.1293 125.122 54.1097 125.05L54.5017 124.95C54.5095 125.022 56.3362 132.486 50.907 136.374Z" fill="#263238"/>
<path d="M79.4354 122.582C79.4354 122.582 77.4284 121.642 76.6914 120.682L79.4354 122.582Z" fill="#FFD4A7"/>
<path d="M79.3536 122.762C79.2713 122.722 77.2956 121.794 76.5391 120.806L76.8448 120.558C77.5465 121.47 79.4987 122.39 79.5183 122.398L79.3536 122.762Z" fill="#263238"/>
<path d="M77.6149 114.209L77.4883 114.587L79.0428 115.129L79.1694 114.75L77.6149 114.209Z" fill="#263238"/>
<path d="M76.1836 122.958C76.3709 123.282 76.6237 123.561 76.9252 123.777C77.2267 123.993 77.5699 124.141 77.9319 124.21" fill="#FFD4A7"/>
<path d="M77.8972 124.398C77.5053 124.326 77.1337 124.167 76.8081 123.932C76.4824 123.698 76.2107 123.395 76.0117 123.042L76.3567 122.858C76.5329 123.152 76.7672 123.405 77.0446 123.602C77.322 123.798 77.6364 123.933 77.9678 123.998L77.8972 124.398Z" fill="#263238"/>
<path d="M47.5496 93.729C47.5496 93.729 49.1608 95.509 48.757 97.085C48.3532 98.661 46.6716 100.769 46.1228 100.349C45.7637 100.128 45.4743 99.807 45.2888 99.4234C45.1033 99.0399 45.0295 98.6101 45.0761 98.185" fill="#FFD4A7"/>
<path d="M46.2918 100.606C46.1886 100.607 46.088 100.573 46.0056 100.51C45.6211 100.269 45.3114 99.9211 45.1123 99.5077C44.9132 99.0943 44.8329 98.6319 44.8806 98.1739L45.2726 98.2019C45.2276 98.5955 45.2955 98.9939 45.4681 99.3489C45.6407 99.7039 45.9104 100 46.2447 100.202C46.28 100.23 46.3584 100.202 46.3976 100.202C47.0287 99.9739 48.24 98.3499 48.5732 97.0539C48.9456 95.5979 47.4286 93.8979 47.3972 93.8819L47.6834 93.6099C47.7539 93.6859 49.365 95.4899 48.9378 97.1539C48.5928 98.4979 47.3227 100.29 46.5113 100.578C46.4401 100.599 46.3659 100.609 46.2918 100.606Z" fill="#263238"/>
</svg>
