<svg width="90" height="40" viewBox="0 0 90 40" fill="none" xmlns="http://www.w3.org/2000/svg">
<path d="M3.79386 28.3798L4.37709 29.4981C4.76591 30.2276 5.68983 30.7627 6.71 30.7627C8.65409 30.7627 9.82247 29.1093 9.82247 27.1652C9.82247 25.7062 9.33549 24.6379 8.50973 23.6639C8.07279 23.1769 7.53769 22.74 7.0507 22.3031C6.46747 21.8661 5.8342 21.3791 5.20285 20.8922C2.72365 18.898 0 16.4669 0 11.4104C0 7.42403 3.45125 3.38763 8.50781 3.38763C10.8908 3.38763 14.2939 4.60221 15.1697 7.08333L15.3641 7.57031L14.9272 7.91102C14.0514 8.64053 13.1274 9.37005 12.1554 10.0996L11.2796 10.7309L10.6964 9.8551C10.3557 9.32 9.91872 9.07747 9.38361 9.07747C7.82834 9.07747 7.00065 10.1477 7.00065 11.703C7.00065 12.2381 7.09882 12.7231 7.29323 13.162C7.48764 13.5989 7.92458 14.0378 8.41157 14.5228C8.94667 14.9598 9.43173 15.4468 9.91872 15.7875C10.6482 16.4188 11.3777 16.9539 12.0091 17.5872C12.7386 18.2185 13.4681 18.8518 14.0514 19.5313C15.316 20.8922 16.288 22.4494 16.725 24.3934C16.8712 25.123 16.9194 25.9487 16.9194 26.7264C16.9194 31.2478 13.7107 36.7413 7.29323 36.7413C4.27892 36.7413 1.26462 34.7972 0.340695 32.268L0.14629 31.831L3.79386 28.3798Z" fill="#1E1E1E"/>
<path d="M18.8485 10.6497L26.3361 10.796L25.801 37.9266H18.3134L18.8485 10.6497Z" fill="#1E1E1E"/>
<path d="M29.6004 1.63892H36.3586V3.04983C37.5751 2.41848 38.9359 2.07778 40.395 2.07778C43.7981 2.07778 45.8885 4.36257 47.105 6.74552C48.3195 9.22472 48.8065 12.0947 48.8065 14.0869C48.8065 19.0953 46.4236 25.2202 39.7136 26.583C39.1303 26.7292 38.5471 26.7774 37.9639 26.7774C37.3325 26.7774 36.6511 26.6792 35.9697 26.4848L35.8235 35.4315H28.3358L29.6004 1.63892ZM36.3104 14.7182C36.2623 15.7884 36.116 16.8567 36.116 17.9751C36.116 18.7046 36.2623 19.5303 36.6511 20.1136C36.9918 20.7449 37.4769 21.0375 38.062 21.0375C38.4509 21.0375 38.7916 20.8912 39.2785 20.6487C40.3488 19.9673 41.0282 18.7527 41.4671 17.1474C41.8559 15.6402 41.904 13.8905 41.904 12.6259C41.904 10.73 40.7857 8.78394 39.2304 8.78394C38.549 8.78394 38.0139 9.12463 37.5289 9.8041C37.0419 10.4855 36.7031 11.3594 36.5568 12.0889C36.4587 12.4777 36.4105 12.8665 36.3624 13.3035C36.3586 13.7462 36.3586 14.2332 36.3104 14.7182Z" fill="#1E1E1E"/>
<path d="M50.7601 8.83655H57.0331V10.003C58.1033 9.51602 59.2698 9.22536 60.5344 9.22536C63.5968 9.22536 65.4928 11.2676 66.6111 13.4562C67.6814 15.6928 68.1183 18.2702 68.1183 19.9718C68.1183 24.5914 65.9798 29.9386 59.9011 31.2032C59.366 31.3495 58.881 31.3976 58.3459 31.3976C57.7626 31.3976 57.1794 31.3495 56.7405 31.1551L56.5943 39.1297H49.6417L50.7601 8.83655ZM59.366 25.806C61.3602 24.5914 61.6989 21.5752 61.6989 19.096C61.6989 18.3183 61.5526 17.2962 61.1638 16.5667C60.775 15.7891 60.2399 15.4484 59.4623 15.4484C58.3921 15.4484 57.5663 16.4204 57.1294 18.5108C56.7887 20.4068 56.8368 22.5953 56.8368 23.5192C56.8368 24.9783 57.5182 26.0485 58.5865 26.0485C58.8309 26.0485 59.1235 26.0004 59.366 25.806Z" fill="#1E1E1E"/>
<path d="M65.3208 5.65457C65.4017 4.08774 65.4825 2.52285 65.5633 0.961799C60.6357 -2.50677 55.7101 4.81919 50.7825 1.35062C50.7825 2.82505 50.7825 4.29948 50.7825 5.77583C55.6292 9.32909 60.476 2.44393 65.3208 5.65457Z" fill="#540068"/>
<path d="M74.5842 27.1168L75.0712 28.0407C75.8007 29.3534 76.8209 30.2774 78.2318 30.2774C78.7188 30.2774 79.302 29.9848 79.9334 29.3053C80.4685 28.6739 80.9054 27.8944 81.1499 27.263C81.5387 26.3872 81.685 25.4633 81.8313 24.4432C81.8794 24.1025 81.9294 23.8118 81.9294 23.4711C80.8111 24.1024 79.5465 24.4913 78.1375 24.4913C70.698 24.4913 68.802 15.9835 68.802 11.8008C68.802 9.3697 69.289 6.79233 70.261 4.50754L70.5036 3.97244L76.3378 3.63174L76.0452 4.70196C75.5101 6.59793 75.2676 8.54394 75.2676 10.488C75.2676 11.7026 75.4138 13.6967 76.0452 15.3502C76.6765 17.0999 77.6505 18.0719 79.0114 18.0719C80.0816 18.0719 80.8592 17.5368 81.4906 16.5648C82.1219 15.5446 82.4145 14.28 82.4626 13.3079C82.5608 12.1896 82.5107 11.0713 82.5608 10.001C82.6089 7.91067 82.7071 5.82029 82.7552 3.72991V2.95227L90.0003 2.80598V3.63174C90.0003 7.86255 89.9021 12.0914 89.8059 16.3222C89.7077 19.2403 89.6115 22.2046 89.2708 25.1707C88.8338 29.0608 87.2285 33.4841 82.7552 35.7208C81.4906 36.3521 79.9834 36.791 78.38 36.791C74.1011 36.791 70.7961 34.1174 69.4834 30.8586L69.2409 30.2273L74.5842 27.1168Z" fill="#1E1E1E"/>
</svg>
