<svg width="294" height="201" viewBox="0 0 294 201" fill="none" xmlns="http://www.w3.org/2000/svg">
<path d="M253.565 48.0044C252.695 46.9004 251.781 45.8178 250.821 44.7564C238.191 30.6524 217.164 20.9964 196.725 16.6244C187.731 14.7259 178.589 13.655 169.407 13.4244C109.247 11.7844 87.1418 49.4964 67.7496 59.2164C48.3573 68.9364 18.6045 85.5484 22.3442 120.436C25.1784 146.964 45.0332 172.328 81.2971 183.868C85.4338 185.186 89.6337 186.287 93.8803 187.168C102.638 188.968 111.529 190.007 120.458 190.276C147.898 191.204 170.14 186.18 191.916 173.532C196.976 170.592 202.01 167.276 208.579 166.912C213.354 166.648 217.882 167.952 212.891 171.46C207.012 175.58 213.797 183.688 228.685 178.056C253.546 168.648 263.777 148.352 268.599 127.7C274.514 102.384 271.656 70.9004 253.565 48.0044Z" fill="#FEF3DA"/>
<path d="M261.942 190.569L259.43 173.613C259.43 173.613 258.908 168.453 256.964 164.885C255.02 161.317 255.004 158.533 253.726 156.417C252.448 154.301 243.746 149.409 241.41 147.953C239.073 146.497 239.206 143.061 238.172 141.869C237.137 140.677 236.098 139.489 236.486 136.841C236.874 134.193 235.447 133.273 235.059 131.817C234.671 130.361 236.235 125.601 237.262 123.617C238.289 121.633 237.262 119.649 237.262 119.649C237.262 119.649 235.059 113.961 235.447 110.653C235.835 107.345 237.262 103.381 239.077 102.057C240.892 100.733 243.746 98.8814 244.005 100.457C244.263 102.033 244.91 103.369 243.483 105.221C242.056 107.073 241.915 106.821 241.802 108.789C241.688 110.757 242.586 114.081 242.586 114.081C242.586 114.081 244.546 117.653 249.716 119.901C254.886 122.149 263.436 118.577 263.828 116.329C264.22 114.081 264.612 104.029 265.004 101.529C265.396 99.0294 268.505 97.9574 269.543 101.793C270.582 105.629 270.966 110.653 270.327 113.433C269.688 116.213 268.512 120.973 269.151 123.749C269.79 126.525 271.225 131.685 270.327 136.181C269.77 139.016 269.424 141.89 269.292 144.777C269.292 144.777 273.632 157.905 274.78 163.197C275.929 168.489 279.316 176.689 283.091 185.941" fill="#D9804C"/>
<path d="M261.746 190.602L259.234 173.642C259.234 173.582 258.696 168.474 256.791 164.982C255.942 163.36 255.285 161.642 254.831 159.862C254.56 158.696 254.133 157.573 253.561 156.526C252.523 154.826 246.38 151.158 243.079 149.19C242.342 148.75 241.727 148.39 241.311 148.126C239.79 147.174 239.269 145.41 238.853 143.994C238.603 143.146 238.387 142.418 238.026 141.994C236.98 140.794 235.894 139.546 236.294 136.794C236.548 135.074 236.015 134.134 235.51 133.222C235.243 132.794 235.033 132.333 234.882 131.85C234.463 130.282 236.094 125.45 237.101 123.502C238.077 121.634 237.101 119.742 237.101 119.722C237.003 119.47 234.875 113.93 235.267 110.61C235.659 107.29 237.05 103.278 238.975 101.874C241.405 100.106 242.954 99.3982 243.706 99.7142C243.845 99.7743 243.964 99.8715 244.053 99.9955C244.141 100.119 244.195 100.266 244.208 100.418C244.251 100.682 244.306 100.942 244.357 101.194C244.632 102.494 244.894 103.722 243.652 105.334C243.381 105.686 243.158 105.962 242.969 106.19C242.185 107.15 242.107 107.25 242.005 108.798C241.888 110.634 242.691 113.694 242.77 113.998C242.934 114.282 244.933 117.598 249.794 119.71C253.158 121.17 258.297 120.11 261.425 118.382C262.718 117.666 263.549 116.882 263.655 116.29C263.851 115.154 264.047 111.946 264.243 108.842C264.431 105.834 264.635 102.722 264.82 101.478C265.027 100.138 265.996 99.1182 267.105 99.0542C268.214 98.9902 269.269 99.9822 269.739 101.722C270.817 105.722 271.15 110.75 270.523 113.458L270.445 113.79C269.81 116.506 268.743 121.058 269.355 123.682C269.414 123.926 269.473 124.182 269.539 124.458C270.221 127.298 271.362 132.058 270.523 136.202C269.973 139.015 269.628 141.865 269.492 144.73C269.743 145.486 273.867 158.026 274.98 163.13C276.121 168.31 279.351 176.214 283.087 185.366L283.283 185.842L282.918 185.998L282.726 185.522C278.979 176.35 275.748 168.434 274.596 163.214C273.444 157.994 269.135 144.95 269.108 144.814V144.782V144.746C269.24 141.846 269.587 138.961 270.147 136.114C270.966 132.05 269.841 127.354 269.167 124.546C269.1 124.27 269.037 124.01 268.983 123.77C268.348 121.05 269.375 116.618 270.072 113.686L270.147 113.358C270.766 110.706 270.433 105.758 269.363 101.818C268.943 100.274 268.108 99.3862 267.128 99.4462C266.148 99.5062 265.384 100.378 265.208 101.534C265.016 102.758 264.816 105.858 264.635 108.858C264.439 111.974 264.243 115.194 264.039 116.35C263.914 117.086 263.048 117.93 261.609 118.726C258.32 120.546 253.154 121.594 249.641 120.07C244.455 117.822 242.499 114.31 242.417 114.162V114.122C242.378 113.982 241.499 110.758 241.633 108.762C241.742 107.09 241.868 106.934 242.683 105.93C242.868 105.702 243.075 105.43 243.358 105.082C244.486 103.614 244.255 102.53 243.993 101.27C243.938 101.01 243.883 100.746 243.836 100.47C243.834 100.385 243.809 100.302 243.762 100.231C243.716 100.16 243.65 100.104 243.573 100.07C243.232 99.9222 242.209 100.006 239.218 102.186C237.403 103.506 236.035 107.53 235.69 110.642C235.298 113.862 237.47 119.482 237.493 119.538C237.804 120.181 237.966 120.889 237.966 121.606C237.966 122.323 237.804 123.031 237.493 123.674C236.415 125.742 234.953 130.41 235.306 131.73C235.45 132.178 235.647 132.607 235.894 133.006C236.419 133.93 237.011 134.982 236.737 136.838C236.364 139.39 237.34 140.514 238.375 141.702C238.795 142.182 239.018 142.95 239.281 143.842C239.7 145.266 240.178 146.878 241.57 147.746C241.986 148.006 242.597 148.37 243.33 148.81C246.893 150.934 252.856 154.494 253.949 156.278C254.539 157.357 254.981 158.513 255.263 159.714C255.693 161.475 256.327 163.178 257.152 164.786C259.092 168.354 259.633 173.542 259.637 173.586L262.15 190.534L261.746 190.602Z" fill="#263238"/>
<path d="M267.548 145.268C265.678 141.576 258.842 141.268 258.771 141.268V140.868C259.061 140.868 265.909 141.18 267.881 145.076L267.548 145.268Z" fill="#263238"/>
<path d="M251.131 140.811C251.131 140.811 252.699 141.475 253.483 144.251L251.131 140.811Z" fill="#D9804C"/>
<path d="M253.275 144.304C252.534 141.648 251.072 141 251.057 140.996L251.206 140.624C251.276 140.652 252.86 141.356 253.656 144.192L253.275 144.304Z" fill="#263238"/>
<path d="M253.205 155.361C253.205 155.361 252.946 156.561 257.615 156.161L253.205 155.361Z" fill="#D9804C"/>
<path d="M255.886 156.437C254.447 156.437 253.534 156.221 253.169 155.793C253.108 155.733 253.062 155.657 253.036 155.575C253.009 155.492 253.002 155.403 253.017 155.317L253.409 155.389C253.409 155.389 253.409 155.461 253.499 155.557C253.703 155.761 254.518 156.217 257.603 155.957L257.638 156.357C256.98 156.409 256.399 156.437 255.886 156.437Z" fill="#263238"/>
<path d="M243.432 100.445C243.553 100.885 243.738 102.141 243.553 102.645C243.369 103.149 240.417 104.529 239.677 103.845C238.936 103.161 239.739 101.773 239.739 101.773C240.392 101.262 241.085 100.809 241.813 100.417C242.82 99.8854 243.432 100.445 243.432 100.445Z" fill="#F51919"/>
<path d="M240.296 104.225C240.015 104.248 239.735 104.162 239.512 103.985C238.669 103.185 239.512 101.725 239.54 101.665L239.587 101.609C240.25 101.088 240.955 100.626 241.696 100.229C242.829 99.6531 243.503 100.273 243.534 100.301L243.573 100.337V100.393C243.691 100.817 243.903 102.137 243.691 102.713C243.526 103.165 242.123 103.861 241.084 104.113C240.827 104.181 240.562 104.218 240.296 104.225ZM239.869 101.897C239.763 102.097 239.23 103.169 239.787 103.689C239.959 103.853 240.382 103.869 240.963 103.741C242.084 103.485 243.275 102.793 243.362 102.573C243.515 102.173 243.362 101.069 243.252 100.573C243.046 100.449 242.809 100.385 242.57 100.39C242.33 100.395 242.097 100.468 241.896 100.601C241.189 100.975 240.513 101.409 239.877 101.897H239.869Z" fill="#263238"/>
<path d="M240.52 83.8411C240.402 83.841 240.286 83.814 240.18 83.7621C240.074 83.7102 239.981 83.6346 239.908 83.5411C239.426 82.9291 228.019 68.4171 223.809 58.3131C220.139 49.5131 216.866 42.0771 214.009 40.4891C213.735 40.3358 213.448 40.2111 213.15 40.1171C215.678 44.1171 218.023 48.7371 217.764 50.7651C217.638 51.7371 217.047 52.3371 216.196 52.3651C213.695 52.4771 210.006 47.9211 209.289 44.6291C208.505 41.0931 209.681 39.5811 210.465 38.9931L210.532 38.9411C209.994 38.1411 209.473 37.4211 208.964 36.7771C208.486 37.2443 207.871 37.537 207.213 37.6093C206.556 37.6817 205.894 37.5297 205.33 37.1771C202.252 35.4171 197.356 28.0291 194.726 24.0651L194.283 23.3931C194.203 23.3096 194.142 23.2093 194.105 23.0993C194.067 22.9892 194.053 22.8721 194.064 22.7561C194.076 22.64 194.112 22.5279 194.17 22.4275C194.228 22.3272 194.307 22.241 194.401 22.175C194.495 22.1091 194.602 22.0649 194.715 22.0456C194.828 22.0264 194.943 22.0325 195.053 22.0636C195.164 22.0946 195.266 22.1499 195.353 22.2255C195.44 22.301 195.509 22.3951 195.557 22.5011L196 23.1851C198.376 26.7851 203.319 34.2251 206.074 35.8011C206.362 35.9985 206.711 36.0815 207.055 36.0343C207.399 35.9871 207.714 35.8131 207.94 35.5451C207.737 35.3051 207.548 35.0931 207.368 34.9131C205.565 33.0731 204.189 30.4691 205.196 29.2691C205.635 28.7491 206.545 28.4091 208.383 29.7811C209.223 30.4068 209.827 31.3061 210.098 32.3303C210.368 33.3544 210.287 34.442 209.869 35.4131C210.524 36.2571 211.261 37.2771 212.013 38.3971C212.967 38.3497 213.914 38.5874 214.738 39.0811C217.791 40.7691 220.563 46.4251 225.251 57.6851C229.375 67.5851 241.013 82.3931 241.131 82.5411C241.261 82.7066 241.321 82.918 241.298 83.1287C241.275 83.3395 241.172 83.5324 241.01 83.6651C240.871 83.7789 240.698 83.8409 240.52 83.8411ZM211.366 40.2811C210.582 40.8811 210.379 42.3771 210.794 44.2811C211.351 46.8331 213.577 49.5571 215.306 50.5011C215.552 50.6722 215.843 50.7629 216.141 50.7611C216.167 50.6931 216.185 50.6218 216.192 50.5491C216.302 49.7051 215.514 47.2491 212.982 42.9011C212.464 42.0251 211.915 41.1331 211.366 40.2811ZM206.431 30.4651C206.517 31.0331 207.074 32.3491 208.477 33.7811L208.646 33.9611C208.734 33.4157 208.67 32.8561 208.462 32.3457C208.254 31.8352 207.911 31.3944 207.47 31.0731C207.154 30.8212 206.804 30.6164 206.431 30.4651Z" fill="#F51919"/>
<path d="M240.519 84.041C240.37 84.0443 240.221 84.0125 240.085 83.948C239.949 83.8835 239.83 83.788 239.735 83.669C239.253 83.053 227.826 68.513 223.609 58.389C219.955 49.613 216.698 42.225 213.879 40.665L213.601 40.521C215.024 42.829 218.234 48.353 217.913 50.793C217.776 51.865 217.129 52.533 216.149 52.577C213.515 52.705 209.783 48.085 209.046 44.681C208.262 41.165 209.395 39.573 210.194 38.913C209.74 38.245 209.301 37.633 208.885 37.081C208.374 37.5156 207.743 37.777 207.08 37.8286C206.417 37.8802 205.754 37.7195 205.185 37.369C202.049 35.589 197.152 28.169 194.514 24.197L194.067 23.525C193.995 23.4166 193.945 23.2947 193.919 23.1663C193.894 23.0378 193.893 22.9055 193.918 22.777C193.941 22.6475 193.989 22.5241 194.06 22.4141C194.131 22.3041 194.223 22.2098 194.33 22.137C194.545 21.9892 194.808 21.9332 195.063 21.981C195.19 22.0052 195.311 22.0552 195.419 22.128C195.527 22.2008 195.619 22.295 195.69 22.405L196.137 23.073C198.489 26.645 203.428 34.073 206.141 35.625C206.365 35.7832 206.635 35.8601 206.907 35.8434C207.179 35.8267 207.438 35.7174 207.642 35.533C207.486 35.353 207.337 35.193 207.199 35.053C205.286 33.105 203.926 30.445 205.02 29.141C205.514 28.553 206.513 28.157 208.473 29.621C209.339 30.2552 209.971 31.1676 210.268 32.212C210.565 33.2564 210.51 34.3723 210.112 35.381C210.739 36.181 211.433 37.157 212.131 38.181C213.073 38.1679 214.002 38.4168 214.816 38.901C217.921 40.617 220.696 46.301 225.4 57.605C229.536 67.529 241.135 82.261 241.252 82.405C241.334 82.507 241.394 82.6248 241.43 82.7513C241.466 82.8778 241.476 83.0104 241.46 83.141C241.447 83.2715 241.409 83.3981 241.348 83.5134C241.287 83.6288 241.204 83.7306 241.104 83.813C240.938 83.9505 240.733 84.0304 240.519 84.041ZM212.687 39.769L213.197 39.925C213.507 40.0275 213.807 40.1615 214.091 40.325C217.019 41.925 220.308 49.401 223.993 58.245C228.187 68.321 239.583 82.817 240.065 83.445C240.164 83.5665 240.306 83.644 240.46 83.6611C240.614 83.6783 240.769 83.6338 240.892 83.537C241.013 83.4367 241.09 83.2919 241.107 83.1339C241.124 82.9759 241.079 82.8175 240.982 82.693C240.864 82.545 229.222 67.765 225.075 57.793C220.402 46.593 217.654 40.945 214.651 39.285C213.86 38.8139 212.952 38.5848 212.037 38.625H211.923L211.856 38.529C211.116 37.429 210.379 36.401 209.72 35.557L209.646 35.465L209.693 35.353C210.096 34.4206 210.175 33.3755 209.916 32.3911C209.657 31.4067 209.076 30.5422 208.27 29.941C207.321 29.237 206.043 28.569 205.345 29.401C204.448 30.469 205.737 32.969 207.505 34.773C207.682 34.953 207.897 35.173 208.089 35.413L208.207 35.553L208.081 35.685C207.823 35.9831 207.468 36.1763 207.081 36.2292C206.695 36.282 206.303 36.1911 205.976 35.973C203.181 34.373 198.223 26.893 195.839 23.297L195.392 22.629C195.297 22.5223 195.166 22.4544 195.026 22.4379C194.885 22.4214 194.743 22.4574 194.626 22.5392C194.509 22.621 194.425 22.7431 194.389 22.8831C194.354 23.023 194.369 23.1715 194.432 23.301L194.875 23.969C197.486 27.925 202.366 35.301 205.408 37.021C205.936 37.3526 206.556 37.4957 207.172 37.4276C207.788 37.3595 208.365 37.0842 208.811 36.645L208.967 36.493L209.101 36.669C209.587 37.309 210.108 38.041 210.669 38.841L210.778 39.005L210.559 39.165C209.834 39.725 208.728 41.165 209.473 44.597C210.167 47.797 213.675 52.197 216.094 52.197H216.18C216.964 52.161 217.458 51.637 217.572 50.761C217.827 48.761 215.373 44.021 212.989 40.245L212.687 39.769ZM216.082 50.969C215.776 50.9408 215.481 50.8408 215.22 50.677C213.448 49.713 211.174 46.929 210.606 44.325C210.171 42.325 210.414 40.757 211.253 40.109L211.417 39.981L211.535 40.161C212.096 41.033 212.64 41.921 213.154 42.801C215.326 46.529 216.537 49.437 216.392 50.573C216.392 50.637 216.392 50.689 216.36 50.729L216.455 50.873L216.204 50.953C216.163 50.968 216.121 50.9774 216.078 50.981L216.082 50.969ZM211.331 40.569C210.751 41.201 210.622 42.541 210.99 44.233C211.535 46.733 213.711 49.397 215.404 50.321C215.588 50.4306 215.788 50.5089 215.996 50.553C215.996 50.553 215.996 50.529 215.996 50.517C216.098 49.745 215.322 47.317 212.813 43.001C212.342 42.209 211.841 41.393 211.327 40.585L211.331 40.569ZM208.787 34.381L208.505 34.101C208.446 34.041 208.391 33.981 208.336 33.929C206.854 32.417 206.321 31.061 206.239 30.497L206.192 30.169L206.498 30.281C206.884 30.4355 207.246 30.6442 207.576 30.901C208.047 31.2421 208.415 31.711 208.639 32.2546C208.863 32.7982 208.933 33.3948 208.842 33.977L208.787 34.381ZM206.733 30.809C207.128 31.8158 207.725 32.7273 208.485 33.485C208.489 33.0414 208.387 32.6036 208.189 32.2087C207.992 31.8138 207.703 31.4736 207.348 31.217C207.149 31.0749 206.942 30.944 206.729 30.825L206.733 30.809Z" fill="#263238"/>
<path d="M222.355 37.4487L220.395 38.2651L241.449 90.8842L243.409 90.0677L222.355 37.4487Z" fill="#D9804C"/>
<path d="M241.339 91.1615L241.268 90.9775L220.139 38.1775L222.46 37.2095L222.534 37.3935L243.663 90.1935L241.339 91.1615ZM220.653 38.3935L241.554 90.6415L243.15 89.9775L222.264 37.7255L220.653 38.3935Z" fill="#263238"/>
<path d="M254.435 140.158C253.909 140.133 253.404 139.941 252.989 139.61C252.574 139.279 252.27 138.825 252.118 138.31L238.336 96.286C233.875 82.686 230.104 71.214 230.104 71.166C229.653 69.786 237.63 66.662 241.911 65.206C244.793 64.201 247.73 63.3703 250.707 62.718C254.596 61.918 254.788 62.51 254.862 62.718V62.79L276.814 129.87C277.03 130.507 277.013 131.201 276.767 131.826C276.654 132.117 276.481 132.38 276.259 132.596C276.037 132.812 275.772 132.976 275.482 133.078L255.074 140.054C254.868 140.124 254.652 140.159 254.435 140.158ZM253.741 62.71C252.746 62.7499 251.757 62.8838 250.786 63.11C247.826 63.7587 244.905 64.5841 242.04 65.582C234.157 68.27 230.323 70.562 230.48 71.038C230.48 71.038 233.616 80.594 238.712 96.158L252.491 138.182C252.883 139.338 253.973 140.01 254.949 139.674L275.388 132.71C275.624 132.629 275.84 132.497 276.021 132.323C276.202 132.149 276.344 131.937 276.438 131.702C276.648 131.167 276.661 130.573 276.473 130.03L254.494 62.902V62.858C254.494 62.858 254.408 62.71 253.741 62.71Z" fill="#263238"/>
<path d="M273.777 124.651L259.782 82.3354L234.808 80.8994C239.438 95.0194 249.018 123.823 251.746 132.151C252.138 133.295 253.216 133.951 254.196 133.615L272.691 127.315C273.659 126.995 274.149 125.795 273.777 124.651Z" fill="#F51919"/>
<path d="M253.663 133.916C253.183 133.894 252.721 133.719 252.342 133.417C251.964 133.114 251.687 132.699 251.55 132.228C250.374 128.628 247.928 121.256 245.102 112.728C241.413 101.596 237.235 88.9763 234.612 80.9763L234.518 80.6963L259.924 82.1443L273.961 124.592C274.157 125.172 274.142 125.804 273.918 126.372C273.814 126.638 273.655 126.879 273.452 127.077C273.249 127.275 273.007 127.426 272.742 127.52L254.247 133.82C254.059 133.884 253.862 133.916 253.663 133.916ZM235.075 81.1163C237.701 89.1163 241.829 101.584 245.474 112.588C248.297 121.116 250.739 128.48 251.923 132.092C252.26 133.124 253.248 133.724 254.122 133.428L272.62 127.128C272.831 127.052 273.024 126.93 273.185 126.771C273.345 126.613 273.471 126.421 273.553 126.208C273.746 125.728 273.758 125.193 273.589 124.704L259.637 82.5323L235.075 81.1163Z" fill="#263238"/>
<path d="M244.201 102.245L243.828 102.369L254.523 135.813L254.896 135.689L244.201 102.245Z" fill="#263238"/>
<path d="M239.905 87.5292L239.533 87.6543L243.26 99.2084L243.632 99.0834L239.905 87.5292Z" fill="#263238"/>
<path d="M251.75 65.0921L250.633 65.4673L271.184 129.173L272.301 128.797L251.75 65.0921Z" fill="#D9804C"/>
<path d="M243.224 138.562C243.095 139.094 250.355 131.818 252.817 130.362C255.278 128.906 258.65 128.246 260.335 127.322C262.021 126.398 263.185 128.522 262.409 130.23C261.633 131.938 258.65 133.802 256.058 135.918C253.467 138.034 252.04 139.49 251.131 140.81C250.222 142.13 251.131 144.914 249.316 146.63" fill="#D9804C"/>
<path d="M249.449 146.777L249.183 146.485C250.202 145.517 250.32 144.165 250.425 142.969C250.5 142.101 250.57 141.281 250.97 140.697C251.939 139.289 253.42 137.813 255.937 135.761C256.631 135.193 257.348 134.649 258.046 134.117C259.916 132.701 261.68 131.361 262.233 130.145C262.625 129.265 262.491 128.177 261.907 127.617C261.71 127.43 261.457 127.317 261.189 127.295C260.92 127.273 260.653 127.344 260.429 127.497C259.479 127.954 258.496 128.338 257.489 128.645C255.906 129.117 254.374 129.749 252.915 130.533C251.492 131.377 248.399 134.233 246.137 136.317C243.346 138.893 243.326 138.877 243.13 138.761L243.005 138.685L243.04 138.501L243.432 138.597L243.24 138.549L243.369 138.421C243.347 138.401 243.32 138.388 243.292 138.382C243.263 138.375 243.233 138.376 243.205 138.385C243.405 138.297 244.671 137.133 245.89 136.005C248.164 133.909 251.276 131.041 252.734 130.177C254.216 129.379 255.772 128.734 257.38 128.253C258.365 127.955 259.327 127.581 260.257 127.133C260.552 126.936 260.904 126.847 261.256 126.88C261.607 126.912 261.937 127.065 262.193 127.313C262.546 127.713 262.772 128.212 262.842 128.745C262.912 129.278 262.822 129.82 262.585 130.301C261.993 131.609 260.186 132.977 258.273 134.429C257.579 134.953 256.862 135.501 256.172 136.061C253.691 138.089 252.229 139.541 251.284 140.913C250.943 141.409 250.892 142.177 250.806 142.993C250.704 144.273 250.578 145.701 249.449 146.777Z" fill="#263238"/>
<path d="M235.2 129.303C235.2 129.303 237.015 122.423 237.532 118.323C238.05 114.223 246.089 110.387 248.163 109.463C250.237 108.539 256.329 106.419 256.587 108.263C256.846 110.107 256.195 110.775 253.867 112.627C251.538 114.479 248.81 115.935 246.866 117.787C244.921 119.639 244.906 121.227 244.906 121.227" fill="#D9804C"/>
<path d="M235.376 129.357L234.984 129.253C234.984 129.185 236.799 122.341 237.313 118.301C237.838 114.149 245.67 110.349 248.058 109.281C249.386 108.685 254.678 106.653 256.29 107.569C256.415 107.636 256.523 107.732 256.605 107.849C256.687 107.967 256.74 108.102 256.76 108.245C257.038 110.245 256.258 110.973 253.961 112.797C252.985 113.573 251.931 114.285 250.915 114.973C249.531 115.852 248.22 116.844 246.995 117.941C245.149 119.701 245.114 121.221 245.114 121.237H244.722C244.722 121.169 244.745 119.541 246.729 117.637C247.977 116.525 249.312 115.518 250.719 114.625C251.731 113.941 252.773 113.237 253.742 112.469C256.137 110.565 256.631 109.997 256.391 108.289C256.383 108.204 256.353 108.123 256.305 108.053C256.257 107.983 256.192 107.927 256.117 107.889C254.886 107.189 250.304 108.689 248.238 109.621C246.572 110.361 238.234 114.277 237.724 118.325C237.215 122.373 235.396 129.301 235.376 129.357Z" fill="#263238"/>
<path d="M250.919 108.796C250.919 108.796 250.735 109.048 250.919 109.8C251.104 110.552 251.35 110.928 251.703 110.928C252.056 110.928 254.781 110.488 255.274 110.176C255.768 109.864 255.517 107.728 255.517 107.728" fill="#F51919"/>
<path d="M251.719 111.13C251.115 111.13 250.864 110.402 250.731 109.85C250.535 109.05 250.731 108.73 250.762 108.678L251.076 108.918L250.919 108.798L251.084 108.91C251.084 108.91 250.958 109.13 251.111 109.754C251.35 110.73 251.629 110.73 251.719 110.73C252.06 110.73 254.741 110.29 255.184 110.01C255.415 109.862 255.451 108.722 255.341 107.754L255.733 107.706C255.796 108.238 255.952 109.994 255.396 110.346C254.839 110.698 252.056 111.13 251.719 111.13Z" fill="#263238"/>
<path d="M237.262 134.461C237.262 134.461 239.465 126.525 240.374 124.941C241.284 123.357 248.41 119.781 250.743 119.121C253.075 118.461 259.037 117.797 260.723 117.521C262.409 117.245 263.965 118.181 262.797 120.297C261.628 122.413 255.929 124.133 253.463 125.061C250.997 125.989 250.872 126.381 249.316 127.309C248.286 127.947 247.33 128.701 246.466 129.557C246.466 129.557 246.074 133.261 246.337 134.981" fill="#D9804C"/>
<path d="M246.141 135.022C245.882 133.298 246.254 129.702 246.27 129.546V129.478L246.321 129.426C247.196 128.558 248.166 127.794 249.21 127.15C249.661 126.878 249.994 126.65 250.296 126.45C251.249 125.781 252.29 125.254 253.389 124.886C253.781 124.746 254.204 124.586 254.694 124.414C257.301 123.49 261.664 121.946 262.62 120.214C263.052 119.414 263.118 118.778 262.809 118.322C262.499 117.866 261.656 117.586 260.747 117.73C260.312 117.798 259.571 117.894 258.72 118.01C256.247 118.334 252.507 118.81 250.79 119.314C248.497 119.962 241.382 123.546 240.535 125.042C239.688 126.538 237.466 134.438 237.442 134.518L237.05 134.41C237.14 134.082 239.273 126.43 240.186 124.838C241.17 123.114 248.489 119.546 250.672 118.926C252.417 118.434 256.16 117.938 258.657 117.61C259.524 117.498 260.225 117.402 260.676 117.334C261.754 117.166 262.687 117.458 263.118 118.098C263.397 118.498 263.593 119.238 262.95 120.41C261.923 122.274 257.642 123.79 254.812 124.81L253.514 125.278C252.445 125.638 251.431 126.151 250.504 126.802C250.202 127.006 249.857 127.238 249.398 127.514C248.408 128.13 247.487 128.858 246.654 129.682C246.603 130.202 246.298 133.438 246.529 134.982L246.141 135.022Z" fill="#263238"/>
<path d="M257.689 118.026C257.599 118.058 257.517 118.107 257.446 118.172C257.376 118.237 257.319 118.315 257.279 118.403C257.239 118.491 257.216 118.586 257.212 118.682C257.209 118.779 257.224 118.875 257.258 118.966C257.317 119.315 257.488 119.633 257.745 119.872C258.001 120.111 258.327 120.257 258.673 120.286C259.457 120.41 262.303 119.846 262.303 119.846C262.303 119.846 261.75 118.59 262.056 117.774" fill="#F51919"/>
<path d="M258.963 120.501C258.856 120.504 258.748 120.497 258.642 120.481C258.26 120.443 257.9 120.28 257.617 120.015C257.334 119.75 257.143 119.398 257.074 119.013C257.034 118.898 257.017 118.776 257.023 118.654C257.03 118.532 257.061 118.412 257.113 118.302C257.166 118.192 257.239 118.094 257.33 118.014C257.42 117.933 257.525 117.872 257.638 117.833L257.756 118.233C257.681 118.257 257.325 118.401 257.454 118.933C257.506 119.245 257.659 119.529 257.889 119.741C258.118 119.953 258.411 120.08 258.72 120.101C259.292 120.193 261.139 119.881 262.048 119.701C261.895 119.281 261.637 118.381 261.888 117.701L262.256 117.845C261.982 118.573 262.491 119.749 262.495 119.761L262.597 119.993L262.354 120.041C261.235 120.272 260.102 120.426 258.963 120.501Z" fill="#263238"/>
<path d="M262.487 128.948C262.377 129.312 259.351 130.768 258.304 130.076C257.258 129.384 257.995 128.632 257.995 128.632C257.995 128.632 258.422 128.264 259.171 127.74C259.919 127.216 260.131 127.024 261.091 127.024C262.052 127.024 262.64 128.388 262.487 128.948Z" fill="#F51919"/>
<path d="M259.069 130.463C258.765 130.477 258.463 130.402 258.199 130.247C258.029 130.158 257.881 130.03 257.767 129.873C257.654 129.716 257.577 129.535 257.544 129.343C257.535 129.187 257.557 129.032 257.61 128.886C257.662 128.74 257.744 128.607 257.85 128.495C258.239 128.164 258.647 127.859 259.073 127.579L259.261 127.447C259.773 127.007 260.431 126.785 261.099 126.827C261.334 126.835 261.563 126.901 261.768 127.019C261.973 127.136 262.147 127.302 262.275 127.503C262.439 127.712 262.558 127.954 262.625 128.213C262.693 128.472 262.707 128.742 262.667 129.007C262.558 129.375 261.362 129.891 260.911 130.059C260.322 130.294 259.7 130.43 259.069 130.463ZM258.124 128.787C257.998 128.927 257.93 129.112 257.936 129.303C257.965 129.433 258.021 129.555 258.102 129.66C258.183 129.765 258.285 129.851 258.403 129.911C258.681 130.095 259.187 130.115 259.857 129.963C261.009 129.703 262.162 129.071 262.295 128.879C262.327 128.469 262.204 128.062 261.95 127.743C261.856 127.596 261.731 127.474 261.583 127.384C261.436 127.295 261.27 127.241 261.099 127.227C260.51 127.185 259.927 127.383 259.481 127.779L259.288 127.911C258.882 128.182 258.49 128.474 258.112 128.787H258.124Z" fill="#263238"/>
<path d="M221.406 102.943C223.295 99.8031 222.546 92.6551 222.546 92.6551L230.543 76.9871C230.543 76.9871 231.402 77.0871 232.664 76.0791C233.377 75.5071 235.71 69.1951 235.71 69.1951L232.393 66.6671L229.257 63.8911C229.257 63.8911 223.769 67.5751 223.303 68.3791C222.452 69.8911 222.88 70.6871 222.88 70.6871L209.552 81.9631C209.552 81.9631 202.547 82.7231 199.932 85.2671C197.317 87.8111 171.696 121.023 171.696 121.023C171.696 121.023 169.344 122.551 170.011 126.151C170.347 127.911 171.288 129.49 172.664 130.603L176.451 133.723L178.168 135.135L178.27 135.219L179.983 136.631L183.77 139.755C185.127 140.893 186.839 141.499 188.595 141.463C192.178 141.359 193.15 138.703 193.15 138.703C193.15 138.703 219.52 106.099 221.406 102.943Z" fill="#828282"/>
<path d="M188.376 141.669C186.642 141.653 184.967 141.032 183.628 139.909L172.523 130.761C171.108 129.618 170.142 127.996 169.799 126.189C169.168 122.725 171.261 121.081 171.539 120.877C172.825 119.217 197.235 87.6325 199.818 85.1205C202.401 82.6085 208.756 81.8565 209.489 81.7685L222.656 70.6245C222.558 70.3005 222.452 69.5045 223.142 68.2805C223.601 67.4805 228.591 64.1045 229.155 63.7245L229.281 63.6445L232.515 66.5165L235.937 69.1285L235.882 69.2685C235.643 69.9205 233.53 75.6685 232.777 76.2365C232.186 76.775 231.442 77.1083 230.653 77.1885L222.742 92.6965C222.813 93.4445 223.393 100.005 221.566 103.053C219.704 106.153 194.612 137.181 193.295 138.809C193.158 139.129 192.021 141.565 188.572 141.665L188.376 141.669ZM229.253 64.1445C227.058 65.6205 223.797 67.9325 223.487 68.4805C222.703 69.8605 223.064 70.5845 223.068 70.5925L223.142 70.7365L223.02 70.8405L209.649 82.1565H209.591C209.52 82.1565 202.621 82.9565 200.085 85.4085C197.548 87.8605 172.088 120.817 171.829 121.149L171.782 121.193C171.692 121.253 169.563 122.701 170.183 126.117C170.513 127.828 171.43 129.364 172.77 130.449L183.875 139.601C185.198 140.711 186.867 141.301 188.579 141.265C191.994 141.165 192.95 138.661 192.958 138.637L192.993 138.577C193.256 138.253 219.391 105.941 221.253 102.841C223.079 99.7925 222.37 92.7485 222.366 92.6765V92.6165L222.393 92.5645L230.453 76.7725H230.586C230.586 76.7725 231.394 76.8445 232.546 75.9085C233.028 75.5085 234.541 71.7685 235.478 69.2525L232.28 66.8125L229.253 64.1445Z" fill="#263238"/>
<path d="M229.841 64.574L230.88 65.374L228.634 63.374L228.552 63.43L229.841 64.574Z" fill="#263238"/>
<path d="M220.857 102.309C222.734 99.1812 221.978 92.0492 221.978 92.0492L229.928 76.4492C229.928 76.4492 230.786 76.5492 232.044 75.5452C232.754 74.9772 235.071 68.6852 235.071 68.6852L233.111 67.2012C232.836 67.9452 230.782 73.4452 230.116 73.9772C228.861 74.9812 228.003 74.8772 228.003 74.8772L220.049 90.4772C220.049 90.4772 220.81 97.6092 218.932 100.741C217.054 103.873 190.751 136.381 190.751 136.381C190.751 136.381 189.783 139.025 186.204 139.125C184.497 139.15 182.834 138.569 181.5 137.481L183.315 138.977C184.67 140.118 186.38 140.728 188.137 140.697C191.716 140.597 192.68 137.949 192.68 137.949C192.68 137.949 218.979 105.441 220.857 102.309Z" fill="#263238"/>
<path d="M235.004 68.8093L234.024 67.9453L236.415 69.7573L236.38 69.8493L235.004 68.8093Z" fill="#F5C893"/>
<path d="M200.809 85.8596C203.404 83.3196 210.394 82.5436 210.394 82.5436L223.632 71.2676C223.632 71.2676 223.349 70.4356 224.024 68.9676C224.416 68.1356 229.939 64.4756 229.939 64.4756L231.781 66.0956C231.127 66.5316 226.293 69.7636 225.941 70.5356C225.247 72.0036 225.549 72.8396 225.549 72.8396L212.307 84.0996C212.307 84.0996 205.317 84.8716 202.726 87.4156C200.135 89.9596 174.663 123.152 174.663 123.152C174.663 123.152 172.335 124.684 173.009 128.272C173.349 129.985 174.264 131.524 175.596 132.624L173.773 131.136C172.393 130.028 171.444 128.456 171.096 126.7C170.422 123.1 172.746 121.584 172.746 121.584C172.746 121.584 198.218 88.4036 200.809 85.8596Z" fill="#FFFEFD"/>
<path d="M208.512 89.8778C207.948 90.5978 206.654 90.5018 205.627 89.6578C204.6 88.8138 204.232 87.5498 204.796 86.8298C205.361 86.1098 206.658 86.2098 207.681 87.0498C208.704 87.8898 209.081 89.1578 208.512 89.8778Z" fill="#FFFEFD"/>
<path d="M234.808 70.0726L228.853 65.1806C228.646 65.0105 228.474 64.8005 228.347 64.5624C228.219 64.3244 228.139 64.063 228.111 63.7933C228.082 63.5236 228.106 63.2508 228.181 62.9906C228.256 62.7303 228.381 62.4877 228.548 62.2766C228.715 62.0656 228.921 61.8903 229.154 61.7606C229.388 61.6309 229.644 61.5494 229.908 61.5208C230.172 61.4922 230.44 61.517 230.695 61.5939C230.949 61.6707 231.187 61.798 231.394 61.9686L237.329 66.8606C237.536 67.0307 237.708 67.2408 237.835 67.4788C237.963 67.7169 238.043 67.9782 238.071 68.248C238.1 68.5177 238.076 68.7904 238.001 69.0507C237.926 69.3109 237.801 69.5535 237.634 69.7646C237.297 70.184 236.812 70.4514 236.283 70.509C235.754 70.5666 235.224 70.4099 234.808 70.0726Z" fill="#828282"/>
<path d="M236.054 70.7326C235.548 70.7323 235.056 70.5543 234.663 70.2286L228.728 65.3366C228.501 65.1496 228.313 64.9188 228.173 64.6575C228.034 64.3962 227.946 64.1094 227.916 63.8136C227.885 63.5177 227.912 63.2186 227.994 62.9333C228.077 62.6479 228.213 62.382 228.397 62.1506C228.58 61.9192 228.806 61.7269 229.062 61.5847C229.318 61.4425 229.599 61.3531 229.889 61.3217C230.179 61.2903 230.472 61.3175 230.752 61.4018C231.032 61.486 231.292 61.6256 231.519 61.8126L237.454 66.7046C237.792 66.988 238.04 67.3669 238.167 67.7938C238.294 68.2206 238.295 68.6763 238.17 69.1037C238.044 69.531 237.797 69.911 237.461 70.1958C237.124 70.4806 236.713 70.6576 236.278 70.7046C236.215 70.7246 236.133 70.7326 236.054 70.7326ZM230.123 61.7006C229.746 61.7009 229.378 61.8206 229.07 62.043C228.762 62.2654 228.529 62.5797 228.403 62.9428C228.277 63.3058 228.265 63.6996 228.367 64.0703C228.469 64.4409 228.682 64.7701 228.975 65.0126L234.91 69.9046C235.097 70.0585 235.311 70.1733 235.542 70.2425C235.772 70.3118 236.014 70.334 236.252 70.308C236.491 70.282 236.723 70.2083 236.933 70.091C237.144 69.9737 237.331 69.8152 237.481 69.6246C237.632 69.4339 237.745 69.2148 237.813 68.9797C237.88 68.7446 237.902 68.4982 237.877 68.2546C237.851 68.0109 237.779 67.7748 237.664 67.5596C237.549 67.3444 237.394 67.1545 237.207 67.0006L231.28 62.1246C230.955 61.85 230.546 61.7001 230.123 61.7006Z" fill="#263238"/>
<path d="M231.793 64.7659C231.429 65.2299 230.594 65.1659 229.927 64.6219C229.261 64.0779 229.022 63.2579 229.39 62.7939C229.759 62.3299 230.59 62.3939 231.256 62.9379C231.923 63.4819 232.162 64.3019 231.793 64.7659Z" fill="#F5C893"/>
<path d="M234.051 66.8373C233.785 67.1773 234.212 67.9853 235.012 68.6413C235.812 69.2973 236.674 69.5493 236.94 69.2093C237.207 68.8693 236.78 68.0613 235.98 67.4093C235.18 66.7573 234.318 66.5013 234.051 66.8373Z" fill="#263238"/>
<path d="M224.095 89.6209L227.924 82.1249L226.658 81.0809C226.679 80.2106 226.504 79.347 226.145 78.557C225.787 77.767 225.255 77.0718 224.591 76.525C223.927 75.9783 223.149 75.5947 222.316 75.4039C221.484 75.2131 220.62 75.2203 219.79 75.4249L218.528 74.3809L212.15 79.7769L224.095 89.6209Z" fill="#F6C644"/>
<path d="M224.161 89.928L211.841 79.78L218.528 74.124L219.842 75.204C220.688 75.0106 221.566 75.0148 222.411 75.2161C223.255 75.4175 224.044 75.811 224.719 76.3671C225.393 76.9232 225.936 77.6276 226.307 78.4277C226.677 79.2279 226.866 80.1031 226.858 80.988L228.172 82.068L224.161 89.928ZM212.464 79.776L224.032 89.3L227.674 82.164L226.462 81.164V81.064C226.483 80.2242 226.314 79.3908 225.968 78.6284C225.623 77.8659 225.11 77.1948 224.47 76.6669C223.829 76.1391 223.078 75.7687 222.275 75.5844C221.472 75.4001 220.638 75.4068 219.838 75.604L219.744 75.628L218.528 74.628L212.464 79.776Z" fill="#263238"/>
<path d="M172.433 120.042L193.914 137.746C196.933 134.03 213.122 113.866 218.528 106.87L196.784 88.9658C191.233 95.8138 175.357 116.25 172.433 120.042Z" fill="#F6C644"/>
<path d="M193.942 138.021L193.793 137.897L172.159 120.073L172.28 119.917C175.487 115.753 191.12 95.6446 196.651 88.8366L196.772 88.6846L196.925 88.8086L218.803 106.837L218.685 106.989C213.307 113.969 197.235 133.969 194.064 137.869L193.942 138.021ZM172.707 120.021L193.875 137.477C197.294 133.265 212.821 113.937 218.242 106.913L196.819 89.2566C191.261 96.1006 176.141 115.557 172.707 120.009V120.021Z" fill="#263238"/>
<path d="M204.742 120.103C208.581 115.034 207.667 107.749 202.699 103.831C197.732 99.9133 190.592 100.847 186.753 105.916C182.913 110.985 183.828 118.27 188.795 122.187C193.763 126.105 200.902 125.172 204.742 120.103Z" fill="#F5C893"/>
<path d="M195.722 124.795C192.702 124.794 189.801 123.59 187.638 121.439C185.475 119.288 184.22 116.361 184.14 113.28C184.06 110.2 185.161 107.209 187.21 104.944C189.259 102.68 192.093 101.321 195.108 101.156C198.124 100.992 201.084 102.035 203.358 104.063C205.631 106.092 207.039 108.946 207.281 112.018C207.524 115.09 206.581 118.137 204.655 120.511C202.729 122.884 199.971 124.397 196.968 124.727C196.554 124.772 196.138 124.794 195.722 124.795ZM195.765 101.595C195.362 101.595 194.959 101.616 194.558 101.659C192.73 101.857 190.978 102.512 189.457 103.566C187.936 104.62 186.694 106.041 185.84 107.702C184.986 109.363 184.547 111.214 184.562 113.09C184.576 114.965 185.044 116.809 185.923 118.456C186.803 120.103 188.067 121.503 189.604 122.533C191.141 123.562 192.903 124.189 194.733 124.357C196.564 124.526 198.408 124.231 200.1 123.499C201.793 122.766 203.282 121.619 204.436 120.159C205.759 118.486 206.591 116.465 206.837 114.33C207.083 112.196 206.732 110.033 205.826 108.093C204.92 106.152 203.494 104.512 201.714 103.363C199.934 102.213 197.872 101.6 195.765 101.595Z" fill="#263238"/>
<path d="M193.205 193.732C192.452 184.76 190.39 160.56 189.814 157.164C189.109 152.988 186.709 148.812 184.718 145.644C182.727 142.476 180.202 139.736 178.932 135.128C177.662 130.52 175.259 122.728 175.259 122.728C175.259 122.728 172.86 116.82 173.848 113.796C174.836 110.772 178.223 111.348 178.223 111.348C178.223 111.348 177.376 107.892 178.932 106.148C180.488 104.404 184.154 104.708 184.154 104.708C184.154 104.708 183.166 102.116 184.295 99.9559C185.424 97.7959 188.528 97.5079 189.093 98.0839C189.657 98.6599 195.447 104.276 195.447 104.276C195.447 104.276 194.742 96.7879 194.742 94.9159C194.742 93.0439 193.613 92.6079 193.613 92.6079C193.613 92.6079 190.927 93.9079 190.927 90.6079C190.927 87.3079 195.608 87.2999 196.874 87.4479C198.14 87.5959 201.39 90.0399 202.362 91.0479C203.334 92.0559 205.612 98.8279 206.317 104.732C207.023 110.636 210.551 116.688 210.551 116.688L214.361 112.224C214.735 112.252 215.094 112.389 215.394 112.619C215.694 112.848 215.924 113.161 216.055 113.52C216.623 114.816 216.905 119.14 216.905 121.732C216.905 124.324 216.196 128.932 214.643 132.392C213.091 135.852 211.68 138.728 212.527 143.624C213.373 148.52 216.482 160.048 216.482 160.048L225.678 192.756" fill="#F5C893"/>
<path d="M193.013 193.747C192.182 183.871 190.187 160.547 189.622 157.199C188.94 153.155 186.686 149.143 184.569 145.747C184.075 144.947 183.554 144.203 183.001 143.407C181.386 141.075 179.716 138.663 178.756 135.179C177.502 130.627 175.114 122.875 175.091 122.799C174.997 122.571 172.68 116.799 173.679 113.743C174.538 111.119 177.133 111.075 177.991 111.131C177.823 110.259 177.439 107.555 178.803 106.039C180.167 104.523 182.966 104.487 183.899 104.519C183.672 103.767 183.197 101.699 184.146 99.8829C185.032 98.1909 186.91 97.7829 187.462 97.6989C188.285 97.5749 188.975 97.6749 189.258 97.9669C189.728 98.4469 193.93 102.527 195.224 103.787C195.063 102.031 194.569 96.5269 194.569 94.9389C194.569 93.4789 193.86 92.9749 193.632 92.8509C193.338 92.9749 192.362 93.3149 191.617 92.8509C191.045 92.4829 190.755 91.7389 190.755 90.6349C190.745 90.2272 190.823 89.8223 190.983 89.4486C191.143 89.0748 191.381 88.7411 191.68 88.4709C193.06 87.2069 195.702 87.1309 196.906 87.2709C198.281 87.4269 201.566 89.9509 202.527 90.9309C203.562 91.9869 205.816 98.7349 206.533 104.731C207.148 109.871 209.955 115.191 210.606 116.371L214.299 112.047H214.385C214.797 112.075 215.193 112.224 215.525 112.475C215.857 112.726 216.112 113.069 216.259 113.463C216.85 114.815 217.125 119.211 217.125 121.755C217.037 125.45 216.264 129.094 214.847 132.495L214.679 132.871C213.209 136.135 211.935 138.955 212.742 143.615C213.581 148.447 216.662 159.903 216.694 160.015L225.89 192.723L225.498 192.835L216.306 160.099C216.274 159.983 213.189 148.499 212.35 143.659C211.523 138.879 212.817 136.003 214.31 132.679L214.479 132.307C215.873 128.957 216.634 125.369 216.721 121.731C216.721 119.119 216.431 114.843 215.89 113.599C215.776 113.292 215.583 113.021 215.331 112.816C215.079 112.61 214.778 112.477 214.459 112.431L210.539 117.027L210.402 116.791C210.367 116.731 206.843 110.635 206.141 104.755C205.447 98.9389 203.221 92.1869 202.245 91.1909C201.178 90.1029 198.015 87.7789 196.855 87.6469C195.694 87.5149 193.217 87.5789 191.935 88.7469C191.678 88.9808 191.475 89.2693 191.34 89.5921C191.204 89.9148 191.14 90.264 191.151 90.6149C191.151 91.5709 191.382 92.2149 191.829 92.4909C192.519 92.9389 193.546 92.4549 193.554 92.4509L193.628 92.4149L193.707 92.4469C193.758 92.4469 194.965 92.9509 194.965 94.9389C194.965 96.7789 195.663 104.207 195.671 104.283L195.718 104.815L195.326 104.447C195.091 104.215 189.532 98.8189 188.971 98.2469C188.811 98.0869 188.262 97.9829 187.513 98.0949C187.004 98.1709 185.283 98.5429 184.483 100.075C183.413 102.123 184.342 104.635 184.354 104.659L184.463 104.955L184.154 104.931C184.118 104.931 180.559 104.671 179.089 106.307C177.619 107.943 178.423 111.275 178.431 111.311L178.501 111.607L178.207 111.555C178.078 111.535 174.973 111.047 174.052 113.871C173.095 116.791 175.432 122.603 175.455 122.671C175.479 122.739 177.878 130.519 179.136 135.071C180.077 138.487 181.727 140.871 183.323 143.179C183.852 143.943 184.401 144.731 184.891 145.535C187.027 148.959 189.305 153.019 189.987 157.135C190.551 160.487 192.546 183.835 193.378 193.715L193.013 193.747Z" fill="#263238"/>
<path d="M184.321 104.618L184.022 104.877L187.973 109.629L188.272 109.37L184.321 104.618Z" fill="#263238"/>
<path d="M178.411 111.252L178.073 111.454L181.038 116.64L181.376 116.438L178.411 111.252Z" fill="#263238"/>
<path d="M194.346 116.381L194.036 116.137C195.207 114.501 195.836 112.527 195.831 110.501H196.223C196.24 112.617 195.581 114.681 194.346 116.381Z" fill="#263238"/>
<path d="M186.741 119.522L186.396 119.334C187.207 117.814 187.082 114.714 187.078 114.682H187.47C187.478 114.798 187.603 117.91 186.741 119.522Z" fill="#263238"/>
<path d="M179.968 124.268L179.619 124.092C180.15 122.885 180.477 121.595 180.587 120.276L180.979 120.304C180.868 121.675 180.525 123.016 179.968 124.268Z" fill="#263238"/>
<path d="M213.887 119.323C212.319 118.739 210.504 116.923 210.43 116.831L210.704 116.547C210.704 116.567 212.527 118.395 214.02 118.947L213.887 119.323Z" fill="#263238"/>
<path d="M198.744 91.2999L198.435 91.0519C198.627 90.7829 198.871 90.5569 199.152 90.3877C199.433 90.2184 199.745 90.1096 200.069 90.0679C201.324 89.9279 202.457 90.8679 202.504 90.8919L202.257 91.1999C202.257 91.1999 201.198 90.3399 200.108 90.4639C199.837 90.5019 199.577 90.5956 199.342 90.7393C199.108 90.883 198.904 91.0737 198.744 91.2999Z" fill="#263238"/>
<path opacity="0.18" d="M112.645 112.634C112.393 112.886 112.1 113.09 111.779 113.238C111.777 113.429 111.788 113.62 111.81 113.81L117.251 135.994C117.819 137.284 118.722 138.391 119.862 139.194C119.298 138.56 118.834 137.841 118.486 137.062L113.045 114.882C112.946 113.802 113.123 112.715 113.559 111.726L112.645 112.634Z" fill="black"/>
<path opacity="0.18" d="M133.978 140.579C133.99 140.6 133.998 140.623 134.001 140.647C134.476 142.531 128.047 145.723 119.642 147.775C115.656 148.747 111.375 149.575 107.283 149.375C106.449 149.349 105.623 149.204 104.829 148.943C105.185 149.811 107.055 150.175 108.435 150.239C112.531 150.427 116.812 149.599 120.799 148.639C129.203 146.587 135.632 143.395 135.158 141.511C135.056 141.107 134.644 140.795 133.978 140.579Z" fill="black"/>
<path d="M110.062 151.111C109.399 151.111 108.741 151.087 108.102 151.035C107.522 150.987 104.601 150.687 104.1 149.215C103.868 148.543 104.202 147.783 105.08 146.951C106.165 145.927 108.008 144.823 110.415 143.751C111.174 143.416 111.915 143.038 112.633 142.619C114.009 141.819 114.789 141.223 115.021 140.831C116.079 139.047 115.879 136.799 115.875 136.775L110.438 114.623C109.98 113.543 109.229 112.618 108.274 111.959C106.761 110.915 87.028 92.2827 83.0845 88.5587L82.2495 87.7587L83.2962 88.2187C85.8912 89.3547 95.0366 88.3227 105.036 85.7627C115.036 83.2027 123.594 79.7027 125.342 77.4467L126.048 76.5347L125.679 77.6347C123.249 84.9107 115.26 108.767 114.433 110.371C113.89 111.418 113.657 112.603 113.762 113.783L119.168 135.967C119.168 135.967 120.034 138.043 121.787 139.103C122.139 139.319 122.963 139.451 124.323 139.503C125.227 139.537 126.132 139.507 127.032 139.415C132.296 138.887 135.656 139.523 136.048 141.111C136.632 143.511 130.042 147.179 121.042 149.447C117.745 150.291 113.915 151.111 110.062 151.111ZM83.9547 88.8667C89.0037 93.6347 107.051 110.655 108.474 111.639C109.508 112.345 110.315 113.347 110.795 114.519L116.244 136.719C116.36 138.222 116.045 139.727 115.338 141.051C115.064 141.515 114.284 142.107 112.81 142.975C112.079 143.405 111.323 143.79 110.548 144.131C108.196 145.171 106.381 146.251 105.327 147.243C104.57 147.959 104.276 148.579 104.448 149.083C104.754 149.979 106.51 150.507 108.114 150.635C112.571 150.987 117.13 150.039 120.967 149.067C130.34 146.703 136.146 143.099 135.687 141.215C135.366 139.879 131.986 139.331 127.083 139.819C126.163 139.917 125.239 139.948 124.315 139.911C122.88 139.847 122.014 139.699 121.598 139.447C120.371 138.627 119.401 137.463 118.807 136.095L113.359 113.883C113.232 112.613 113.477 111.334 114.064 110.207C114.848 108.663 122.798 84.9787 125.017 78.3507C122.343 80.6627 114.488 83.7747 105.111 86.1747C95.7343 88.5747 87.3925 89.6147 83.9547 88.8667Z" fill="#263238"/>
<path d="M86.785 89.1024C84.5271 89.1024 82.52 88.8024 82.2652 87.7704C81.9124 86.3304 85.2209 84.4984 88.059 83.2184C91.979 81.4464 97.3416 79.6544 103.143 78.1704C113.888 75.4184 125.373 74.0704 125.989 76.5704C126.342 78.0104 123.033 79.8384 120.191 81.1224C116.271 82.8944 110.913 84.6864 105.111 86.1704C99.3094 87.6544 93.743 88.6544 89.478 88.9704C88.5921 89.0544 87.6748 89.1024 86.785 89.1024ZM121.497 75.6344C117.577 75.6344 111.113 76.5424 103.237 78.5584C97.4592 80.0344 92.124 81.8224 88.2197 83.5864C84.5114 85.2584 82.426 86.7864 82.6455 87.6704C82.865 88.5544 85.3895 88.9024 89.4506 88.5904C93.7077 88.2624 99.2506 87.2664 105.017 85.7904C110.783 84.3144 116.126 82.5264 120.034 80.7624C123.743 79.0904 125.828 77.5624 125.609 76.6784C125.44 75.9944 123.974 75.6344 121.497 75.6344Z" fill="#263238"/>
<path d="M109.239 110.45C109.716 110.788 110.296 110.939 110.873 110.874C112.104 110.678 112.775 109.546 112.947 109.218L112.994 109.126C113.661 107.882 121.226 86.1343 121.226 86.1343L94.4722 97.2023C99.4858 101.798 108.067 109.634 108.886 110.182C109.009 110.264 109.127 110.354 109.239 110.45Z" fill="#DA37F5"/>
<path d="M110.587 111.099C110.068 111.082 109.565 110.917 109.133 110.623C109.027 110.535 108.913 110.447 108.792 110.363C107.961 109.811 99.3837 101.963 94.3504 97.3708L94.1191 97.1548L121.59 85.7988L121.445 86.1988C121.136 87.0868 113.852 107.975 113.186 109.219L113.143 109.307C112.955 109.671 112.241 110.859 110.92 111.071C110.81 111.089 110.699 111.098 110.587 111.099ZM109.352 110.299C109.787 110.607 110.315 110.748 110.842 110.699C111.979 110.519 112.61 109.463 112.774 109.147L112.821 109.051C113.421 107.931 119.85 89.5388 120.908 86.5068L94.8287 97.3068C99.8815 101.903 108.192 109.483 108.976 110.015C109.112 110.099 109.243 110.191 109.368 110.291L109.352 110.299Z" fill="#263238"/>
<path d="M107.959 108.081L107.686 108.368L109.627 110.301L109.901 110.015L107.959 108.081Z" fill="#263238"/>
<path d="M91.6795 91.8592L91.4058 92.1455L106.665 107.34L106.939 107.054L91.6795 91.8592Z" fill="#263238"/>
<path d="M117.451 82.0576L111.441 103.086L113.503 103.698L119.991 80.9976C119.207 81.3456 118.36 81.6976 117.451 82.0576Z" fill="#CCCCCC"/>
<path d="M113.637 103.947L111.199 103.223L117.29 81.9071L117.381 81.8751C118.286 81.5191 119.137 81.1631 119.913 80.8151L120.305 80.6431L113.637 103.947ZM111.677 102.951L113.363 103.451L119.678 81.3511C119.031 81.6351 118.337 81.9231 117.604 82.2111L111.677 102.951Z" fill="#263238"/>
<path d="M106.546 86.696L111.56 108.1C111.567 108.148 111.593 108.192 111.631 108.221C111.67 108.249 111.718 108.261 111.765 108.254C111.813 108.247 111.855 108.22 111.883 108.181C111.912 108.142 111.924 108.092 111.916 108.044L109.702 85.604L106.546 86.696Z" fill="white"/>
<path d="M127.627 66.7275C126.094 66.4856 124.527 66.8208 123.218 67.6708C121.909 68.5209 120.947 69.8276 120.513 71.3475L119.337 75.5195L117.467 82.0595C118.376 81.7035 119.223 81.3475 120.007 80.9995L121.575 75.4435L122.571 71.9635C122.862 70.9545 123.502 70.0876 124.372 69.524C125.242 68.9604 126.283 68.7385 127.302 68.8995L140.073 70.8995L140.399 68.7355L127.627 66.7275Z" fill="#CCCCCC"/>
<path d="M117.153 82.3902L120.344 71.2982C120.793 69.7319 121.784 68.3854 123.134 67.509C124.483 66.6327 126.098 66.2863 127.679 66.5342L140.642 68.5702L140.25 71.1302L127.283 69.0942C126.31 68.9416 125.317 69.1549 124.488 69.6944C123.658 70.2338 123.049 71.0626 122.775 72.0262L120.164 81.1502L120.082 81.1862C119.298 81.5382 118.447 81.8942 117.534 82.2542L117.153 82.3902ZM126.655 66.8502C125.314 66.8506 124.008 67.2948 122.935 68.1162C121.861 68.9376 121.077 70.092 120.701 71.4062L117.753 81.7262C118.486 81.4302 119.184 81.1382 119.827 80.8502L122.387 71.9062C122.692 70.8521 123.361 69.9468 124.271 69.3584C125.181 68.7699 126.269 68.5382 127.334 68.7062L139.909 70.6822L140.175 68.9142L127.596 66.9382C127.285 66.8849 126.971 66.8555 126.655 66.8502Z" fill="#263238"/>
<path d="M112.704 148.626H112.504C109.666 148.594 108.254 148.226 108.055 147.426C107.878 146.742 108.658 145.918 110.516 144.826L111.234 144.426C113.084 143.366 115.883 141.762 116.385 140.282C116.937 138.682 116.385 136.518 115.993 134.95L115.934 134.714C115.542 133.162 110.638 113.166 110.591 112.962V112.882L111.375 111.51L118.086 138.638C118.229 139.129 118.251 139.648 118.148 140.15C118.045 140.651 117.822 141.119 117.498 141.51C116.708 142.32 115.854 143.064 114.946 143.734C113.809 144.63 112.523 145.65 112.378 146.078C112.356 146.131 112.35 146.189 112.361 146.246C112.373 146.302 112.4 146.354 112.441 146.394C112.868 146.894 114.742 147.194 118.599 146.358C120.974 145.886 123.321 145.284 125.632 144.554L127.404 143.93L125.797 144.914C125.722 144.95 119.65 148.626 112.704 148.626ZM110.979 112.946C111.32 114.338 115.918 133.11 116.302 134.614L116.361 134.85C116.777 136.45 117.349 138.682 116.753 140.414C116.2 142.014 113.327 143.682 111.422 144.774L110.708 145.174C108.568 146.434 108.356 147.066 108.427 147.326C108.498 147.586 109.148 148.178 112.504 148.214C117.161 148.266 121.418 146.614 123.746 145.518C122.57 145.834 120.908 146.258 118.65 146.738C115.24 147.47 112.798 147.434 112.12 146.646C112.034 146.552 111.976 146.436 111.951 146.31C111.926 146.184 111.935 146.054 111.979 145.934C112.151 145.43 113.111 144.642 114.675 143.406C115.562 142.752 116.397 142.028 117.173 141.242C117.451 140.899 117.643 140.492 117.732 140.056C117.821 139.621 117.804 139.169 117.682 138.742L111.198 112.53L110.979 112.946Z" fill="#263238"/>
<path d="M101.626 191.723C101.987 186.523 101.316 164.523 102.716 159.939C105.628 150.379 117.353 139.939 118.886 137.287C120.419 134.635 119.838 133.211 119.838 133.211C120.284 130.676 120.443 128.098 120.313 125.527C120.078 121.435 121.265 117.687 121.849 114.535C122.188 112.559 122.045 110.529 121.434 108.623C121.434 108.623 121.991 107.915 122.473 103.735C122.837 100.575 124.578 97.3868 125.24 94.3068C125.683 92.2588 126.714 88.6068 126.647 87.1508C126.581 85.6948 125.813 87.4228 125.813 87.4228C125.813 87.4228 122.986 88.4868 121.775 90.4988C120.564 92.5108 117.396 96.2388 114.072 105.795C110.748 115.351 106.024 121.207 103.825 122.995C101.626 124.783 99.772 123.923 99.5446 119.023C99.3172 114.123 99.0977 108.011 97.4396 103.583C95.7814 99.1548 93.0962 97.7508 91.2812 96.5988C89.4663 95.4468 89.7132 99.1308 90.0033 101.319C90.2934 103.507 91.1793 107.119 91.5478 109.551C91.9163 111.983 92.371 114.659 92.3004 117.371C92.2299 120.083 91.0186 126.663 89.7211 129.643C88.4236 132.623 86.099 138.631 85.8873 155.907C85.7658 165.507 77.9258 188.359 75.6953 193.971" fill="#986666"/>
<path d="M75.8758 194.058L75.5151 193.906C77.6398 188.602 85.5856 165.622 85.7071 155.906C85.9306 137.906 88.4707 132.058 89.5566 129.566C90.858 126.578 92.0575 119.966 92.1203 117.366C92.183 114.866 91.7949 112.334 91.4499 110.102L91.3715 109.586C91.1951 108.434 90.9011 106.994 90.615 105.606C90.3053 104.082 89.9839 102.506 89.831 101.35C89.5605 99.3501 89.439 96.8741 90.2779 96.3101C90.5797 96.1061 90.9599 96.1501 91.4068 96.4341L91.8184 96.6901C93.6138 97.8141 96.0795 99.3502 97.6396 103.514C99.2429 107.782 99.5134 113.658 99.729 118.378L99.7564 119.018C99.9054 122.218 100.717 123.238 101.368 123.538C102.152 123.906 103.084 123.362 103.72 122.842C105.774 121.162 110.544 115.422 113.912 105.718C116.656 97.8141 119.255 93.9341 120.815 91.6141C121.132 91.1421 121.407 90.7341 121.618 90.3821C122.751 88.5021 125.201 87.4461 125.675 87.2581C125.973 86.6141 126.256 86.3101 126.506 86.3621C126.757 86.4141 126.836 86.8021 126.851 87.1301C126.902 88.2381 126.358 90.4901 125.875 92.4781C125.711 93.1621 125.554 93.8061 125.44 94.3421C125.105 95.7213 124.681 97.0762 124.17 98.3981C123.535 100.158 122.881 101.974 122.677 103.75C122.285 107.214 121.826 108.326 121.657 108.638C122.256 110.551 122.391 112.584 122.049 114.562C121.908 115.314 121.736 116.094 121.552 116.914C120.983 119.494 120.332 122.418 120.513 125.506C120.64 128.076 120.483 130.652 120.046 133.186C120.144 133.498 120.466 134.942 119.058 137.378C118.619 138.142 117.416 139.462 115.758 141.294C111.728 145.73 104.99 153.154 102.908 159.99C101.987 163.014 101.971 173.59 101.959 182.118C101.959 186.338 101.959 189.978 101.826 191.718L101.434 191.69C101.556 189.958 101.56 186.322 101.567 182.11C101.567 173.57 101.595 162.946 102.532 159.862C104.641 152.942 111.418 145.462 115.468 141.014C117.036 139.27 118.302 137.894 118.721 137.166C120.176 134.65 119.666 133.282 119.662 133.27L119.639 133.214V133.154C120.079 130.637 120.236 128.076 120.109 125.522C119.929 122.374 120.583 119.422 121.16 116.818C121.34 116.018 121.512 115.218 121.65 114.482C121.984 112.542 121.85 110.549 121.258 108.674L121.222 108.57L121.289 108.482C121.309 108.454 121.826 107.682 122.289 103.682C122.496 101.862 123.163 100.022 123.802 98.2421C124.307 96.9389 124.726 95.6025 125.056 94.2421C125.174 93.7061 125.331 93.0421 125.495 92.3701C125.946 90.5061 126.506 88.1861 126.459 87.1381C126.458 87.0196 126.443 86.9015 126.416 86.7861C126.246 86.9988 126.105 87.2343 125.997 87.4861L125.966 87.5621L125.887 87.5901C125.86 87.5901 123.112 88.6541 121.967 90.5821C121.752 90.9381 121.473 91.3501 121.152 91.8301C119.603 94.1341 117.016 97.9861 114.296 105.83C110.905 115.622 106.064 121.43 103.986 123.134C102.951 123.978 101.999 124.238 101.242 123.886C100.148 123.382 99.5291 121.742 99.4036 119.018L99.3723 118.378C99.1567 113.686 98.8862 107.846 97.3103 103.638C95.7933 99.5981 93.3903 98.1061 91.6459 97.0141L91.2343 96.7541C90.9286 96.5581 90.6895 96.5142 90.5248 96.6262C90.0074 96.9662 89.9055 98.7061 90.2543 101.278C90.4072 102.418 90.7287 103.986 91.0383 105.502C91.3245 106.898 91.6185 108.342 91.7949 109.502L91.8772 110.022C92.2222 112.27 92.6142 114.822 92.5515 117.358C92.4887 120.03 91.2971 126.63 89.9525 129.71C88.8784 132.178 86.3579 137.958 86.1383 155.894C85.9776 165.698 78.0083 188.738 75.8758 194.058Z" fill="#263238"/>
<path d="M121.434 108.622C121.434 108.622 118.18 116.682 118.062 120.482L121.434 108.622Z" fill="#986666"/>
<path d="M118.259 120.5H117.867C117.984 116.704 121.12 108.9 121.254 108.568L121.618 108.72C121.583 108.78 118.384 116.768 118.259 120.5Z" fill="#263238"/>
<path d="M90.019 101.328C90.019 101.328 91.0382 106.64 91.6733 106.568C92.3444 106.399 92.9334 105.989 93.3322 105.413C93.7311 104.837 93.9131 104.134 93.845 103.432C93.7078 101.328 92.0731 98.2322 91.297 96.6082C90.5208 94.9842 89.1174 96.3842 90.019 101.328Z" fill="#FFC300"/>
<path d="M91.6692 106.771C91.0028 106.771 90.3011 103.843 89.8268 101.371C89.1918 97.8746 89.6661 96.0506 90.4226 95.7986C90.6069 95.7346 91.0734 95.6826 91.4732 96.5226C91.5673 96.7226 91.677 96.9466 91.7946 97.1826C92.6414 98.9186 93.9193 101.535 94.0408 103.423C94.1143 104.177 93.9161 104.933 93.4832 105.549C93.0504 106.165 92.4125 106.599 91.6888 106.771H91.6692ZM90.2149 101.299C90.6539 103.607 91.3438 106.207 91.6849 106.379C92.2954 106.203 92.8261 105.814 93.1843 105.279C93.5425 104.745 93.7055 104.099 93.6449 103.455C93.5273 101.647 92.2729 99.0546 91.4379 97.3666L91.1165 96.7026C90.9362 96.3226 90.7245 96.1226 90.5402 96.1786C90.16 96.3066 89.5642 97.7306 90.2149 101.299Z" fill="#0B0A0A"/>
<path d="M125.734 87.3421C125.734 87.3421 124.166 90.2781 124.503 91.3741C124.84 92.4701 126.208 94.8901 126.761 89.1101C126.918 87.4461 126.91 86.4781 126.628 86.3101C126.345 86.1421 125.734 87.3421 125.734 87.3421Z" fill="#FFC300"/>
<path d="M125.57 93.0223C124.825 93.0223 124.339 91.5023 124.315 91.4223C123.955 90.2823 125.389 87.5543 125.562 87.2343C125.683 86.9863 126.115 86.1903 126.471 86.0863C126.514 86.0731 126.559 86.0692 126.604 86.0747C126.648 86.0802 126.691 86.095 126.73 86.1183C127.036 86.3103 127.169 86.8623 126.953 89.1183C126.632 92.5063 126.044 92.9623 125.628 93.0063L125.57 93.0223ZM126.55 86.4983C126.283 86.7677 126.065 87.0832 125.907 87.4303C125.479 88.2303 124.429 90.4743 124.688 91.3063C124.891 91.9463 125.311 92.6543 125.589 92.6103C125.738 92.6103 126.26 92.2903 126.565 89.0863C126.757 87.0863 126.636 86.6063 126.55 86.4983Z" fill="#263238"/>
<path d="M35.1462 183.521L50.2853 150.321C50.2853 150.321 54.9893 147.153 57.8195 145.897C60.6498 144.641 67.5646 137.545 67.5646 137.545L74.6794 127.945C74.6794 127.945 78.5485 125.145 79.5481 124.453C80.5477 123.761 81.7276 121.349 81.853 119.001C81.9785 116.653 79.109 115.465 79.109 115.465C79.109 115.465 79.6539 115.029 80.4928 114.233C81.1271 113.665 81.5984 112.932 81.8566 112.112C82.1148 111.292 82.1501 110.416 81.9589 109.577C81.5198 107.121 78.5093 106.377 78.5093 106.377C78.5093 106.377 80.4379 105.665 80.8182 104.189C81.1984 102.713 80.7946 100.385 79.3795 99.1729C77.9644 97.9609 75.5144 99.6489 75.5144 99.6489C75.5144 99.6489 76.2318 98.8889 76.7374 98.3289C77.2431 97.7689 79.8029 96.4609 77.8899 94.4449C75.977 92.4289 71.7512 93.9649 66.812 97.2089C61.8728 100.453 46.82 107.941 43.8134 112.373C40.8067 116.805 39.6229 123.817 37.9569 127.297C36.2909 130.777 33.2529 134.557 33.2529 134.557C33.2529 134.557 14.2683 164.729 12.9355 167.033C11.6027 169.337 9.18799 172.973 9.18799 172.973" fill="#FFD4A7"/>
<path d="M35.3227 183.608L34.9699 183.436L50.1286 150.168L50.1756 150.136C50.2226 150.108 54.9188 146.936 57.7412 145.696C60.5636 144.456 67.357 137.456 67.4236 137.384L74.5658 127.752C74.5658 127.752 78.4388 124.952 79.4345 124.256C80.4302 123.56 81.5356 121.244 81.6571 118.96C81.7747 116.776 79.0621 115.632 79.0346 115.62L78.7171 115.492L78.9837 115.276C78.9837 115.276 79.5325 114.84 80.3557 114.076C80.9644 113.529 81.4166 112.824 81.6644 112.036C81.9121 111.248 81.9462 110.406 81.763 109.6C81.3514 107.3 78.4898 106.576 78.4584 106.568L77.8234 106.412L78.4388 106.188C78.4584 106.188 80.2773 105.492 80.6222 104.136C80.9907 102.704 80.5713 100.456 79.2502 99.336C77.9292 98.216 75.6438 99.804 75.6203 99.82L74.0876 100.852L75.3734 99.492C75.3734 99.492 76.0868 98.736 76.5925 98.176C76.7287 98.0404 76.8741 97.9148 77.0276 97.8C77.549 97.4 78.3408 96.752 78.3918 95.968C78.3885 95.7013 78.3294 95.4385 78.2186 95.1971C78.1077 94.9556 77.9476 94.7411 77.7489 94.568C76.0986 92.828 72.351 93.792 66.9179 97.368C65.5067 98.296 63.2998 99.552 60.74 101.008C54.5621 104.524 46.0949 109.344 43.9742 112.48C42.12 115.224 40.9636 118.968 39.9444 122.272C39.4542 124.02 38.8505 125.733 38.1373 127.4C36.4791 130.876 33.4333 134.664 33.3902 134.704C33.2138 134.984 14.4252 164.868 13.1002 167.144C11.7753 169.42 9.37232 173.056 9.34488 173.092L9.02344 172.868C9.04696 172.832 11.4421 169.212 12.7631 166.94C14.0842 164.668 32.8845 134.768 33.0766 134.468C33.1197 134.412 36.1498 130.656 37.7806 127.228C38.485 125.578 39.0821 123.882 39.5681 122.152C40.5951 118.82 41.7594 115.044 43.6488 112.252C45.8205 109.052 53.9858 104.392 60.5479 100.652C63.0998 99.2 65.3029 97.948 66.7023 97.028C72.3942 93.292 76.2044 92.368 78.0272 94.296C78.2643 94.509 78.4541 94.7712 78.5839 95.065C78.7137 95.3589 78.7805 95.6776 78.7798 96C78.7132 96.96 77.843 97.656 77.2667 98.116C77.1289 98.2189 76.9979 98.3312 76.8747 98.452L76.4827 98.896C77.3647 98.524 78.6152 98.236 79.5129 99.008C80.9711 100.256 81.4219 102.64 81.0142 104.208C80.7359 105.296 79.6971 105.984 79.0542 106.308C79.9637 106.644 81.7982 107.552 82.1432 109.508C82.3415 110.38 82.3044 111.291 82.0359 112.143C81.7674 112.995 81.2775 113.757 80.6183 114.348C80.1048 114.832 79.7089 115.18 79.4698 115.384C80.2263 115.784 82.155 116.948 82.0452 118.984C81.9158 121.42 80.7046 123.848 79.654 124.584C78.7054 125.256 75.146 127.82 74.8128 128.056L67.7176 137.656C67.4158 137.964 60.7361 144.812 57.8941 146.056C55.252 147.224 50.9282 150.1 50.4461 150.432L35.3227 183.608Z" fill="#263238"/>
<path d="M31.3601 65.3845C32.6369 65.0082 33.9966 65.045 35.2521 65.4898C36.5076 65.9345 37.5971 66.7654 38.3708 67.868C39.1445 68.9706 39.5643 70.2908 39.5724 71.6469C39.5805 73.003 39.1765 74.3283 38.4161 75.4405L54.594 94.4045L52.5987 95.4045L36.754 77.1165C36.1997 77.4976 35.5916 77.7903 34.9508 77.9845C33.3317 78.4109 31.6135 78.1771 30.1604 77.3328C28.7073 76.4885 27.6334 75.1 27.1665 73.4616C26.6996 71.8231 26.8763 70.0636 27.6591 68.5558C28.4419 67.048 29.7694 65.9105 31.3601 65.3845Z" fill="#BFBFBF"/>
<path d="M52.5511 95.6538L52.4531 95.5378L36.7182 77.3778C36.1865 77.7246 35.6099 77.9939 35.0052 78.1778C33.3229 78.6641 31.5206 78.4524 29.9906 77.589C28.4606 76.7256 27.3268 75.2804 26.8362 73.568C26.3455 71.8556 26.5378 70.0147 27.3711 68.4463C28.2043 66.8778 29.6111 65.7088 31.2851 65.1938C32.5894 64.8041 33.9797 64.8331 35.2673 65.277C36.5549 65.7209 37.6776 66.5582 38.483 67.6753C39.2885 68.7924 39.7377 70.1352 39.7698 71.5217C39.8019 72.9082 39.4153 74.2712 38.6625 75.4258L54.9109 94.4698L52.5511 95.6538ZM36.7848 76.8538L52.6452 95.1578L54.2798 94.3378L38.1647 75.4538L38.2548 75.3258C39.0951 74.0955 39.482 72.6015 39.3471 71.1082C39.2121 69.6149 38.5641 68.2183 37.5175 67.1655C36.4709 66.1126 35.0932 65.4713 33.628 65.3549C32.1627 65.2385 30.7043 65.6546 29.5107 66.5294C28.317 67.4043 27.465 68.6817 27.1052 70.1357C26.7454 71.5898 26.901 73.1268 27.5446 74.475C28.1881 75.8232 29.2782 76.8959 30.6219 77.5032C31.9657 78.1105 33.4766 78.2135 34.8876 77.7938C35.509 77.6048 36.0985 77.3202 36.6359 76.9498L36.7848 76.8538Z" fill="#263238"/>
<path d="M72.2991 92.9225C78.3082 91.1283 81.7541 84.7031 79.9958 78.5714C78.2375 72.4397 71.9408 68.9234 65.9317 70.7176C59.9226 72.5118 56.4767 78.937 58.235 85.0688C59.9933 91.2005 66.29 94.7167 72.2991 92.9225Z" fill="#E77644"/>
<path d="M69.1171 93.5859C66.2424 93.59 63.4696 92.4995 61.3411 90.5277C59.2127 88.5559 57.8818 85.8447 57.6088 82.9245C57.3358 80.0044 58.1404 77.0854 59.8651 74.7385C61.5898 72.3917 64.1106 70.7859 66.9342 70.2353C69.7579 69.6847 72.6812 70.2289 75.1324 71.7615C77.5837 73.294 79.3863 75.7047 80.1878 78.5218C80.9892 81.3389 80.7318 84.3598 79.4658 86.9934C78.1999 89.6271 76.0165 91.6841 73.3429 92.7619C71.9977 93.3058 70.564 93.5854 69.1171 93.5859ZM69.1171 70.4459C66.7359 70.4492 64.4185 71.231 62.5045 72.6765C60.5906 74.1221 59.1809 76.1553 58.4822 78.4781C57.7835 80.8009 57.8325 83.2911 58.6221 85.5834C59.4116 87.8757 60.9002 89.8495 62.8695 91.2155C64.8387 92.5814 67.1851 93.2676 69.5645 93.1733C71.9438 93.0791 74.231 92.2094 76.0906 90.6919C77.9502 89.1743 79.2844 87.0887 79.8975 84.7408C80.5106 82.393 80.3703 79.9065 79.4973 77.6459C78.6844 75.5124 77.2553 73.6814 75.3994 72.3956C73.5436 71.1097 71.3485 70.4298 69.1053 70.4459H69.1171Z" fill="#263238"/>
<path d="M65.3501 71.6976C64.5965 72.0075 63.883 72.4106 63.2255 72.8976C63.1073 72.9786 63.0078 73.085 62.9342 73.2093C62.8605 73.3337 62.8144 73.473 62.7991 73.6174C62.7838 73.7619 62.7997 73.908 62.8455 74.0455C62.8914 74.1831 62.9663 74.3087 63.0648 74.4136L67.612 80.0976C68.8115 81.6976 69.5092 81.4256 69.2936 79.4216L68.8232 72.1016C68.825 71.9561 68.7956 71.8119 68.7371 71.6791C68.6785 71.5464 68.5923 71.4283 68.4845 71.3331C68.3766 71.2378 68.2496 71.1678 68.1125 71.1278C67.9753 71.0878 67.8313 71.0789 67.6904 71.1016C66.8895 71.2029 66.1037 71.403 65.3501 71.6976Z" fill="#FFD4A7"/>
<path d="M68.8584 81.3226C68.4664 81.3226 68.0116 80.9466 67.455 80.2026L62.9117 74.5266C62.7976 74.4007 62.7113 74.2513 62.6585 74.0885C62.6058 73.9256 62.5879 73.7531 62.606 73.5826C62.6238 73.4088 62.6787 73.2411 62.7667 73.0911C62.8547 72.9412 62.9738 72.8127 63.1156 72.7146C64.4624 71.7407 66.0221 71.1173 67.6588 70.8986C67.828 70.8712 68.0009 70.8819 68.1656 70.9298C68.3303 70.9777 68.4828 71.0617 68.6123 71.176C68.7418 71.2903 68.8454 71.4321 68.9156 71.5914C68.9859 71.7508 69.0212 71.9239 69.0191 72.0986L69.4895 79.4026C69.6032 80.4866 69.462 81.1266 69.0583 81.2906C68.9945 81.3154 68.9265 81.3263 68.8584 81.3226ZM67.8431 71.2746C67.8027 71.2707 67.762 71.2707 67.7216 71.2746C66.9365 71.3808 66.1666 71.5822 65.4284 71.8746C64.694 72.1759 63.9967 72.5639 63.3508 73.0306C63.2559 73.096 63.1761 73.1818 63.1172 73.282C63.0583 73.3822 63.0216 73.4944 63.0097 73.6106C62.9983 73.7253 63.0113 73.8412 63.0478 73.9502C63.0844 74.0593 63.1436 74.1591 63.2214 74.2426L67.7764 79.9386C68.384 80.7386 68.776 80.9586 68.9289 80.8946C69.0818 80.8306 69.219 80.4066 69.1132 79.4106L68.6271 72.0986C68.6302 71.9916 68.6123 71.8849 68.5743 71.7851C68.5363 71.6853 68.4791 71.5942 68.4059 71.5174C68.3328 71.4405 68.2453 71.3794 68.1486 71.3377C68.052 71.296 67.9481 71.2746 67.8431 71.2746Z" fill="#263238"/>
<path d="M58.9724 78.6008C58.7356 79.3897 58.5935 80.2049 58.549 81.0288C58.5377 81.1737 58.5574 81.3194 58.6069 81.4558C58.6563 81.5922 58.7344 81.7159 58.8355 81.8183C58.9366 81.9207 59.0584 81.9994 59.1924 82.0489C59.3264 82.0984 59.4694 82.1174 59.6113 82.1048L66.8006 82.0208C68.7802 82.0648 68.9997 81.3368 67.3298 80.2568L61.4498 76.0688C61.3395 75.9771 61.2109 75.911 61.073 75.8752C60.935 75.8393 60.7911 75.8346 60.6512 75.8612C60.5114 75.8879 60.3788 75.9453 60.2629 76.0295C60.1469 76.1137 60.0503 76.2226 59.9798 76.3488C59.5541 77.0541 59.2157 77.8105 58.9724 78.6008Z" fill="#FFD4A7"/>
<path d="M59.5133 82.3092C59.3506 82.3097 59.1896 82.2758 59.0404 82.2096C58.8912 82.1433 58.7571 82.0463 58.6466 81.9244C58.5361 81.8026 58.4515 81.6588 58.3983 81.5019C58.345 81.3451 58.3243 81.1786 58.3373 81.0132C58.3848 80.1747 58.5295 79.3449 58.7685 78.5412C59.0113 77.7387 59.3482 76.9691 59.772 76.2492C59.8565 76.097 59.9725 75.9656 60.112 75.864C60.2515 75.7624 60.411 75.6932 60.5795 75.6612C60.7473 75.6299 60.9198 75.6362 61.0849 75.6797C61.2501 75.7232 61.404 75.8029 61.536 75.9132L67.416 80.0932C68.3215 80.6772 68.7213 81.1932 68.592 81.6172C68.4626 82.0412 67.8511 82.2452 66.7653 82.2212L59.5799 82.3052L59.5133 82.3092ZM60.8108 76.0412C60.7638 76.0372 60.7166 76.0372 60.6697 76.0412C60.5562 76.0631 60.4489 76.1103 60.3553 76.1794C60.2618 76.2486 60.1844 76.3379 60.1287 76.4412C59.7199 77.1318 59.3948 77.8705 59.1605 78.6412V78.6612C58.9355 79.4339 58.8038 80.2318 58.7685 81.0372C58.7596 81.1533 58.7757 81.2701 58.8156 81.3792C58.8556 81.4884 58.9184 81.5874 58.9997 81.6692C59.0802 81.7502 59.1768 81.8125 59.283 81.8518C59.3892 81.8912 59.5026 81.9067 59.6152 81.8972L66.8201 81.8132C67.8158 81.8372 68.2235 81.6532 68.2705 81.4932C68.3176 81.3332 68.0785 80.9532 67.2513 80.4172L61.34 76.2252C61.1917 76.0995 61.0034 76.034 60.8108 76.0412Z" fill="#263238"/>
<path d="M60.2774 87.9898C60.7345 88.6714 61.2716 89.2933 61.8768 89.8418C61.9804 89.9417 62.1042 90.0173 62.2394 90.0632C62.3747 90.109 62.5182 90.1241 62.6598 90.1073C62.8014 90.0906 62.9377 90.0423 63.0591 89.9661C63.1805 89.8898 63.284 89.7873 63.3624 89.6658L67.7803 83.8778C69.0504 82.3218 68.627 81.6938 66.7611 82.3538L59.8697 84.4498C59.7306 84.4807 59.5998 84.5422 59.4863 84.6299C59.3728 84.7176 59.2794 84.8295 59.2127 84.9578C59.1459 85.0861 59.1073 85.2277 59.0996 85.3728C59.0919 85.5179 59.1152 85.6629 59.168 85.7978C59.4505 86.5712 59.8229 87.3071 60.2774 87.9898Z" fill="#FFD4A7"/>
<path d="M62.5473 90.315C62.2489 90.315 61.9616 90.1991 61.7437 89.991C60.5113 88.8701 59.5688 87.4564 58.9997 85.875C58.9359 85.7129 58.9076 85.5386 58.9167 85.3642C58.9258 85.1898 58.9721 85.0195 59.0523 84.8652C59.1326 84.711 59.2449 84.5764 59.3814 84.471C59.5178 84.3656 59.6752 84.2919 59.8425 84.255L66.7182 82.163C67.7296 81.807 68.3724 81.807 68.6194 82.163C68.8664 82.519 68.6194 83.147 67.9452 83.999L63.5038 89.791C63.4094 89.9325 63.2864 90.0518 63.143 90.1408C62.9997 90.2298 62.8393 90.2865 62.6728 90.307L62.5473 90.315ZM67.9452 82.315C67.5608 82.3381 67.1824 82.4232 66.824 82.567L59.9288 84.663C59.8153 84.6849 59.7079 84.7321 59.6144 84.8013C59.5209 84.8704 59.4435 84.9598 59.3878 85.063C59.3338 85.1662 59.3027 85.2802 59.2966 85.397C59.2905 85.5138 59.3096 85.6305 59.3525 85.739C59.6282 86.4951 59.9914 87.2148 60.4344 87.883C60.8836 88.5493 61.4101 89.1578 62.0024 89.695C62.0863 89.7746 62.1863 89.8345 62.2954 89.8704C62.4044 89.9064 62.5199 89.9175 62.6336 89.903C62.7457 89.8887 62.8535 89.8499 62.9496 89.7891C63.0457 89.7284 63.1278 89.6471 63.1902 89.551L67.6198 83.751C68.2548 82.971 68.3724 82.551 68.2784 82.395C68.2431 82.339 68.1333 82.295 67.9452 82.295V82.315Z" fill="#263238"/>
<path d="M68.2904 92.8024C69.097 92.8634 69.908 92.8231 70.7051 92.6824C70.8454 92.6605 70.9793 92.6077 71.0977 92.5277C71.216 92.4477 71.3159 92.3425 71.3905 92.2192C71.4651 92.096 71.5125 91.9577 71.5295 91.8139C71.5465 91.6701 71.5327 91.5242 71.4891 91.3864L69.8074 84.2544C69.4154 82.2544 68.6628 82.2144 68.0042 84.1184L65.3151 90.9184C65.2521 91.0487 65.2176 91.1914 65.2142 91.3366C65.2107 91.4819 65.2383 91.6261 65.295 91.7594C65.3517 91.8926 65.4362 92.0116 65.5425 92.1082C65.6489 92.2047 65.7746 92.2765 65.9109 92.3184C66.6818 92.5782 67.4808 92.7407 68.2904 92.8024Z" fill="#FFD4A7"/>
<path d="M68.8858 93.0303C68.6816 93.0339 68.4773 93.0245 68.2742 93.0023C67.4512 92.9336 66.6392 92.7644 65.8556 92.4983C65.6922 92.4478 65.5415 92.3616 65.414 92.2456C65.2866 92.1297 65.1854 91.9868 65.1175 91.827C65.0496 91.6671 65.0166 91.494 65.0209 91.3198C65.0251 91.1457 65.0665 90.9745 65.1422 90.8183L67.8274 84.0183C68.1841 82.9863 68.5839 82.4743 69.0034 82.5063C69.4228 82.5383 69.7678 83.1023 69.9873 84.1903L71.665 91.3143C71.7149 91.4796 71.7291 91.654 71.7067 91.8254C71.6844 91.9969 71.626 92.1614 71.5355 92.3076C71.445 92.4539 71.3246 92.5785 71.1826 92.6728C71.0405 92.7672 70.8802 92.8291 70.7125 92.8543C70.1084 92.957 69.498 93.0158 68.8858 93.0303ZM68.9877 82.9303C68.8191 82.9303 68.5173 83.2543 68.2037 84.1823L65.5106 90.9823C65.4487 91.0897 65.4122 91.2103 65.404 91.3346C65.3959 91.4589 65.4163 91.5835 65.4636 91.6983C65.5085 91.8059 65.5761 91.9021 65.6614 91.9802C65.7467 92.0583 65.8478 92.1164 65.9575 92.1503C66.7101 92.4006 67.4891 92.559 68.2782 92.6223H68.2978C69.0838 92.6738 69.8731 92.6322 70.6498 92.4983C70.7618 92.4811 70.8689 92.4394 70.9636 92.3759C71.0583 92.3124 71.1384 92.2288 71.1984 92.1307C71.2584 92.0326 71.2968 91.9224 71.311 91.8077C71.3253 91.693 71.315 91.5765 71.2809 91.4663L69.5992 84.3143C69.3954 83.3223 69.1327 82.9543 68.9681 82.9463L68.9877 82.9303Z" fill="#263238"/>
<path d="M76.9687 89.4084C77.5178 88.8025 77.993 88.1309 78.3838 87.4084C78.4557 87.2827 78.4998 87.1425 78.5131 86.9976C78.5264 86.8527 78.5085 86.7066 78.4607 86.5695C78.4129 86.4324 78.3364 86.3075 78.2364 86.2037C78.1365 86.0999 78.0155 86.0196 77.882 85.9684L71.3709 82.8604C69.603 81.9444 69.0973 82.5044 70.144 84.2164L73.672 90.6164C73.7318 90.7483 73.8192 90.8653 73.928 90.9591C74.0368 91.0529 74.1644 91.1213 74.3019 91.1594C74.4394 91.1975 74.5834 91.2045 74.7237 91.1798C74.8641 91.1551 74.9975 91.0993 75.1145 91.0164C75.7945 90.5595 76.4172 90.0195 76.9687 89.4084Z" fill="#FFD4A7"/>
<path d="M74.5658 91.383C74.4611 91.3824 74.357 91.3676 74.2561 91.339C74.0915 91.2934 73.9386 91.2118 73.8079 91.0999C73.6773 90.9881 73.5721 90.8485 73.4995 90.691L69.9715 84.315C69.4031 83.387 69.262 82.751 69.556 82.423C69.85 82.095 70.489 82.183 71.4611 82.687L77.9644 85.791C78.1216 85.8518 78.2639 85.947 78.381 86.0701C78.4982 86.1931 78.5875 86.3409 78.6426 86.503C78.7004 86.6675 78.7223 86.843 78.7068 87.0171C78.6912 87.1913 78.6385 87.3598 78.5524 87.511C78.1559 88.2469 77.6728 88.9306 77.1138 89.547C76.5519 90.1555 75.9201 90.6928 75.2322 91.147C75.039 91.2934 74.8064 91.3757 74.5658 91.383ZM70.0617 82.627C70.0234 82.6223 69.9845 82.6255 69.9475 82.6365C69.9104 82.6475 69.876 82.666 69.8461 82.691C69.7324 82.815 69.7873 83.263 70.3087 84.111L73.8367 90.511C73.8837 90.6195 73.9539 90.7161 74.042 90.7936C74.1301 90.8711 74.2341 90.9276 74.3463 90.959C74.4565 90.9891 74.5718 90.9944 74.6842 90.9743C74.7966 90.9543 74.9033 90.9095 74.997 90.843C75.6671 90.4054 76.283 89.887 76.8315 89.299C77.3673 88.7049 77.8307 88.0467 78.2114 87.339C78.2691 87.239 78.3048 87.1275 78.3161 87.012C78.3273 86.8966 78.3138 86.78 78.2765 86.6704C78.2393 86.5608 78.1791 86.4608 78.1001 86.3774C78.0212 86.2939 77.9254 86.2289 77.8194 86.187L71.2926 83.075C70.9188 82.8367 70.4989 82.6839 70.0617 82.627Z" fill="#263238"/>
<path d="M79.7835 80.3738C79.6623 79.5577 79.4437 78.7598 79.1328 77.9978C79.0815 77.862 79.0018 77.7393 78.8993 77.6382C78.7967 77.5371 78.6738 77.4601 78.539 77.4125C78.4043 77.3649 78.261 77.3478 78.1191 77.3626C77.9773 77.3773 77.8403 77.4234 77.7177 77.4978L71.2771 80.7578C69.4739 81.5938 69.5837 82.3578 71.5476 82.5818L78.6467 83.7418C78.7851 83.7752 78.9289 83.7775 79.0682 83.7485C79.2075 83.7196 79.339 83.66 79.4535 83.574C79.568 83.488 79.6628 83.3776 79.7313 83.2505C79.7998 83.1233 79.8403 82.9825 79.8502 82.8378C79.9276 82.0168 79.9052 81.1892 79.7835 80.3738Z" fill="#FFD4A7"/>
<path d="M78.878 83.9698C78.7844 83.9693 78.6911 83.9585 78.5997 83.9378L71.5162 82.7778C70.45 82.6538 69.8738 82.3778 69.8071 81.9298C69.7405 81.4818 70.1991 81.0338 71.1948 80.5738L77.6158 77.3178C77.7611 77.2322 77.9227 77.1794 78.0897 77.1629C78.2567 77.1463 78.4252 77.1664 78.584 77.2218C78.746 77.279 78.8938 77.3716 79.0171 77.4932C79.1403 77.6149 79.236 77.7625 79.2974 77.9258C79.6125 78.6959 79.8362 79.5016 79.9638 80.3258C80.0829 81.1575 80.1053 82.0007 80.0305 82.8378C80.0096 83.1413 79.8766 83.4253 79.6582 83.6325C79.4399 83.8397 79.1526 83.9545 78.8545 83.9538L78.878 83.9698ZM78.2194 77.5698C78.0812 77.5701 77.9457 77.6088 77.8274 77.6818L71.3712 80.9458C70.4657 81.3698 70.1756 81.7138 70.1952 81.8778C70.2148 82.0418 70.5872 82.2778 71.575 82.3938L78.682 83.5578C78.7945 83.5869 78.9119 83.5902 79.0258 83.5673C79.1397 83.5445 79.2472 83.4962 79.3406 83.4258C79.4321 83.3571 79.5079 83.269 79.5627 83.1674C79.6175 83.0659 79.6501 82.9534 79.6581 82.8378C79.7323 82.0382 79.7112 81.2323 79.5954 80.4378C79.4712 79.6401 79.2554 78.86 78.9525 78.1138C78.9111 78.0049 78.8468 77.9066 78.7642 77.8257C78.6816 77.7449 78.5826 77.6834 78.4742 77.6458C78.3956 77.6001 78.3091 77.5702 78.2194 77.5578V77.5698Z" fill="#263238"/>
<path d="M74.6129 72.497C73.9109 72.0874 73.1634 71.7651 72.3863 71.537C72.2517 71.4931 72.1094 71.4796 71.9692 71.4973C71.829 71.515 71.6942 71.5636 71.5742 71.6397C71.4542 71.7157 71.3518 71.8175 71.2741 71.9379C71.1963 72.0583 71.1452 72.1945 71.1241 72.337L69.6031 79.509C69.1209 81.473 69.7677 81.853 71.1711 80.429L76.4905 75.493C76.6026 75.4032 76.6942 75.2896 76.759 75.16C76.8238 75.0305 76.8603 74.8882 76.8659 74.7429C76.8715 74.5976 76.8461 74.4527 76.7914 74.3184C76.7368 74.1841 76.6542 74.0635 76.5493 73.965C75.9644 73.3975 75.3142 72.9046 74.6129 72.497Z" fill="#FFD4A7"/>
<path d="M69.8618 81.4942C69.7645 81.4956 69.6685 81.4708 69.5835 81.4222C69.1915 81.2022 69.1484 80.5462 69.4111 79.4702L70.9516 72.3062C70.9743 72.1363 71.0335 71.9736 71.125 71.8298C71.2165 71.686 71.338 71.5645 71.4808 71.4742C71.6252 71.3797 71.788 71.3185 71.958 71.295C72.128 71.2715 72.3009 71.2863 72.4647 71.3382C74.0528 71.802 75.5052 72.6563 76.6944 73.8262C76.8207 73.944 76.9202 74.0885 76.9861 74.2496C77.052 74.4107 77.0826 74.5845 77.0759 74.7589C77.0692 74.9333 77.0253 75.1042 76.9472 75.2595C76.8691 75.4148 76.7588 75.5509 76.6238 75.6582L71.3201 80.5862C70.7086 81.1902 70.2225 81.4942 69.8618 81.4942ZM72.0923 71.6982C71.9425 71.6974 71.7956 71.7404 71.669 71.8222C71.5737 71.8846 71.4929 71.9674 71.432 72.0647C71.3711 72.1621 71.3316 72.2718 71.3162 72.3862L69.7952 79.5862C69.5522 80.5702 69.6345 81.0142 69.7952 81.0982C69.9559 81.1822 70.3518 81.0262 71.0457 80.3222L76.3691 75.3782C76.4616 75.3076 76.5376 75.2171 76.5919 75.1131C76.6461 75.009 76.6771 74.894 76.6827 74.7763C76.6884 74.6586 76.6684 74.5411 76.6244 74.4322C76.5803 74.3232 76.5132 74.2256 76.4278 74.1462C75.8573 73.5867 75.2229 73.0992 74.5384 72.6942C73.8511 72.2945 73.1194 71.9803 72.3589 71.7582C72.274 71.723 72.1839 71.7028 72.0923 71.6982Z" fill="#263238"/>
<path d="M62.9508 135.835L60.2068 133.035C59.1034 131.905 58.0889 130.688 57.1727 129.395C56.718 128.751 56.2358 128.115 55.7262 127.443C53.4879 124.499 50.7165 120.859 48.435 113.699C44.7228 102.099 45.4401 87.9352 45.4637 87.4912C45.4637 86.2312 56.3377 83.8032 57.5882 83.5272C60.8536 82.8112 63.9465 82.2472 66.3024 81.9272C70.1205 81.4352 70.2224 81.8472 70.2537 82.0672C70.3125 82.1992 77.5018 99.1472 77.9291 106.411C78.6778 119.155 74.5697 128.515 74.5265 128.607L72.6293 133.891L62.9508 135.835ZM45.8635 87.5032V87.5232C45.8635 87.6632 45.0795 101.923 48.8153 113.591C51.0771 120.667 53.7113 124.131 56.032 127.191C56.5455 127.867 57.0276 128.503 57.4863 129.151C58.3902 130.43 59.3916 131.633 60.4812 132.751L63.088 135.419L72.3431 133.587L74.1659 128.499C74.2129 128.395 78.2819 119.119 77.5371 106.479C77.1137 99.2792 69.9558 82.3992 69.8813 82.2312C69.4266 81.9232 64.9813 82.3432 57.6705 83.9512C50.3597 85.5592 46.1497 87.0272 45.8635 87.5032Z" fill="#263238"/>
<path d="M71.0654 86.9272C73.0842 92.0232 76.671 101.659 76.9454 106.611C77.6627 118.767 73.7467 127.535 73.7467 127.535L71.6455 133.763L63.8369 135.475L60.4774 131.627C59.4375 130.566 58.4832 129.421 57.6237 128.203C55.2717 124.847 52.0181 121.659 49.3917 113.423C47.7531 108.303 47.0397 102.695 46.7222 98.1112L71.0654 86.9272Z" fill="#E77644"/>
<path d="M63.7822 135.698L60.3443 131.762C59.3016 130.695 58.3434 129.544 57.4788 128.322C57.0476 127.714 56.5929 127.122 56.1068 126.478C54.0018 123.706 51.3754 120.254 49.2115 113.49C47.8278 109.158 46.9262 103.99 46.5342 98.1301V97.9901L46.6596 97.9341L71.1753 86.6621L71.2537 86.8541C73.3352 92.1061 76.875 101.654 77.1651 106.602C77.8785 118.67 73.9859 127.534 73.9467 127.622L71.8182 133.938L63.7822 135.698ZM46.9262 98.2381C47.3182 104.01 48.2119 109.098 49.5761 113.366C51.7203 120.062 54.2135 123.342 56.4087 126.234C56.8947 126.87 57.3534 127.474 57.7885 128.09C58.6435 129.298 59.5912 130.435 60.6227 131.49L63.9155 135.258L71.5007 133.594L73.5665 127.474C73.6135 127.37 77.463 118.59 76.7613 106.626C76.4751 101.794 73.0334 92.4621 70.9519 87.1981L46.9262 98.2381Z" fill="#263238"/>
<path d="M65.0089 95.2065C66.0908 99.8105 66.5298 103.651 65.9967 103.783C65.4636 103.915 64.1465 100.287 63.0685 95.6825C61.9905 91.0785 61.5436 87.2385 62.0806 87.1065C62.6177 86.9745 63.9269 90.6025 65.0089 95.2065Z" fill="white"/>
<path d="M57.0474 123.818C59.2973 127.302 61.873 130.554 64.7384 133.53L57.0474 123.818Z" fill="#E77644"/>
<path d="M64.6013 133.675C61.7265 130.687 59.1417 127.423 56.8828 123.927L57.2317 123.699C59.474 127.171 62.0405 130.413 64.8953 133.379L64.6013 133.675Z" fill="#263238"/>
<path d="M47.5337 88.4346C47.5337 88.4346 49.1017 105.015 52.5983 114.955C53.4555 117.346 54.5372 119.647 55.8284 121.827" fill="#E77644"/>
<path d="M55.6635 121.929C54.3671 119.738 53.2802 117.425 52.4177 115.021C48.972 105.169 47.3609 88.6211 47.3452 88.4531L47.7372 88.4131C47.7372 88.5771 49.364 105.081 52.7901 114.885C53.643 117.265 54.7195 119.556 56.0045 121.725L55.6635 121.929Z" fill="#263238"/>
<path d="M60.2891 159.401C62.2491 158.513 65.1107 156.401 66.1338 154.269C67.4534 151.306 67.7505 147.975 66.9766 144.817C66.0632 141.025 64.1777 139.133 64.1777 139.133L62.6097 135.509L67.8155 134.773L72.688 133.485L72.594 137.445C72.594 137.445 71.5591 139.925 72.1314 143.789C72.5981 147.006 74.1179 149.966 76.4434 152.189C78.1878 153.761 81.6178 154.589 83.766 154.657C85.9141 154.725 86.412 154.877 86.412 154.877L86.4747 155.633L72.492 158.565L58.1448 161.365L57.9214 160.641C57.9214 160.641 58.3291 160.289 60.2891 159.401Z" fill="white"/>
<path d="M58.0157 161.586L57.7021 160.566L57.8041 160.478C57.8041 160.478 58.2509 160.106 60.2149 159.218C62.2807 158.282 64.9934 156.202 65.9616 154.182C67.2722 151.264 67.564 147.976 66.7887 144.866C65.9028 141.178 64.0447 139.294 64.0447 139.266L64.0016 139.202L62.3277 135.35L67.7922 134.578L72.8882 133.226L72.7706 137.522C72.7706 137.546 71.7632 140.006 72.3238 143.758C72.7709 146.934 74.2689 149.858 76.5691 152.046C78.2194 153.538 81.5083 154.406 83.7662 154.466C85.9144 154.526 86.4436 154.686 86.4671 154.694L86.5925 154.734L86.6827 155.802L72.5198 158.77L58.0157 161.586ZM58.1608 160.714L58.2862 161.114L72.4649 158.366L86.275 155.47L86.2358 155.038C85.418 154.916 84.5927 154.854 83.7662 154.854C81.4417 154.79 78.0391 153.886 76.3182 152.334C73.9491 150.084 72.4054 147.074 71.9435 143.806C71.3986 140.138 72.2728 137.726 72.4061 137.406L72.4923 133.75L67.8706 134.974L62.8961 135.678L64.3426 139.022C64.5896 139.282 66.3026 141.174 67.169 144.774C67.9635 147.98 67.6606 151.367 66.3105 154.374C65.303 156.478 62.4963 158.634 60.3717 159.598C59.6087 159.916 58.8686 160.289 58.1569 160.714H58.1608Z" fill="#263238"/>
<path d="M63.2629 137.717L73.1369 135.597C73.7026 135.476 74.0647 134.91 73.9457 134.332L73.9408 134.309C73.8218 133.732 73.2668 133.362 72.7011 133.484L62.8272 135.603C62.2615 135.725 61.8994 136.291 62.0184 136.868L62.0233 136.892C62.1423 137.469 62.6973 137.838 63.2629 137.717Z" fill="#828282"/>
<path d="M63.0491 137.939C62.7393 137.938 62.4407 137.821 62.2107 137.609C61.9808 137.397 61.8358 137.106 61.8036 136.792C61.7715 136.477 61.8545 136.162 62.0367 135.906C62.2189 135.651 62.4873 135.473 62.7903 135.407L72.6648 133.287C72.9863 133.227 73.318 133.297 73.5894 133.483C73.8607 133.669 74.0503 133.956 74.1177 134.282C74.1852 134.608 74.1251 134.949 73.9504 135.23C73.7757 135.512 73.5001 135.713 73.1823 135.791L63.3039 137.911C63.2203 137.93 63.1348 137.94 63.0491 137.939ZM72.9118 133.659C72.8538 133.659 72.796 133.666 72.7393 133.679L62.8609 135.799C62.6463 135.856 62.4615 135.995 62.3449 136.188C62.2283 136.38 62.1889 136.611 62.2348 136.833C62.2807 137.054 62.4085 137.249 62.5915 137.377C62.7745 137.505 62.9988 137.555 63.2176 137.519L73.0921 135.399C73.3123 135.352 73.5052 135.218 73.6286 135.026C73.752 134.834 73.7959 134.6 73.7507 134.375C73.7128 134.175 73.6087 133.995 73.4559 133.865C73.3031 133.734 73.111 133.662 72.9118 133.659Z" fill="#263238"/>
<path d="M64.7169 140.147L72.8762 138.396C73.4418 138.274 73.8039 137.708 73.6849 137.131L73.6801 137.107C73.5611 136.53 73.0061 136.16 72.4404 136.282L64.2811 138.033C63.7155 138.155 63.3534 138.721 63.4724 139.298L63.4772 139.322C63.5962 139.899 64.1513 140.269 64.7169 140.147Z" fill="#828282"/>
<path d="M64.5034 140.365C64.2786 140.362 64.0585 140.298 63.8661 140.179C63.6737 140.06 63.5161 139.891 63.4097 139.689C63.3032 139.487 63.2518 139.259 63.2608 139.03C63.2697 138.801 63.3388 138.578 63.4607 138.385C63.549 138.245 63.6638 138.124 63.7984 138.03C63.9331 137.936 64.0848 137.87 64.2447 137.837L72.4062 136.097C72.7284 136.028 73.0642 136.093 73.3398 136.277C73.6154 136.461 73.8083 136.748 73.8762 137.077C73.9118 137.243 73.915 137.415 73.8854 137.583C73.8558 137.75 73.794 137.91 73.7037 138.053C73.615 138.193 73.5 138.313 73.3654 138.407C73.2309 138.501 73.0794 138.567 72.9197 138.601L64.7582 140.353C64.6738 140.365 64.5886 140.369 64.5034 140.365ZM72.661 136.457C72.6016 136.456 72.5423 136.463 72.4846 136.477L64.3231 138.229C64.2143 138.251 64.1111 138.296 64.0195 138.36C63.9279 138.424 63.8499 138.506 63.79 138.601C63.7282 138.696 63.6857 138.803 63.6648 138.915C63.6439 139.027 63.6452 139.142 63.6685 139.253C63.6891 139.367 63.7318 139.476 63.794 139.573C63.8563 139.67 63.9368 139.753 64.031 139.818C64.1252 139.882 64.2311 139.927 64.3425 139.95C64.4539 139.973 64.5686 139.972 64.6798 139.949L72.8413 138.197C73.061 138.148 73.253 138.013 73.3755 137.82C73.4981 137.628 73.5413 137.394 73.4959 137.169C73.4588 136.97 73.3553 136.791 73.2031 136.661C73.0509 136.531 72.8593 136.459 72.661 136.457Z" fill="#263238"/>
<path d="M48.482 114.232C47.5882 112.052 47.5608 107.832 47.5765 107.432C47.5922 107.032 48.3918 106.332 49.6462 104.188C50.9006 102.044 51.0065 98.6278 50.2225 96.7318C49.0465 93.9318 48.1449 93.5318 47.549 94.2478C46.9532 94.9638 45.7537 96.8238 43.9583 99.4038C42.163 101.984 41.4103 101.896 40.199 105.116C38.9878 108.336 39.8972 109.152 37.6863 119.272C36.8396 123.148 35.6558 130.472 35.6558 130.472L35.8596 132.588" fill="#FFD4A7"/>
<path d="M35.6716 132.582L35.46 130.438V130.414C35.46 130.338 36.636 123.05 37.4905 119.214C38.2532 115.92 38.8097 112.58 39.1565 109.214C39.3329 107.562 39.4388 106.566 40.0111 105.042C40.481 103.618 41.2488 102.316 42.2612 101.226C42.81 100.61 43.3231 99.9626 43.7978 99.286C44.4838 98.298 45.0796 97.4219 45.5932 96.6699C46.4242 95.4699 47.024 94.57 47.3964 94.118C47.4897 93.9826 47.6176 93.8759 47.7662 93.8096C47.9148 93.7433 48.0784 93.7199 48.2392 93.742C48.9212 93.846 49.6308 94.798 50.3991 96.65C51.1674 98.502 51.1243 102.042 49.8111 104.29C49.3416 105.092 48.8286 105.866 48.2744 106.61C48.0583 106.853 47.8858 107.134 47.7648 107.438C47.7648 107.982 47.808 112.09 48.6586 114.17L48.298 114.326C47.3336 111.966 47.3728 107.466 47.3768 107.422C47.3768 107.158 47.5884 106.878 47.9608 106.37C48.5058 105.637 49.0109 104.875 49.474 104.086C50.7244 101.942 50.7754 98.59 50.0345 96.806C49.1172 94.59 48.4665 94.182 48.1804 94.134C48.0862 94.1256 47.9916 94.1435 47.9067 94.1858C47.8218 94.2281 47.7497 94.2931 47.6982 94.374C47.3376 94.814 46.7417 95.686 45.9146 96.898C45.4011 97.65 44.8013 98.5299 44.1153 99.5139C43.6316 100.205 43.1081 100.866 42.5473 101.494C41.5645 102.546 40.8216 103.807 40.3717 105.186C39.8962 106.493 39.616 107.866 39.5407 109.258C39.1914 112.637 38.6363 115.99 37.8786 119.298C37.0672 123.01 35.9186 129.966 35.852 130.45L36.0558 132.542L35.6716 132.582Z" fill="#263238"/>
<path d="M54.2999 125.499C54.2999 125.499 56.1776 132.859 50.7954 136.699L54.2999 125.499Z" fill="#FFD4A7"/>
<path d="M50.9085 136.874L50.6851 136.546C55.8947 132.814 54.1307 125.622 54.1111 125.55L54.5031 125.45C54.511 125.522 56.3377 132.986 50.9085 136.874Z" fill="#263238"/>
<path d="M79.4349 123.082C79.4349 123.082 77.4279 122.142 76.6909 121.182L79.4349 123.082Z" fill="#FFD4A7"/>
<path d="M79.3522 123.262C79.2698 123.222 77.2942 122.294 76.5376 121.306L76.8434 121.058C77.545 121.97 79.4972 122.89 79.5168 122.898L79.3522 123.262Z" fill="#263238"/>
<path d="M77.6168 114.709L77.4902 115.087L79.0447 115.629L79.1713 115.25L77.6168 114.709Z" fill="#263238"/>
<path d="M76.1851 123.458C76.3723 123.782 76.6252 124.061 76.9267 124.277C77.2282 124.493 77.5714 124.641 77.9334 124.71" fill="#FFD4A7"/>
<path d="M77.8977 124.898C77.5058 124.826 77.1341 124.667 76.8085 124.432C76.4829 124.198 76.2112 123.895 76.0122 123.542L76.3572 123.358C76.5334 123.652 76.7677 123.905 77.0451 124.102C77.3225 124.298 77.6369 124.433 77.9683 124.498L77.8977 124.898Z" fill="#263238"/>
<path d="M47.5491 94.229C47.5491 94.229 49.1603 96.009 48.7565 97.585C48.3527 99.161 46.6711 101.269 46.1223 100.849C45.7632 100.628 45.4738 100.307 45.2883 99.9234C45.1028 99.5399 45.029 99.1101 45.0756 98.685" fill="#FFD4A7"/>
<path d="M46.2908 101.106C46.1876 101.107 46.087 101.073 46.0046 101.01C45.6201 100.769 45.3104 100.421 45.1114 100.008C44.9123 99.5943 44.8319 99.1319 44.8796 98.6739L45.2716 98.7019C45.2266 99.0955 45.2946 99.4939 45.4671 99.8489C45.6397 100.204 45.9095 100.5 46.2437 100.702C46.279 100.73 46.3574 100.702 46.3966 100.702C47.0277 100.474 48.239 98.8499 48.5722 97.5539C48.9446 96.0979 47.4276 94.3979 47.3962 94.3819L47.6824 94.1099C47.7529 94.1859 49.3641 95.9899 48.9368 97.6539C48.5918 98.9979 47.3217 100.79 46.5103 101.078C46.4391 101.099 46.365 101.109 46.2908 101.106Z" fill="#263238"/>
</svg>
