<svg width="32" height="32" viewBox="0 0 32 32" fill="none" xmlns="http://www.w3.org/2000/svg">
<path d="M29.8107 19.4311C27.913 27.0455 20.2009 31.6951 12.5725 29.7962C4.95805 27.8926 0.315904 20.1805 2.2137 12.5661C4.11149 4.95166 11.8189 0.302043 19.4287 2.20099C27.0617 4.07666 31.7039 11.8121 29.8107 19.4311Z" fill="#F6F8FC"/>
<path fill-rule="evenodd" clip-rule="evenodd" d="M10.7805 10.0266H21.43C21.684 10.0266 21.9188 10.1583 22.0455 10.3719L25.1482 15.6019C25.309 15.8732 25.2613 16.2155 25.0318 16.4354L16.4917 24.6198C16.2151 24.8849 15.77 24.8849 15.4934 24.6198L6.96495 16.4465C6.73012 16.2214 6.68614 15.8691 6.85883 15.5962L10.1753 10.3551C10.3044 10.151 10.5336 10.0266 10.7805 10.0266ZM20.0549 12.3616V13.8291H17.0213V14.8465C19.1519 14.9553 20.7504 15.4018 20.7623 15.9371L20.7622 17.0529C20.7503 17.5882 19.1519 18.0347 17.0213 18.1435V20.6404H15.007V18.1435C12.8764 18.0347 11.2779 17.5882 11.266 17.0529L11.2661 15.9371C11.278 15.4018 12.8764 14.9553 15.007 14.8465V13.8291H11.9734V12.3616H20.0549ZM16.0142 17.3769C18.2879 17.3769 20.1883 16.9993 20.6534 16.495C20.259 16.0674 18.8324 15.7308 17.0213 15.6384V16.7037C16.6967 16.7202 16.3597 16.729 16.0142 16.729C15.6686 16.729 15.3316 16.7202 15.007 16.7037V15.6384C13.1959 15.7308 11.7693 16.0674 11.3749 16.495C11.84 16.9993 13.7404 17.3769 16.0142 17.3769Z" fill="#009393"/>
</svg>
