<svg width="72" height="72" viewBox="0 0 72 72" fill="none" xmlns="http://www.w3.org/2000/svg">
<rect width="72" height="72" rx="36" fill="white"/>
<path d="M36.2682 34.1163C36.1016 34.0997 35.9016 34.0997 35.7182 34.1163C31.7516 33.983 28.6016 30.733 28.6016 26.733C28.6016 22.6497 31.9016 19.333 36.0016 19.333C40.0849 19.333 43.4016 22.6497 43.4016 26.733C43.3849 30.733 40.2349 33.983 36.2682 34.1163Z" stroke="#0B0A0A" stroke-width="1.5" stroke-linecap="round" stroke-linejoin="round"/>
<path d="M27.9352 40.267C23.9018 42.967 23.9018 47.367 27.9352 50.0503C32.5185 53.117 40.0352 53.117 44.6185 50.0503C48.6518 47.3503 48.6518 42.9503 44.6185 40.267C40.0518 37.217 32.5352 37.217 27.9352 40.267Z" stroke="#0B0A0A" stroke-width="1.5" stroke-linecap="round" stroke-linejoin="round"/>
<rect x="40" y="40" width="32" height="32" rx="16" fill="#E77644"/>
<path d="M52.5081 62.6663H59.4947C61.3347 62.6663 62.0681 61.5397 62.1547 60.1663L62.5014 54.6597C62.5947 53.2197 61.4481 51.9997 60.0014 51.9997C59.5947 51.9997 59.2214 51.7663 59.0347 51.4063L58.5547 50.4397C58.2481 49.833 57.4481 49.333 56.7681 49.333H55.2414C54.5547 49.333 53.7547 49.833 53.4481 50.4397L52.9681 51.4063C52.7814 51.7663 52.4081 51.9997 52.0014 51.9997C50.5547 51.9997 49.4081 53.2197 49.5014 54.6597L49.8481 60.1663C49.9281 61.5397 50.6681 62.6663 52.5081 62.6663Z" stroke="#FDF1EC" stroke-width="0.875" stroke-linecap="round" stroke-linejoin="round"/>
<path d="M55 53.333H57" stroke="#FDF1EC" stroke-width="0.875" stroke-linecap="round" stroke-linejoin="round"/>
<path d="M55.9987 60.0003C57.192 60.0003 58.1654 59.027 58.1654 57.8337C58.1654 56.6403 57.192 55.667 55.9987 55.667C54.8054 55.667 53.832 56.6403 53.832 57.8337C53.832 59.027 54.8054 60.0003 55.9987 60.0003Z" stroke="#FDF1EC" stroke-width="0.875" stroke-linecap="round" stroke-linejoin="round"/>
</svg>
