<svg width="20" height="20" viewBox="0 0 20 20" fill="none" xmlns="http://www.w3.org/2000/svg">
<path d="M18.3111 16.4086C17.24 14.5287 15.5674 13.0639 13.5627 12.25C14.5596 11.5023 15.296 10.4599 15.6676 9.27037C16.0392 8.08088 16.0271 6.80463 15.633 5.6224C15.2389 4.44017 14.4829 3.4119 13.4719 2.68325C12.461 1.9546 11.2464 1.5625 10.0002 1.5625C8.75401 1.5625 7.53942 1.9546 6.52847 2.68325C5.51752 3.4119 4.76146 4.44017 4.36738 5.6224C3.9733 6.80463 3.96119 8.08088 4.33276 9.27037C4.70433 10.4599 5.44075 11.5023 6.43769 12.25C4.43294 13.0639 2.76038 14.5287 1.68925 16.4086C1.62288 16.5153 1.57864 16.6343 1.55917 16.7585C1.5397 16.8826 1.54539 17.0094 1.57591 17.1313C1.60642 17.2532 1.66114 17.3678 1.7368 17.4681C1.81247 17.5685 1.90753 17.6526 2.01635 17.7155C2.12517 17.7783 2.24552 17.8187 2.37025 17.8341C2.49497 17.8495 2.62153 17.8397 2.74239 17.8053C2.86325 17.7708 2.97595 17.7124 3.07379 17.6335C3.17162 17.5546 3.2526 17.4569 3.31191 17.3461C4.72753 14.8992 7.22753 13.4398 10.0002 13.4398C12.7728 13.4398 15.2728 14.9 16.6885 17.3461C16.817 17.5528 17.0209 17.7013 17.2569 17.7604C17.493 17.8195 17.7428 17.7845 17.9536 17.6627C18.1643 17.541 18.3194 17.3421 18.3861 17.108C18.4529 16.874 18.426 16.6232 18.3111 16.4086ZM5.93769 7.50234C5.93769 6.69886 6.17595 5.91341 6.62234 5.24534C7.06874 4.57727 7.70321 4.05656 8.44554 3.74908C9.18786 3.4416 10.0047 3.36115 10.7927 3.5179C11.5808 3.67466 12.3047 4.06157 12.8728 4.62972C13.441 5.19787 13.8279 5.92174 13.9846 6.70979C14.1414 7.49784 14.0609 8.31467 13.7534 9.05699C13.446 9.79932 12.9253 10.4338 12.2572 10.8802C11.5891 11.3266 10.8037 11.5648 10.0002 11.5648C8.92313 11.5636 7.89053 11.1352 7.12894 10.3736C6.36734 9.612 5.93893 8.5794 5.93769 7.50234Z" fill="#121212"/>
</svg>
