<svg width="130" height="105" viewBox="0 0 130 105" fill="none" xmlns="http://www.w3.org/2000/svg">
<path d="M18.5102 34.9782C20.3173 36.5764 25.9694 40.3924 29.543 38.4606C30.2927 38.0553 32.0063 35.2097 31.2074 32.3027C30.8428 30.9232 30.4275 27.7403 31.6829 26.0446C32.6816 25.0857 33.4615 24.5911 38.4833 26.0446C40.449 26.7511 45.1981 28.1642 48.4699 28.1642C49.9759 27.9792 52.9021 26.6704 52.5597 22.9155C52.4646 21.7043 51.5135 18.2421 48.4699 14.0835C47.7249 12.4853 46.5107 8.45119 47.6139 5.10007C48.2956 3.40103 50.9048 0.00295557 55.8886 0.00295557C56.6653 -0.0138673 58.9511 0.174549 61.8805 1.0628C63.6718 1.92076 68.1007 4.10101 71.4867 5.95825C72.7073 6.5807 76.0235 7.82559 79.5235 7.82559C80.8551 7.65737 83.851 7.15941 85.1826 6.51341C86.213 5.97508 89.434 4.747 94.0754 4.14133C95.2802 4.02357 97.8608 4.5148 98.5456 7.42179C98.7992 8.66669 99.1543 11.7621 98.5456 14.1846C98.1969 15.4127 97.9369 18.3533 99.6869 20.2913C100.337 21.0316 102.521 22.5123 106.059 22.5123C109.071 22.4787 116.151 22.8656 120.373 24.6824C122.941 25.4899 128.306 28.8814 129.219 35.9874C129.377 37.451 129.371 40.6608 128.077 41.7913C126.904 42.7334 124.054 44.4258 122.038 43.6587C120.706 43.3054 117.644 43.5577 116.046 47.3933C115.792 48.0326 115.247 49.4928 115.095 50.2196C114.984 50.943 114.933 53.0256 115.618 55.5693C115.903 56.4777 116.388 58.4561 116.046 59.1021C115.872 59.4553 115.371 60.1922 114.762 60.3133C113.827 60.4984 111.481 61.1208 110.149 62.9881C109.689 63.7284 109.046 66.5512 110.149 71.9211C110.862 74.7473 111.975 81.712 110.72 86.9607C110.244 88.6262 108.856 92.5729 107.106 95.0357C105.885 96.7685 102.597 100.436 99.2114 101.243C97.9908 101.462 95.0931 101.768 93.267 101.243C91.555 100.688 87.3226 98.0538 84.0888 91.9571C82.8365 90.0562 79.4284 87.0011 75.8142 89.9889C71.7086 93.4376 61.9947 100.93 55.9837 103.313C53.0194 104.44 45.6261 105.271 39.7673 99.5779C38.1029 97.5423 35.9439 92.3609 40.6233 87.9197C43.0962 86.2374 47.8517 82.0754 47.0908 78.8858C46.8372 77.5063 44.4277 75.0098 36.8189 76.0595C28.1004 77.4222 9.19881 78.805 3.33998 73.4352C0.819553 70.2893 -2.70905 63.2001 3.33998 60.0105C7.46144 57.9581 15.5522 52.8036 14.9436 48.6048C13.9607 42.9859 13.2981 32.3942 18.5102 34.9782Z" fill="white"/>
</svg>
